{
.appVersion = "1141";
DisplayStrings = (
"The History and   Fuarture of Free Software Font Editors.",
P,
e,
T
);
customParameters = (
{
name = glyphOrder;
value = (
space,
exclam,
quotesingle,
quotedbl,
numbersign,
dollar,
percent,
ampersand,
parenleft,
parenright,
asterisk,
plus,
comma,
hyphen,
period,
slash,
zero,
one,
two,
three,
four,
five,
six,
seven,
eight,
nine,
colon,
semicolon,
less,
equal,
greater,
question,
at,
A,
B,
C,
D,
E,
F,
G,
H,
I,
J,
K,
L,
M,
N,
O,
P,
Q,
R,
S,
T,
U,
V,
W,
X,
Y,
Z,
bracketleft,
backslash,
bracketright,
asciicircum,
underscore,
grave,
a,
b,
c,
d,
e,
f,
g,
h,
i,
j,
k,
l,
m,
n,
o,
p,
q,
r,
s,
t,
u,
v,
w,
x,
y,
z,
braceleft,
bar,
braceright,
asciitilde,
exclamdown,
cent,
sterling,
currency,
yen,
brokenbar,
section,
dieresis,
copyright,
ordfeminine,
guillemetleft,
logicalnot,
registered,
macron,
degree,
plusminus,
twosuperior,
threesuperior,
acute,
mu,
paragraph,
periodcentered,
cedilla,
onesuperior,
ordmasculine,
guillemetright,
onequarter,
onehalf,
threequarters,
questiondown,
Agrave,
Aacute,
Acircumflex,
Atilde,
Adieresis,
Aring,
AE,
Ccedilla,
Egrave,
Eacute,
Ecircumflex,
Edieresis,
Igrave,
Iacute,
Icircumflex,
Idieresis,
Eth,
Ntilde,
Ograve,
Oacute,
Ocircumflex,
Otilde,
Odieresis,
multiply,
Oslash,
Ugrave,
Uacute,
Ucircumflex,
Udieresis,
Yacute,
Thorn,
germandbls,
agrave,
aacute,
acircumflex,
atilde,
adieresis,
aring,
ae,
ccedilla,
egrave,
eacute,
ecircumflex,
edieresis,
igrave,
iacute,
icircumflex,
idieresis,
eth,
ntilde,
ograve,
oacute,
ocircumflex,
otilde,
odieresis,
divide,
oslash,
ugrave,
uacute,
ucircumflex,
udieresis,
yacute,
thorn,
ydieresis,
dotlessi,
circumflex,
caron,
breve,
dotaccent,
ring,
ogonek,
tilde,
hungarumlaut,
quoteleft,
quoteright,
minus,
circumflexcomb,
uni0429,
uni0428,
uni0427,
uni0426,
uni0425,
uni0424,
uni0423,
uni0422,
uni0421,
uni0420,
uni041F,
uni043D,
uni043E,
uni043F,
uni043A,
uni043B,
uni043C,
guillemotright,
uni0438,
gravecomb,
uni0434,
uni0436,
uni0437,
uni0430,
uni0431,
uni0432,
uni0433,

glyphs = (
{
color = 11;
glyphname = exclam;
lastChange = "2018-07-07 03:14:17 +0000";
layers = (
{
layerId = "EE8FC948-6E49-42F4-ACA5-5A0A3F8AB331";
paths = (
{
closed = 1;
nodes = (
"160 220 LINE",
"170 460 OFFCURVE",
"210 585 OFFCURVE",
"210 675 CURVE SMOOTH",
"210 715 OFFCURVE",
"190 750 OFFCURVE",
"140 750 CURVE SMOOTH",
"90 750 OFFCURVE",
"70 715 OFFCURVE",
"70 675 CURVE SMOOTH",
"70 585 OFFCURVE",
"110 460 OFFCURVE",
"120 220 CURVE"
);
},
{
closed = 1;
nodes = (
"180 -20 OFFCURVE",
"210 10 OFFCURVE",
"210 50 CURVE SMOOTH",
"210 90 OFFCURVE",
"180 120 OFFCURVE",
"140 120 CURVE SMOOTH",
"100 120 OFFCURVE",
"70 90 OFFCURVE",
"70 50 CURVE SMOOTH",
"70 10 OFFCURVE",
"100 -20 OFFCURVE",
"140 -20 CURVE SMOOTH"
);
}
);
width = 280;
}
);
unicode = 0021;
userData = {
com.fontlab.hintData = {
hhints = (
{
position = -20;
width = 139;
},
{
position = 730;
width = 20;
}
);
vhints = (
{
position = 96;
width = 139;
}
);
};
};
},
{
color = 11;
glyphname = quotesingle;
lastChange = "2018-07-07 03:14:17 +0000";
layers = (
{
layerId = "EE8FC948-6E49-42F4-ACA5-5A0A3F8AB331";
paths = (
{
closed = 1;
nodes = (
"145 414 LINE",
"168 559 LINE",
"175 608 LINE",
"179 650 LINE SMOOTH",
"179 680 OFFCURVE",
"159 700 OFFCURVE",
"129 700 CURVE SMOOTH",
"99 700 OFFCURVE",
"80 680 OFFCURVE",
"80 650 CURVE SMOOTH",
"83 608 LINE",
"90 559 LINE",
"114 414 LINE"
);
}
);
width = 259;
}
);
unicode = 0027;
userData = {
com.fontlab.hintData = {
hhints = (
{
position = 414;
width = 286;
}
);
vhints = (
{
position = 80;
width = 99;
},
{
position = 114;
width = 31;
}
);
};
};
},
{
color = 11;
glyphname = quotedbl;
lastChange = "2018-07-07 03:14:17 +0000";
layers = (
{
layerId = "EE8FC948-6E49-42F4-ACA5-5A0A3F8AB331";
paths = (
{
closed = 1;
nodes = (
"308 414 LINE",
"331 559 LINE",
"338 608 LINE",
"342 650 LINE SMOOTH",
"342 680 OFFCURVE",
"322 700 OFFCURVE",
"292 700 CURVE SMOOTH",
"262 700 OFFCURVE",
"242 680 OFFCURVE",
"242 650 CURVE SMOOTH",
"246 608 LINE",
"253 559 LINE",
"276 414 LINE"
);
},
{
closed = 1;
nodes = (
"131 414 LINE",
"154 559 LINE",
"161 608 LINE",
"165 650 LINE SMOOTH",
"165 680 OFFCURVE",
"145 700 OFFCURVE",
"115 700 CURVE SMOOTH",
"85 700 OFFCURVE",
"66 680 OFFCURVE",
"66 650 CURVE SMOOTH",
"69 608 LINE",
"76 559 LINE",
"100 414 LINE"
);
}
);
width = 408;
}
);
unicode = 0022;
userData = {
com.fontlab.hintData = {
hhints = (
{
position = 414;
width = 286;
}
);
vhints = (
{
position = 66;
width = 99;
},
{
position = 100;
width = 31;
},
{
position = 242;
width = 100;
}
);
};
};
},
{
color = 11;
glyphname = numbersign;
lastChange = "2018-07-07 03:14:17 +0000";
layers = (
{
layerId = "EE8FC948-6E49-42F4-ACA5-5A0A3F8AB331";
paths = (
{
closed = 1;
nodes = (
"193 -16 LINE",
"232 177 LINE",
"389 177 LINE",
"348 -16 LINE",
"428 -16 LINE",
"469 177 LINE",
"605 177 LINE",
"625 257 LINE",
"484 257 LINE",
"518 408 LINE",
"645 408 LINE",
"665 488 LINE",
"532 488 LINE",
"573 682 LINE",
"493 682 LINE",
"452 488 LINE",
"297 488 LINE",
"338 682 LINE",
"259 682 LINE",
"217 488 LINE",
"100 488 LINE",
"80 408 LINE",
"203 408 LINE",
"168 257 LINE",
"60 257 LINE",
"40 177 LINE",
"153 177 LINE",
"112 -16 LINE"
);
},
{
closed = 1;
nodes = (
"283 408 LINE",
"438 408 LINE",
"404 258 LINE",
"248 258 LINE"
);
}
);
width = 705;
}
);
unicode = 0023;
userData = {
com.fontlab.hintData = {
hhints = (
{
position = -16;
width = 21;
},
{
position = 177;
width = 80;
},
{
position = 408;
width = 80;
}
);
};
};
},
{
color = 11;
glyphname = dollar;
lastChange = "2018-07-07 03:14:17 +0000";
layers = (
{
layerId = "EE8FC948-6E49-42F4-ACA5-5A0A3F8AB331";
paths = (
{
closed = 1;
nodes = (
"341 -128 LINE",
"341 -13.528 LINE",
"472.371 -1.86 OFFCURVE",
"554 78.394 OFFCURVE",
"554 200 CURVE SMOOTH",
"554 326.781 OFFCURVE",
"446.659 373.728 OFFCURVE",
"340 408 CURVE SMOOTH",
"243.261 439.085 OFFCURVE",
"154 487.087 OFFCURVE",
"154 556 CURVE SMOOTH",
"154 623.8 OFFCURVE",
"203.802 660 OFFCURVE",
"288 660 CURVE SMOOTH",
"381.287 660 OFFCURVE",
"435.559 610.44 OFFCURVE",
"461 494 CURVE",
"505 494 LINE",
"505 641 LINE",
"458.132 676.943 OFFCURVE",
"403.54 701.683 OFFCURVE",
"341 710.948 CURVE",
"341 829 LINE",
"271 829 LINE",
"271 714.743 LINE",
"139.591 709.881 OFFCURVE",
"50 636.351 OFFCURVE",
"50 525 CURVE SMOOTH",
"50 389.378 OFFCURVE",
"200.771 325.056 OFFCURVE",
"294 296 CURVE SMOOTH",
"384.68 267.738 OFFCURVE",
"454 231.382 OFFCURVE",
"454 163 CURVE SMOOTH",
"454 96.51 OFFCURVE",
"388.591 40 OFFCURVE",
"297 40 CURVE SMOOTH",
"195.974 40 OFFCURVE",
"133.838 113.143 OFFCURVE",
"117 230 CURVE",
"70 230 LINE",
"70 40 LINE",
"125.369 10.484 OFFCURVE",
"167.309 -10.541 OFFCURVE",
"271 -14.372 CURVE",
"271 -128 LINE"
);
}
);
width = 606;
}
);
unicode = 0024;
userData = {
com.fontlab.hintData = {
hhints = (
{
position = -15;
width = 10;
},
{
position = 494;
width = 21;
},
{
position = 705;
width = 10;
}
);
vhints = (
{
position = 50;
width = 104;
},
{
position = 70;
width = 47;
},
{
position = 271;
width = 70;
},
{
position = 454;
width = 100;
},
{
position = 461;
width = 44;
}
);
};
};
},
{
color = 11;
glyphname = percent;
lastChange = "2018-07-07 03:14:17 +0000";
layers = (
{
layerId = "EE8FC948-6E49-42F4-ACA5-5A0A3F8AB331";
paths = (
{
closed = 1;
nodes = (
"263 -31 LINE",
"724 694 LINE",
"653 694 LINE",
"191 -31 LINE"
);
},
{
closed = 1;
nodes = (
"307 339 OFFCURVE",
"369 415 OFFCURVE",
"369 516 CURVE SMOOTH",
"369 619 OFFCURVE",
"307 694 OFFCURVE",
"223 694 CURVE SMOOTH",
"138 694 OFFCURVE",
"76 617 OFFCURVE",
"76 513 CURVE SMOOTH",
"76 412 OFFCURVE",
"138 339 OFFCURVE",
"223 339 CURVE SMOOTH"
);
},
{
closed = 1;
nodes = (
"179 370 OFFCURVE",
"158 416.186 OFFCURVE",
"158 515 CURVE SMOOTH",
"158 615.812 OFFCURVE",
"179 663 OFFCURVE",
"222 663 CURVE SMOOTH",
"267 663 OFFCURVE",
"287 616.972 OFFCURVE",
"287 511 CURVE SMOOTH",
"287 417.358 OFFCURVE",
"266 370 OFFCURVE",
"223 370 CURVE SMOOTH"
);
},
{
closed = 1;
nodes = (
"767 -12 OFFCURVE",
"829 64 OFFCURVE",
"829 165 CURVE SMOOTH",
"829 268 OFFCURVE",
"767 343 OFFCURVE",
"683 343 CURVE SMOOTH",
"598 343 OFFCURVE",
"536 266 OFFCURVE",
"536 162 CURVE SMOOTH",
"536 61 OFFCURVE",
"598 -12 OFFCURVE",
"683 -12 CURVE SMOOTH"
);
},
{
closed = 1;
nodes = (
"639 19 OFFCURVE",
"618 65.186 OFFCURVE",
"618 164 CURVE SMOOTH",
"618 264.812 OFFCURVE",
"639 312 OFFCURVE",
"682 312 CURVE SMOOTH",
"727 312 OFFCURVE",
"747 265.972 OFFCURVE",
"747 160 CURVE SMOOTH",
"747 66.358 OFFCURVE",
"726 19 OFFCURVE",
"683 19 CURVE SMOOTH"
);
}
);
width = 906;
}
);
unicode = 0025;
userData = {
com.fontlab.hintData = {
hhints = (
{
position = -12;
width = 31;
},
{
position = 312;
width = 31;
},
{
position = 339;
width = 31;
},
{
position = 663;
width = 31;
}
);
vhints = (
{
position = 76;
width = 82;
},
{
position = 287;
width = 82;
},
{
position = 536;
width = 82;
},
{
position = 747;
width = 82;
}
);
};
};
},
{
color = 11;
glyphname = ampersand;
lastChange = "2018-07-07 03:14:17 +0000";
layers = (
{
layerId = "EE8FC948-6E49-42F4-ACA5-5A0A3F8AB331";
paths = (
{
closed = 1;
nodes = (
"326 -15 OFFCURVE",
"385 12.818 OFFCURVE",
"464 87 CURVE",
"508 21 OFFCURVE",
"567 -10 OFFCURVE",
"645 -10 CURVE SMOOTH",
"690 -10 OFFCURVE",
"710 -5 OFFCURVE",
"730 0 CURVE",
"730 45 LINE",
"700 45 OFFCURVE",
"647.069 47.93 OFFCURVE",
"590 105 CURVE SMOOTH",
"577 118 OFFCURVE",
"554 146.999 OFFCURVE",
"535 169.999 CURVE",
"639 308.999 OFFCURVE",
"630 380 OFFCURVE",
"725 400 CURVE",
"725 440 LINE",
"515 440 LINE",
"515 401 LINE",
"553 394 OFFCURVE",
"578 372 OFFCURVE",
"578 345 CURVE SMOOTH",
"578 319 OFFCURVE",
"552 263 OFFCURVE",
"510 207 CURVE",
"451 296 OFFCURVE",
"391 385 OFFCURVE",
"338 431 CURVE",
"440 495 OFFCURVE",
"471 527 OFFCURVE",
"471 570 CURVE SMOOTH",
"471 659.303 OFFCURVE",
"421 700 OFFCURVE",
"343 700 CURVE SMOOTH",
"281 700 OFFCURVE",
"150 669.506 OFFCURVE",
"150 537 CURVE SMOOTH",
"150 498 OFFCURVE",
"171 458 OFFCURVE",
"223 401 CURVE",
"88 306 OFFCURVE",
"40 255 OFFCURVE",
"40 173 CURVE SMOOTH",
"40 82.557 OFFCURVE",
"109 -15 OFFCURVE",
"248 -15 CURVE SMOOTH"
);
},
{
closed = 1;
nodes = (
"222.001 63 OFFCURVE",
"135.001 140.999 OFFCURVE",
"135.001 221.999 CURVE SMOOTH",
"135.001 271.999 OFFCURVE",
"169.001 316.999 OFFCURVE",
"250.001 372.999 CURVE",
"302.001 326.999 OFFCURVE",
"385.001 215.999 OFFCURVE",
"440.001 119 CURVE",
"392.001 77 OFFCURVE",
"360.001 63 OFFCURVE",
"312.001 63 CURVE SMOOTH"
);
},
{
closed = 1;
nodes = (
"255.001 506.999 OFFCURVE",
"224.001 541 OFFCURVE",
"224.001 571 CURVE SMOOTH",
"224.001 630.499 OFFCURVE",
"270.001 650 OFFCURVE",
"315.001 650 CURVE SMOOTH",
"353.001 650 OFFCURVE",
"396.001 613.384 OFFCURVE",
"396.001 558 CURVE SMOOTH",
"396.001 525 OFFCURVE",
"369.001 494.999 OFFCURVE",
"309.001 459.999 CURVE"
);
}
);
width = 755;
}
);
unicode = 0026;
userData = {
com.fontlab.hintData = {
hhints = (
{
position = -15;
width = 78;
},
{
position = -6;
width = 50;
},
{
position = 401;
width = 38;
},
{
position = 650;
width = 50;
}
);
vhints = (
{
position = 40;
width = 95;
},
{
position = 150;
width = 74;
},
{
position = 396;
width = 75;
}
);
};
};
},
{
color = 11;
glyphname = parenleft;
lastChange = "2018-07-07 03:14:17 +0000";
layers = (
{
layerId = "EE8FC948-6E49-42F4-ACA5-5A0A3F8AB331";
paths = (
{
closed = 1;
nodes = (
"370 -147 LINE",
"272.725 -64 OFFCURVE",
"188 73 OFFCURVE",
"188 255 CURVE SMOOTH",
"188 437 OFFCURVE",
"272.725 574 OFFCURVE",
"370 657 CURVE",
"349 695 LINE",
"184.804 600 OFFCURVE",
"85 446 OFFCURVE",
"85 255 CURVE SMOOTH",
"85 64 OFFCURVE",
"184.804 -90 OFFCURVE",
"349 -185 CURVE"
);
}
);
width = 385;
}
);
unicode = 0028;
userData = {
com.fontlab.hintData = {
vhints = (
{
position = 85;
width = 103;
}
);
};
};
},
{
color = 11;
glyphname = parenright;
lastChange = "2018-07-07 03:14:17 +0000";
layers = (
{
layerId = "EE8FC948-6E49-42F4-ACA5-5A0A3F8AB331";
paths = (
{
closed = 1;
nodes = (
"200.196 -90 OFFCURVE",
"300 64 OFFCURVE",
"300 255 CURVE SMOOTH",
"300 446 OFFCURVE",
"200.196 600 OFFCURVE",
"36 695 CURVE",
"15 657 LINE",
"111.755 574 OFFCURVE",
"197 437 OFFCURVE",
"197 255 CURVE SMOOTH",
"197 73 OFFCURVE",
"111.755 -64 OFFCURVE",
"15 -147 CURVE",
"36 -185 LINE"
);
}
);
width = 385;
}
);
unicode = 0029;
userData = {
com.fontlab.hintData = {
vhints = (
{
position = 197;
width = 103;
}
);
};
};
},
{
color = 11;
glyphname = asterisk;
lastChange = "2018-07-07 03:14:17 +0000";
layers = (
{
layerId = "EE8FC948-6E49-42F4-ACA5-5A0A3F8AB331";
paths = (
{
closed = 1;
nodes = (
"316 345 LINE",
"303 505 LINE",
"407 383 LINE",
"442 418 LINE",
"320 523 LINE",
"480 510 LINE",
"480 560 LINE",
"320 547 LINE",
"442 652 LINE",
"407 687 LINE",
"303 565 LINE",
"316 725 LINE",
"264 725 LINE",
"277 565 LINE",
"173 687 LINE",
"138 652 LINE",
"260 547 LINE",
"100 560 LINE",
"100 510 LINE",
"260 523 LINE",
"138 418 LINE",
"173 383 LINE",
"277 505 LINE",
"264 345 LINE"
);
}
);
width = 580;
}
);
unicode = 002A;
},
{
color = 11;
glyphname = plus;
lastChange = "2018-07-07 03:14:17 +0000";
layers = (
{
layerId = "EE8FC948-6E49-42F4-ACA5-5A0A3F8AB331";
paths = (
{
closed = 1;
nodes = (
"339 51 LINE",
"339 280 LINE",
"568 280 LINE",
"568 350 LINE",
"339 350 LINE",
"339 579 LINE",
"269 579 LINE",
"269 350 LINE",
"40 350 LINE",
"40 280 LINE",
"269 280 LINE",
"269 51 LINE"
);
}
);
width = 608;
}
);
unicode = 002B;
userData = {
com.fontlab.hintData = {
hhints = (
{
position = 280;
width = 70;
}
);
vhints = (
{
position = 269;
width = 70;
}
);
};
};
},
{
color = 11;
glyphname = comma;
lastChange = "2018-07-07 03:14:17 +0000";
layers = (
{
layerId = "EE8FC948-6E49-42F4-ACA5-5A0A3F8AB331";
paths = (
{
closed = 1;
nodes = (
"170 -100 OFFCURVE",
"180 -20 OFFCURVE",
"180 50 CURVE SMOOTH",
"180 80 OFFCURVE",
"160 135 OFFCURVE",
"95 135 CURVE SMOOTH",
"55 135 OFFCURVE",
"30 105 OFFCURVE",
"30 70 CURVE SMOOTH",
"30 35 OFFCURVE",
"55 0 OFFCURVE",
"95 0 CURVE SMOOTH",
"110 0 OFFCURVE",
"120 -10 OFFCURVE",
"120 -30 CURVE SMOOTH",
"120 -60 OFFCURVE",
"90 -100 OFFCURVE",
"50 -120 CURVE",
"70 -150 LINE"
);
}
);
width = 230;
}
);
unicode = 002C;
userData = {
com.fontlab.hintData = {
hhints = (
{
position = -160;
width = 37;
},
{
position = -20;
width = 153;
},
{
position = 13;
width = 120;
}
);
vhints = (
{
position = 65;
width = 140;
},
{
position = 174;
width = 59;
}
);
};
};
},
{
color = 11;
glyphname = hyphen;
lastChange = "2018-07-07 03:14:17 +0000";
layers = (
{
layerId = "EE8FC948-6E49-42F4-ACA5-5A0A3F8AB331";
paths = (
{
closed = 1;
nodes = (
"350 240 LINE",
"350 300 LINE",
"40 300 LINE",
"40 240 LINE"
);
}
);
width = 390;
}
);
unicode = 002D;
userData = {
com.fontlab.hintData = {
hhints = (
{
position = 280;
width = 70;
}
);
vhints = (
{
position = 40;
width = 310;
}
);
};
};
},
{
color = 11;
glyphname = period;
lastChange = "2018-07-07 03:14:17 +0000";
layers = (
{
layerId = "EE8FC948-6E49-42F4-ACA5-5A0A3F8AB331";
paths = (
{
closed = 1;
nodes = (
"197 -20 OFFCURVE",
"233 11.5 OFFCURVE",
"233 56.5 CURVE SMOOTH",
"233 101.5 OFFCURVE",
"197 133 OFFCURVE",
"156.5 133 CURVE SMOOTH",
"116 133 OFFCURVE",
"80 101.5 OFFCURVE",
"80 56.5 CURVE SMOOTH",
"80 11.5 OFFCURVE",
"116 -20 OFFCURVE",
"156.5 -20 CURVE SMOOTH"
);
}
);
width = 313;
}
);
unicode = 002E;
userData = {
com.fontlab.hintData = {
hhints = (
{
position = -20;
width = 153;
}
);
vhints = (
{
position = 80;
width = 153;
}
);
};
};
},
{
color = 11;
glyphname = slash;
lastChange = "2018-07-07 03:14:17 +0000";
layers = (
{
layerId = "EE8FC948-6E49-42F4-ACA5-5A0A3F8AB331";
paths = (
{
closed = 1;
nodes = (
"-342 -79 LINE",
"328 715 LINE",
"274 715 LINE",
"-396 -79 LINE"
);
}
);
width = 338;
}
);
unicode = 002F;
userData = {
com.fontlab.hintData = {
hhints = (
{
position = -15;
width = 21;
},
{
position = 695;
width = 20;
}
);
vhints = (
{
position = 20;
width = 308;
}
);
};
};
},
{
color = 11;
glyphname = zero;
lastChange = "2018-07-07 03:14:17 +0000";
layers = (
{
layerId = "EE8FC948-6E49-42F4-ACA5-5A0A3F8AB331";
paths = (
{
closed = 1;
nodes = (
"457.4 -15 OFFCURVE",
"567 124.645 OFFCURVE",
"567 350 CURVE SMOOTH",
"567 587.809 OFFCURVE",
"442.707 700 OFFCURVE",
"314 700 CURVE SMOOTH",
"144.345 700 OFFCURVE",
"40 539.609 OFFCURVE",
"40 336 CURVE SMOOTH",
"40 97.512 OFFCURVE",
"169.442 -15 OFFCURVE",
"293 -15 CURVE SMOOTH"
);
},
{
closed = 1;
nodes = (
"225.711 25 OFFCURVE",
"150 114.07 OFFCURVE",
"150 358 CURVE SMOOTH",
"150 483.244 OFFCURVE",
"179.211 660 OFFCURVE",
"300 660 CURVE SMOOTH",
"381.289 660 OFFCURVE",
"457 564.134 OFFCURVE",
"457 328 CURVE SMOOTH",
"457 195.247 OFFCURVE",
"434.105 25 OFFCURVE",
"307 25 CURVE SMOOTH"
);
}
);
width = 607;
}
);
unicode = 0030;
userData = {
com.fontlab.hintData = {
hhints = (
{
position = -15;
width = 40;
},
{
position = 660;
width = 40;
}
);
vhints = (
{
position = 40;
width = 110;
},
{
position = 457;
width = 110;
}
);
};
};
},
{
color = 11;
glyphname = one;
lastChange = "2018-07-07 03:14:17 +0000";
layers = (
{
layerId = "EE8FC948-6E49-42F4-ACA5-5A0A3F8AB331";
paths = (
{
closed = 1;
nodes = (
"405 0 LINE",
"405 30 LINE",
"325 50 LINE SMOOTH",
"305 55 OFFCURVE",
"295 70 OFFCURVE",
"295 90 CURVE SMOOTH",
"295 100 LINE",
"295 700 LINE",
"260 700 LINE",
"209.478 662 OFFCURVE",
"167.205 649 OFFCURVE",
"94 649 CURVE",
"94 613 LINE",
"111 613 LINE SMOOTH",
"169 613 OFFCURVE",
"190 585 OFFCURVE",
"190 531 CURVE SMOOTH",
"190 100 LINE",
"190 90 LINE SMOOTH",
"190 70 OFFCURVE",
"180 55 OFFCURVE",
"160 50 CURVE SMOOTH",
"80 30 LINE",
"80 0 LINE"
);
}
);
width = 485;
}
);
unicode = 0031;
userData = {
com.fontlab.hintData = {
hhints = (
{
position = 0;
width = 30;
},
{
position = 613;
width = 36;
},
{
position = 680;
width = 20;
}
);
vhints = (
{
position = 190;
width = 105;
}
);
};
};
},
{
color = 11;
glyphname = two;
lastChange = "2018-07-07 03:14:17 +0000";
layers = (
{
layerId = "EE8FC948-6E49-42F4-ACA5-5A0A3F8AB331";
paths = (
{
closed = 1;
nodes = (
"466 0 LINE",
"515 165 LINE",
"480 165 LINE",
"452 99 OFFCURVE",
"427 81 OFFCURVE",
"363 81 CURVE SMOOTH",
"133 81 LINE",
"294.832 274.051 OFFCURVE",
"501 334.038 OFFCURVE",
"501 514 CURVE SMOOTH",
"501 617 OFFCURVE",
"426.497 700 OFFCURVE",
"279 700 CURVE SMOOTH",
"176 700 OFFCURVE",
"92 625 OFFCURVE",
"44 491 CURVE",
"81 476 LINE",
"122 573 OFFCURVE",
"184 628 OFFCURVE",
"254 628 CURVE SMOOTH",
"352.359 628 OFFCURVE",
"391 568 OFFCURVE",
"391 495 CURVE SMOOTH",
"391 362.617 OFFCURVE",
"235.118 256.276 OFFCURVE",
"40 36 CURVE",
"40 0 LINE"
);
}
);
width = 555;
}
);
unicode = 0032;
userData = {
com.fontlab.hintData = {
hhints = (
{
position = 0;
width = 81;
},
{
position = 628;
width = 72;
}
);
vhints = (
{
position = 391;
width = 110;
}
);
};
};
},
{
color = 11;
glyphname = three;
lastChange = "2018-07-07 03:14:17 +0000";
layers = (
{
layerId = "EE8FC948-6E49-42F4-ACA5-5A0A3F8AB331";
paths = (
{
closed = 1;
nodes = (
"387.252 -15 OFFCURVE",
"521 90.052 OFFCURVE",
"521 251 CURVE SMOOTH",
"521 353.573 OFFCURVE",
"447 420 OFFCURVE",
"335 420 CURVE",
"333 422 LINE",
"433.848 468 OFFCURVE",
"473 508 OFFCURVE",
"473 569 CURVE SMOOTH",
"473 646.059 OFFCURVE",
"388.053 700 OFFCURVE",
"295 700 CURVE SMOOTH",
"193.542 700 OFFCURVE",
"122 656 OFFCURVE",
"58 537 CURVE",
"86 515 LINE",
"140.387 594.399 OFFCURVE",
"191.979 628 OFFCURVE",
"265.999 628 CURVE SMOOTH",
"321.746 628 OFFCURVE",
"362.999 589.662 OFFCURVE",
"362.999 542 CURVE SMOOTH",
"362.999 467 OFFCURVE",
"298.72 432 OFFCURVE",
"166.999 362 CURVE",
"183 329 LINE",
"220 354 OFFCURVE",
"255 367 OFFCURVE",
"286 367 CURVE SMOOTH",
"356.652 367 OFFCURVE",
"411 308.992 OFFCURVE",
"411 228 CURVE SMOOTH",
"411 94.486 OFFCURVE",
"312.48 28 OFFCURVE",
"193 28 CURVE SMOOTH",
"147.585 28 OFFCURVE",
"111.902 36 OFFCURVE",
"60 59 CURVE",
"40 30 LINE",
"82.792 3 OFFCURVE",
"158.868 -15 OFFCURVE",
"229 -15 CURVE SMOOTH"
);
}
);
width = 561;
}
);
unicode = 0033;
userData = {
com.fontlab.hintData = {
hhints = (
{
position = -15;
width = 43;
},
{
position = 367;
width = 53;
},
{
position = 628;
width = 72;
}
);
vhints = (
{
position = 363;
width = 110;
},
{
position = 411;
width = 110;
}
);
};
};
},
{
color = 11;
glyphname = four;
lastChange = "2018-07-07 03:14:17 +0000";
layers = (
{
layerId = "EE8FC948-6E49-42F4-ACA5-5A0A3F8AB331";
paths = (
{
closed = 1;
nodes = (
"512 0 LINE",
"512 36 LINE",
"449 36 OFFCURVE",
"424 57 OFFCURVE",
"424 115 CURVE SMOOTH",
"424 187 LINE",
"512 187 LINE",
"527 300 LINE",
"493 300 LINE",
"478 251 OFFCURVE",
"464 236 OFFCURVE",
"424 236 CURVE",
"424 700 LINE",
"328 700 LINE",
"40 245 LINE",
"40 187 LINE",
"314 187 LINE",
"314 117 LINE SMOOTH",
"314 60 OFFCURVE",
"292 36 OFFCURVE",
"224 36 CURVE",
"224 0 LINE"
);
},
{
closed = 1;
nodes = (
"312 613 LINE",
"314 613 LINE",
"314 236 LINE",
"81 236 LINE"
);
}
);
width = 567;
}
);
unicode = 0034;
userData = {
com.fontlab.hintData = {
hhints = (
{
position = 0;
width = 36;
},
{
position = 187;
width = 49;
},
{
position = 680;
width = 20;
}
);
vhints = (
{
position = 314;
width = 110;
},
{
position = 493;
width = 34;
}
);
};
};
},
{
color = 11;
glyphname = five;
lastChange = "2018-07-07 03:14:17 +0000";
layers = (
{
layerId = "EE8FC948-6E49-42F4-ACA5-5A0A3F8AB331";
paths = (
{
closed = 1;
nodes = (
"343.461 -15 OFFCURVE",
"470 101.432 OFFCURVE",
"470 260 CURVE SMOOTH",
"470 399.703 OFFCURVE",
"377.688 508 OFFCURVE",
"236 508 CURVE SMOOTH",
"194.725 508 OFFCURVE",
"159.966 500 OFFCURVE",
"110 481 CURVE",
"140 619 LINE",
"440 619 LINE",
"459 712 LINE",
"425 712 LINE",
"417 702 OFFCURVE",
"407 700 OFFCURVE",
"367 700 CURVE SMOOTH",
"121 700 LINE",
"50 389 LINE",
"73 383 LINE",
"112 414 OFFCURVE",
"149 427 OFFCURVE",
"196 427 CURVE SMOOTH",
"291 427 OFFCURVE",
"360 352.142 OFFCURVE",
"360 246 CURVE SMOOTH",
"360 126.681 OFFCURVE",
"266 31 OFFCURVE",
"150 31 CURVE SMOOTH",
"122 31 OFFCURVE",
"93 35 OFFCURVE",
"55 43 CURVE",
"40 9 LINE",
"82 -7 OFFCURVE",
"128 -15 OFFCURVE",
"173 -15 CURVE SMOOTH"
);
}
);
width = 510;
}
);
unicode = 0035;
userData = {
com.fontlab.hintData = {
hhints = (
{
position = -15;
width = 46;
},
{
position = 427;
width = 81;
},
{
position = 619;
width = 81;
},
{
position = 619;
width = 93;
}
);
vhints = (
{
position = 360;
width = 110;
}
);
};
};
},
{
color = 11;
glyphname = six;
lastChange = "2018-07-07 03:14:17 +0000";
layers = (
{
layerId = "EE8FC948-6E49-42F4-ACA5-5A0A3F8AB331";
paths = (
{
closed = 1;
nodes = (
"442.418 -15 OFFCURVE",
"553 103.115 OFFCURVE",
"553 247 CURVE SMOOTH",
"553 375.571 OFFCURVE",
"460.725 472 OFFCURVE",
"334 472 CURVE SMOOTH",
"271.06 472 OFFCURVE",
"215.112 454 OFFCURVE",
"158 401 CURVE",
"156 403 LINE",
"180.03 567.773 OFFCURVE",
"302.362 659.883 OFFCURVE",
"452 665 CURVE",
"452 700 LINE",
"231.628 700 OFFCURVE",
"40 536.491 OFFCURVE",
"40 309 CURVE SMOOTH",
"40 89.66 OFFCURVE",
"187.254 -15 OFFCURVE",
"309 -15 CURVE SMOOTH"
);
},
{
closed = 1;
nodes = (
"207.022 31 OFFCURVE",
"150 169.787 OFFCURVE",
"150 333 CURVE",
"202.594 397 OFFCURVE",
"244.43 422 OFFCURVE",
"303 422 CURVE SMOOTH",
"385.782 422 OFFCURVE",
"443 342.983 OFFCURVE",
"443 225 CURVE SMOOTH",
"443 97.111 OFFCURVE",
"381.637 31 OFFCURVE",
"308 31 CURVE SMOOTH"
);
}
);
width = 593;
}
);
unicode = 0036;
userData = {
com.fontlab.hintData = {
hhints = (
{
position = -15;
width = 46;
},
{
position = 422;
width = 50;
},
{
position = 665;
width = 35;
}
);
vhints = (
{
position = 40;
width = 110;
},
{
position = 443;
width = 110;
}
);
};
};
},
{
color = 11;
glyphname = seven;
lastChange = "2018-07-07 03:14:17 +0000";
layers = (
{
layerId = "EE8FC948-6E49-42F4-ACA5-5A0A3F8AB331";
paths = (
{
closed = 1;
nodes = (
"299 0 LINE",
"300 192.216 OFFCURVE",
"394 491.34 OFFCURVE",
"487 649 CURVE",
"487 700 LINE",
"179 700 LINE SMOOTH",
"163 700 OFFCURVE",
"149 700 OFFCURVE",
"137 701 CURVE SMOOTH",
"125 702 OFFCURVE",
"114 705 OFFCURVE",
"105 712 CURVE",
"81 712 LINE",
"40 532 LINE",
"77 532 LINE",
"94 596 OFFCURVE",
"124 619 OFFCURVE",
"188 619 CURVE SMOOTH",
"414 619 LINE",
"272 342.563 OFFCURVE",
"189 149.601 OFFCURVE",
"189 0 CURVE"
);
}
);
width = 527;
}
);
unicode = 0037;
userData = {
com.fontlab.hintData = {
hhints = (
{
position = 0;
width = 21;
},
{
position = 619;
width = 81;
}
);
vhints = (
{
position = 40;
width = 37;
},
{
position = 189;
width = 110;
}
);
};
};
},
{
color = 11;
glyphname = eight;
lastChange = "2018-07-07 03:14:17 +0000";
layers = (
{
layerId = "EE8FC948-6E49-42F4-ACA5-5A0A3F8AB331";
paths = (
{
closed = 1;
nodes = (
"430.959 -12 OFFCURVE",
"530 69.941 OFFCURVE",
"530 187 CURVE SMOOTH",
"530 267.419 OFFCURVE",
"475.667 332.759 OFFCURVE",
"367 379 CURVE",
"467.203 418.042 OFFCURVE",
"512 465.761 OFFCURVE",
"512 533 CURVE SMOOTH",
"512 626.135 OFFCURVE",
"414.271 700 OFFCURVE",
"291 700 CURVE SMOOTH",
"162.529 700 OFFCURVE",
"57 618.047 OFFCURVE",
"57 518 CURVE SMOOTH",
"57 444.963 OFFCURVE",
"105.286 393.407 OFFCURVE",
"213 344 CURVE",
"109.937 307.788 OFFCURVE",
"40 251.459 OFFCURVE",
"40 173 CURVE SMOOTH",
"40 68.202 OFFCURVE",
"147.861 -12 OFFCURVE",
"289 -12 CURVE SMOOTH"
);
},
{
closed = 1;
nodes = (
"210 25 OFFCURVE",
"150 88.917 OFFCURVE",
"150 181 CURVE SMOOTH",
"150 244.438 OFFCURVE",
"185 295.792 OFFCURVE",
"249 326 CURVE",
"368 275.704 OFFCURVE",
"435 238.485 OFFCURVE",
"435 156 CURVE SMOOTH",
"435 80.042 OFFCURVE",
"378 25 OFFCURVE",
"297 25 CURVE SMOOTH"
);
},
{
closed = 1;
nodes = (
"259 432.849 OFFCURVE",
"167 457.835 OFFCURVE",
"167 548 CURVE SMOOTH",
"167 609.174 OFFCURVE",
"218 657 OFFCURVE",
"284 657 CURVE SMOOTH",
"361 657 OFFCURVE",
"417 601.363 OFFCURVE",
"417 525 CURVE SMOOTH",
"417 468.725 OFFCURVE",
"388 426.793 OFFCURVE",
"329 397 CURVE"
);
}
);
width = 570;
}
);
unicode = 0038;
userData = {
com.fontlab.hintData = {
hhints = (
{
position = -12;
width = 37;
},
{
position = 657;
width = 43;
}
);
vhints = (
{
position = 40;
width = 110;
},
{
position = 57;
width = 110;
},
{
position = 417;
width = 95;
},
{
position = 435;
width = 95;
}
);
};
};
},
{
color = 11;
glyphname = nine;
lastChange = "2018-07-07 03:14:17 +0000";
layers = (
{
layerId = "EE8FC948-6E49-42F4-ACA5-5A0A3F8AB331";
paths = (
{
closed = 1;
nodes = (
"365.8 -13.966 OFFCURVE",
"543 181.433 OFFCURVE",
"543 382 CURVE SMOOTH",
"543 601.986 OFFCURVE",
"395.069 700 OFFCURVE",
"279 700 CURVE SMOOTH",
"148.315 700 OFFCURVE",
"40 584.451 OFFCURVE",
"40 446 CURVE SMOOTH",
"40 316.857 OFFCURVE",
"130.169 220 OFFCURVE",
"254 220 CURVE SMOOTH",
"315.2 220 OFFCURVE",
"365.066 240 OFFCURVE",
"424 290 CURVE",
"426 288 LINE",
"394.607 116.529 OFFCURVE",
"273.866 33.393 OFFCURVE",
"100 23 CURVE",
"100 -15 LINE"
);
},
{
closed = 1;
nodes = (
"205.174 270 OFFCURVE",
"150 350.506 OFFCURVE",
"150 468 CURVE SMOOTH",
"150 590.48 OFFCURVE",
"204.214 657 OFFCURVE",
"282 657 CURVE SMOOTH",
"369.604 657 OFFCURVE",
"433 537.581 OFFCURVE",
"433 359 CURVE",
"391.375 299 OFFCURVE",
"341.656 270 OFFCURVE",
"285 270 CURVE SMOOTH"
);
}
);
width = 583;
}
);
unicode = 0039;
userData = {
com.fontlab.hintData = {
hhints = (
{
position = -15;
width = 38;
},
{
position = 220;
width = 50;
},
{
position = 657;
width = 43;
}
);
vhints = (
{
position = 40;
width = 110;
},
{
position = 433;
width = 110;
}
);
};
};
},
{
color = 11;
glyphname = colon;
lastChange = "2018-07-07 03:14:17 +0000";
layers = (
{
layerId = "EE8FC948-6E49-42F4-ACA5-5A0A3F8AB331";
paths = (
{
closed = 1;
nodes = (
"188 328 OFFCURVE",
"219 360 OFFCURVE",
"219 399 CURVE SMOOTH",
"219 437 OFFCURVE",
"188 467 OFFCURVE",
"149 467 CURVE SMOOTH",
"111 467 OFFCURVE",
"80 437 OFFCURVE",
"80 399 CURVE SMOOTH",
"80 360 OFFCURVE",
"111 328 OFFCURVE",
"149 328 CURVE SMOOTH"
);
},
{
closed = 1;
nodes = (
"188 -20 OFFCURVE",
"219 12 OFFCURVE",
"219 51 CURVE SMOOTH",
"219 89 OFFCURVE",
"188 119 OFFCURVE",
"149 119 CURVE SMOOTH",
"111 119 OFFCURVE",
"80 89 OFFCURVE",
"80 51 CURVE SMOOTH",
"80 12 OFFCURVE",
"111 -20 OFFCURVE",
"149 -20 CURVE SMOOTH"
);
}
);
width = 299;
}
);
unicode = 003A;
userData = {
com.fontlab.hintData = {
hhints = (
{
position = -20;
width = 139;
},
{
position = 328;
width = 139;
}
);
vhints = (
{
position = 80;
width = 139;
}
);
};
};
},
{
color = 11;
glyphname = semicolon;
lastChange = "2018-07-07 03:14:17 +0000";
layers = (
{
layerId = "EE8FC948-6E49-42F4-ACA5-5A0A3F8AB331";
paths = (
{
closed = 1;
nodes = (
"175 -158.117 OFFCURVE",
"248 -99.765 OFFCURVE",
"248 0 CURVE SMOOTH",
"248 74.728 OFFCURVE",
"215.455 131.659 OFFCURVE",
"151.285 132.977 CURVE SMOOTH",
"150.691 132.992 OFFCURVE",
"150.096 133 OFFCURVE",
"149.5 133 CURVE SMOOTH",
"149.421 133 OFFCURVE",
"149.342 133 OFFCURVE",
"149.264 133 CURVE SMOOTH",
"149.176 133 OFFCURVE",
"149.088 133 OFFCURVE",
"149 133 CURVE SMOOTH",
"130.067 133 OFFCURVE",
"114.195 128.134 OFFCURVE",
"102.465 119.224 CURVE SMOOTH",
"81.939 105.852 OFFCURVE",
"68 83.629 OFFCURVE",
"68 56.5 CURVE SMOOTH",
"68 11.5 OFFCURVE",
"106.353 -20 OFFCURVE",
"149.5 -20 CURVE SMOOTH",
"162.456 -20 OFFCURVE",
"174.92 -16.309 OFFCURVE",
"185.711 -9.65 CURVE",
"187.975 -16.25 OFFCURVE",
"189 -24.345 OFFCURVE",
"189 -34 CURVE SMOOTH",
"189 -89.843 OFFCURVE",
"136.373 -114.274 OFFCURVE",
"48 -123 CURVE",
"48 -160 LINE"
);
},
{
closed = 1;
nodes = (
"187.58 328 OFFCURVE",
"219 360.287 OFFCURVE",
"219 398.5 CURVE SMOOTH",
"219 436.737 OFFCURVE",
"187.58 467 OFFCURVE",
"149 467 CURVE SMOOTH",
"110.568 467 OFFCURVE",
"80 436.737 OFFCURVE",
"80 398.5 CURVE SMOOTH",
"80 360.287 OFFCURVE",
"110.568 328 OFFCURVE",
"149 328 CURVE SMOOTH"
);
}
);
width = 328;
}
);
unicode = 003B;
userData = {
com.fontlab.hintData = {
hhints = (
{
position = -160;
width = 37;
},
{
position = -20;
width = 153;
},
{
position = 13;
width = 120;
},
{
position = 328;
width = 139;
}
);
vhints = (
{
position = 80;
width = 141;
},
{
position = 189;
width = 59;
}
);
};
};
},
{
color = 11;
glyphname = less;
lastChange = "2018-07-07 03:14:17 +0000";
layers = (
{
layerId = "EE8FC948-6E49-42F4-ACA5-5A0A3F8AB331";
paths = (
{
closed = 1;
nodes = (
"554 120 LINE",
"184 296 LINE",
"554 472 LINE",
"554 555 LINE",
"80 331 LINE",
"80 261 LINE",
"554 37 LINE"
);
}
);
width = 594;
}
);
unicode = 003C;
},
{
color = 11;
glyphname = equal;
lastChange = "2018-07-07 03:14:17 +0000";
layers = (
{
layerId = "EE8FC948-6E49-42F4-ACA5-5A0A3F8AB331";
paths = (
{
closed = 1;
nodes = (
"601 408 LINE",
"601 480 LINE",
"66 480 LINE",
"66 408 LINE"
);
},
{
closed = 1;
nodes = (
"601 172 LINE",
"601 244 LINE",
"66 244 LINE",
"66 172 LINE"
);
}
);
width = 667;
}
);
unicode = 003D;
userData = {
com.fontlab.hintData = {
hhints = (
{
position = 172;
width = 72;
},
{
position = 408;
width = 72;
}
);
};
};
},
{
color = 11;
glyphname = greater;
lastChange = "2018-07-07 03:14:17 +0000";
layers = (
{
layerId = "EE8FC948-6E49-42F4-ACA5-5A0A3F8AB331";
paths = (
{
closed = 1;
nodes = (
"514 261 LINE",
"514 330 LINE",
"40 555 LINE",
"40 471 LINE",
"410 295 LINE",
"40 120 LINE",
"40 37 LINE"
);
}
);
width = 594;
}
);
unicode = 003E;
},
{
color = 11;
glyphname = question;
lastChange = "2018-07-07 03:14:17 +0000";
layers = (
{
layerId = "EE8FC948-6E49-42F4-ACA5-5A0A3F8AB331";
paths = (
{
closed = 1;
nodes = (
"148 220 LINE",
"149 252 OFFCURVE",
"153 278 OFFCURVE",
"167 292 CURVE SMOOTH",
"200.55 326 OFFCURVE",
"263.702 324 OFFCURVE",
"316 377 CURVE SMOOTH",
"343 404 OFFCURVE",
"354 437 OFFCURVE",
"354 474 CURVE SMOOTH",
"354 536.355 OFFCURVE",
"263 750 OFFCURVE",
"123 750 CURVE SMOOTH",
"70 750 OFFCURVE",
"35 726 OFFCURVE",
"35 689 CURVE SMOOTH",
"35 665 OFFCURVE",
"52 648 OFFCURVE",
"77 648 CURVE SMOOTH",
"107 648 OFFCURVE",
"122 670 OFFCURVE",
"158 670 CURVE SMOOTH",
"219 670 OFFCURVE",
"291 587.754 OFFCURVE",
"291 518 CURVE SMOOTH",
"291 495 OFFCURVE",
"279 471 OFFCURVE",
"261 453 CURVE SMOOTH",
"210.375 403 OFFCURVE",
"116.213 404 OFFCURVE",
"99 387 CURVE SMOOTH",
"94 382 OFFCURVE",
"93 377 OFFCURVE",
"93 369 CURVE SMOOTH",
"93 348 OFFCURVE",
"108 315 OFFCURVE",
"108 220 CURVE"
);
},
{
closed = 1;
nodes = (
"167.58 -20 OFFCURVE",
"199 12.287 OFFCURVE",
"199 50.5 CURVE SMOOTH",
"199 88.737 OFFCURVE",
"167.58 119 OFFCURVE",
"129 119 CURVE SMOOTH",
"90.568 119 OFFCURVE",
"60 88.737 OFFCURVE",
"60 50.5 CURVE SMOOTH",
"60 12.287 OFFCURVE",
"90.568 -20 OFFCURVE",
"129 -20 CURVE SMOOTH"
);
}
);
width = 385;
}
);
unicode = 003F;
userData = {
com.fontlab.hintData = {
hhints = (
{
position = -20;
width = 139;
},
{
position = 670;
width = 80;
}
);
vhints = (
{
position = 60;
width = 139;
},
{
position = 108;
width = 40;
},
{
position = 291;
width = 63;
}
);
};
};
},
{
color = 11;
glyphname = at;
lastChange = "2018-07-07 03:14:17 +0000";
layers = (
{
layerId = "EE8FC948-6E49-42F4-ACA5-5A0A3F8AB331";
paths = (
{
closed = 1;
nodes = (
"617 -170 OFFCURVE",
"777 -47 OFFCURVE",
"821 107 CURVE",
"823 113 LINE",
"825 118 LINE",
"819 118 LINE",
"785 118 LINE",
"782 118 LINE",
"780 116 LINE",
"779 113 LINE",
"714 -40 OFFCURVE",
"591 -124 OFFCURVE",
"434 -124 CURVE SMOOTH",
"237 -124 OFFCURVE",
"99 19 OFFCURVE",
"99 226 CURVE SMOOTH",
"99 420 OFFCURVE",
"239 618 OFFCURVE",
"467 618 CURVE SMOOTH",
"638 618 OFFCURVE",
"743 491 OFFCURVE",
"743 356 CURVE SMOOTH",
"743 195 OFFCURVE",
"636 88 OFFCURVE",
"568 88 CURVE SMOOTH",
"553 88 OFFCURVE",
"543 97 OFFCURVE",
"543 122 CURVE SMOOTH",
"543 132 OFFCURVE",
"545 144 OFFCURVE",
"549 158 CURVE SMOOTH",
"636 459 LINE",
"638 466 LINE",
"631 465 LINE",
"552 454 LINE",
"549 453 LINE",
"548 450 LINE",
"541 424 LINE",
"526 452 OFFCURVE",
"497 467 OFFCURVE",
"466 467 CURVE SMOOTH",
"360 467 OFFCURVE",
"215 294 OFFCURVE",
"215 151 CURVE SMOOTH",
"215 90 OFFCURVE",
"252 38 OFFCURVE",
"304 38 CURVE SMOOTH",
"362 38 OFFCURVE",
"417 88 OFFCURVE",
"462 143 CURVE",
"461 132 OFFCURVE",
"460 120 OFFCURVE",
"460 109 CURVE SMOOTH",
"460 63 OFFCURVE",
"488 38 OFFCURVE",
"537 38 CURVE SMOOTH",
"711 38 OFFCURVE",
"788 233 OFFCURVE",
"788 357 CURVE SMOOTH",
"788 541 OFFCURVE",
"656 668 OFFCURVE",
"464 668 CURVE SMOOTH",
"226 668 OFFCURVE",
"40 474 OFFCURVE",
"40 229 CURVE SMOOTH",
"40 -19 OFFCURVE",
"203 -170 OFFCURVE",
"423 -170 CURVE SMOOTH"
);
},
{
closed = 1;
nodes = (
"323 110 OFFCURVE",
"302 131 OFFCURVE",
"302 164 CURVE SMOOTH",
"302 232 OFFCURVE",
"394 428 OFFCURVE",
"472 428 CURVE SMOOTH",
"497 428 OFFCURVE",
"517 407 OFFCURVE",
"517 372 CURVE SMOOTH",
"517 243 OFFCURVE",
"409 110 OFFCURVE",
"345 110 CURVE SMOOTH"
);
}
);
width = 865;
}
);
unicode = 0040;
userData = {
com.fontlab.hintData = {
hhints = (
{
position = -170;
width = 46;
},
{
position = 38;
width = 50;
},
{
position = 38;
width = 72;
},
{
position = 428;
width = 39;
},
{
position = 618;
width = 50;
}
);
vhints = (
{
position = 40;
width = 59;
},
{
position = 215;
width = 87;
},
{
position = 460;
width = 83;
},
{
position = 743;
width = 45;
}
);
};
};
},
{
color = 11;
glyphname = A;
lastChange = "2018-07-07 03:14:17 +0000";
layers = (
{
anchors = (
{
name = "Anchor-1";
position = "{380, 810}";
},
{
name = Anchor1;
position = "{380, 810}";
}
);
layerId = "EE8FC948-6E49-42F4-ACA5-5A0A3F8AB331";
paths = (
{
closed = 1;
nodes = (
"260 0 LINE",
"260 30 LINE",
"195 50 LINE SMOOTH",
"175 56 OFFCURVE",
"160 80 OFFCURVE",
"167 100 CURVE SMOOTH",
"235 290 LINE",
"475 290 LINE",
"545 100 LINE SMOOTH",
"552 80 OFFCURVE",
"540 56 OFFCURVE",
"520 50 CURVE SMOOTH",
"455 30 LINE",
"455 0 LINE",
"780 0 LINE",
"780 30 LINE",
"710 50 LINE SMOOTH",
"690 56 OFFCURVE",
"686 70 OFFCURVE",
"678 90 CURVE SMOOTH",
"435 700 LINE",
"340 700 LINE",
"102 90 LINE SMOOTH",
"94 70 OFFCURVE",
"85 54 OFFCURVE",
"70 50 CURVE SMOOTH",
"0 30 LINE",
"0 0 LINE"
);
},
{
closed = 1;
nodes = (
"355 620 LINE",
"460 335 LINE",
"250 335 LINE"
);
}
);
width = 780;
}
);
unicode = 0041;
userData = {
com.fontlab.hintData = {
hhints = (
{
position = 0;
width = 30;
},
{
position = 290;
width = 45;
},
{
position = 680;
width = 20;
}
);
};
};
},
{
color = 11;
glyphname = B;
lastChange = "2018-07-07 03:14:17 +0000";
layers = (
{
layerId = "EE8FC948-6E49-42F4-ACA5-5A0A3F8AB331";
paths = (
{
closed = 1;
nodes = (
"410 0 LINE SMOOTH",
"600 0 OFFCURVE",
"660 67.059 OFFCURVE",
"660 190 CURVE SMOOTH",
"660 268.622 OFFCURVE",
"599 343.505 OFFCURVE",
"506 356 CURVE",
"506 359.276 LINE",
"594.745 379.728 OFFCURVE",
"630 438.66 OFFCURVE",
"630 520 CURVE SMOOTH",
"630 636.471 OFFCURVE",
"570 700 OFFCURVE",
"380 700 CURVE SMOOTH",
"40 700 LINE",
"40 670 LINE",
"120 650 LINE SMOOTH",
"140 645 OFFCURVE",
"150 630 OFFCURVE",
"150 610 CURVE SMOOTH",
"150 90 LINE SMOOTH",
"150 70 OFFCURVE",
"140 55 OFFCURVE",
"120 50 CURVE SMOOTH",
"40 30 LINE",
"40 0 LINE"
);
},
{
closed = 1;
nodes = (
"280 40 OFFCURVE",
"260 50 OFFCURVE",
"260 80 CURVE SMOOTH",
"260 344 LINE",
"370 344 LINE SMOOTH",
"483 344 OFFCURVE",
"540 270.721 OFFCURVE",
"540 190 CURVE SMOOTH",
"540 85 OFFCURVE",
"490 40 OFFCURVE",
"380 40 CURVE SMOOTH",
"300 40 LINE SMOOTH"
);
},
{
closed = 1;
nodes = (
"260 620 LINE SMOOTH",
"260 650 OFFCURVE",
"280 660 OFFCURVE",
"300 660 CURVE SMOOTH",
"350 660 LINE SMOOTH",
"460 660 OFFCURVE",
"510 618 OFFCURVE",
"510 520 CURVE SMOOTH",
"510 444.726 OFFCURVE",
"472 384 OFFCURVE",
"370 384 CURVE SMOOTH",
"260 384 LINE"
);
}
);
width = 700;
}
);
unicode = 0042;
userData = {
com.fontlab.hintData = {
hhints = (
{
position = 0;
width = 30;
},
{
position = 0;
width = 40;
},
{
position = 344;
width = 40;
},
{
position = 660;
width = 40;
},
{
position = 670;
width = 30;
}
);
vhints = (
{
position = 150;
width = 110;
},
{
position = 510;
width = 120;
},
{
position = 540;
width = 120;
}
);
};
};
},
{
color = 11;
glyphname = C;
lastChange = "2018-07-07 03:14:17 +0000";
layers = (
{
anchors = (
{
name = "Anchor-0";
position = "{330, 0}";
},
{
name = Anchor0;
position = "{330, 0}";
}
);
layerId = "EE8FC948-6E49-42F4-ACA5-5A0A3F8AB331";
paths = (
{
closed = 1;
nodes = (
"404 -15 LINE SMOOTH",
"490.464 -15 OFFCURVE",
"563.638 12.708 OFFCURVE",
"624 59 CURVE",
"624 206 LINE",
"580 206 LINE",
"554.559 79.038 OFFCURVE",
"480.287 25 OFFCURVE",
"407 25 CURVE SMOOTH",
"397 25 LINE SMOOTH",
"274.289 25 OFFCURVE",
"160 115.942 OFFCURVE",
"160 365 CURVE SMOOTH",
"160 493.562 OFFCURVE",
"204.79 675 OFFCURVE",
"390 675 CURVE SMOOTH",
"407 675 LINE SMOOTH",
"480.287 675 OFFCURVE",
"554.559 620.962 OFFCURVE",
"580 494 CURVE",
"624 494 LINE",
"624 641 LINE",
"563.638 687.292 OFFCURVE",
"490.464 715 OFFCURVE",
"404 715 CURVE SMOOTH",
"178.619 715 OFFCURVE",
"40 551.084 OFFCURVE",
"40 343 CURVE SMOOTH",
"40 99.756 OFFCURVE",
"215.488 -15 OFFCURVE",
"383 -15 CURVE SMOOTH"
);
}
);
width = 664;
}
);
unicode = 0043;
userData = {
com.fontlab.hintData = {
hhints = (
{
position = -15;
width = 40;
},
{
position = 494;
width = 21;
},
{
position = 675;
width = 40;
}
);
vhints = (
{
position = 40;
width = 120;
},
{
position = 580;
width = 44;
}
);
};
};
},
{
color = 11;
glyphname = D;
lastChange = "2018-07-07 03:14:17 +0000";
layers = (
{
layerId = "EE8FC948-6E49-42F4-ACA5-5A0A3F8AB331";
paths = (
{
closed = 1;
nodes = (
"410 0 LINE SMOOTH",
"572 0 OFFCURVE",
"710 123.671 OFFCURVE",
"710 350 CURVE SMOOTH",
"710 521.84 OFFCURVE",
"626.321 700 OFFCURVE",
"380 700 CURVE SMOOTH",
"40 700 LINE",
"40 670 LINE",
"120 650 LINE SMOOTH",
"140 645 OFFCURVE",
"150 630 OFFCURVE",
"150 610 CURVE SMOOTH",
"150 90 LINE SMOOTH",
"150 70 OFFCURVE",
"140 55 OFFCURVE",
"120 50 CURVE SMOOTH",
"40 30 LINE",
"40 0 LINE"
);
},
{
closed = 1;
nodes = (
"280 40 OFFCURVE",
"260 50 OFFCURVE",
"260 80 CURVE SMOOTH",
"260 620 LINE SMOOTH",
"260 650 OFFCURVE",
"280 660 OFFCURVE",
"300 660 CURVE SMOOTH",
"350 660 LINE SMOOTH",
"502.842 660 OFFCURVE",
"590 542.2 OFFCURVE",
"590 350 CURVE SMOOTH",
"590 214.375 OFFCURVE",
"530.938 40 OFFCURVE",
"380 40 CURVE SMOOTH",
"300 40 LINE SMOOTH"
);
}
);
width = 750;
}
);
unicode = 0044;
userData = {
com.fontlab.hintData = {
hhints = (
{
position = 0;
width = 30;
},
{
position = 0;
width = 40;
},
{
position = 660;
width = 40;
},
{
position = 670;
width = 30;
}
);
vhints = (
{
position = 150;
width = 110;
},
{
position = 590;
width = 120;
}
);
};
};
},
{
color = 11;
glyphname = E;
lastChange = "2018-07-07 03:24:30 +0000";
layers = (
{
anchors = (
{
name = "Anchor-1";
position = "{340, 810}";
},
{
name = Anchor1;
position = "{340, 810}";
}
);
layerId = "EE8FC948-6E49-42F4-ACA5-5A0A3F8AB331";
paths = (
{
closed = 1;
nodes = (
"620 0 LINE",
"650 210 LINE",
"610 210 LINE",
"570 130 LINE SMOOTH",
"540 70 OFFCURVE",
"510 50 OFFCURVE",
"450 50 CURVE SMOOTH",
"300 50 LINE SMOOTH",
"280 50 OFFCURVE",
"260 60 OFFCURVE",
"260 90 CURVE SMOOTH",
"260 340 LINE",
"340 340 LINE SMOOTH",
"390 340 OFFCURVE",
"427 330 OFFCURVE",
"440 290 CURVE SMOOTH",
"460 230 LINE",
"490 230 LINE",
"490 490 LINE",
"460 490 LINE",
"440 430 LINE SMOOTH",
"427 390 OFFCURVE",
"390 380 OFFCURVE",
"340 380 CURVE SMOOTH",
"260 380 LINE",
"260 610 LINE SMOOTH",
"260 640 OFFCURVE",
"280 650 OFFCURVE",
"300 650 CURVE SMOOTH",
"400 650 LINE SMOOTH",
"460 650 OFFCURVE",
"495 640 OFFCURVE",
"520 590 CURVE SMOOTH",
"560 510 LINE",
"600 510 LINE",
"600 700 LINE",
"40 700 LINE",
"40 670 LINE",
"120 650 LINE SMOOTH",
"140 645 OFFCURVE",
"150 630 OFFCURVE",
"150 610 CURVE SMOOTH",
"150 90 LINE SMOOTH",
"150 70 OFFCURVE",
"140 55 OFFCURVE",
"120 50 CURVE SMOOTH",
"40 30 LINE",
"40 0 LINE"
);
}
);
width = 690;
}
);
unicode = 0045;
userData = {
com.fontlab.hintData = {
hhints = (
{
position = 0;
width = 30;
},
{
position = 0;
width = 50;
},
{
position = 340;
width = 40;
},
{
position = 470;
width = 20;
},
{
position = 650;
width = 50;
},
{
position = 670;
width = 30;
}
);
vhints = (
{
position = 150;
width = 110;
},
{
position = 240;
width = 20;
},
{
position = 440;
width = 50;
}
);
};
};
},
{
color = 11;
glyphname = F;
lastChange = "2018-07-07 23:10:14 +0000";
layers = (
{
layerId = "EE8FC948-6E49-42F4-ACA5-5A0A3F8AB331";
paths = (
{
closed = 1;
nodes = (
"370 0 LINE",
"370 30 LINE",
"290 50 LINE SMOOTH",
"270 55 OFFCURVE",
"260 70 OFFCURVE",
"260 90 CURVE SMOOTH",
"260 340 LINE",
"340 340 LINE SMOOTH",
"390 340 OFFCURVE",
"427 330 OFFCURVE",
"440 290 CURVE SMOOTH",
"460 230 LINE",
"490 230 LINE",
"490 490 LINE",
"460 490 LINE",
"440 430 LINE SMOOTH",
"427 390 OFFCURVE",
"390 380 OFFCURVE",
"340 380 CURVE SMOOTH",
"260 380 LINE",
"260 610 LINE SMOOTH",
"260 640 OFFCURVE",
"280 650 OFFCURVE",
"300 650 CURVE SMOOTH",
"400 650 LINE SMOOTH",
"460 650 OFFCURVE",
"495 640 OFFCURVE",
"520 590 CURVE SMOOTH",
"560 510 LINE",
"600 510 LINE",
"600 700 LINE",
"40 700 LINE",
"40 670 LINE",
"120 650 LINE SMOOTH",
"140 645 OFFCURVE",
"150 630 OFFCURVE",
"150 610 CURVE SMOOTH",
"150 90 LINE SMOOTH",
"150 70 OFFCURVE",
"140 55 OFFCURVE",
"120 50 CURVE SMOOTH",
"40 30 LINE",
"40 0 LINE"
);
}
);
width = 630;
}
);
unicode = 0046;
userData = {
com.fontlab.hintData = {
hhints = (
{
position = 0;
width = 30;
},
{
position = 340;
width = 40;
},
{
position = 470;
width = 20;
},
{
position = 650;
width = 50;
},
{
position = 670;
width = 30;
}
);
vhints = (
{
position = 150;
width = 110;
},
{
position = 240;
width = 20;
},
{
position = 440;
width = 50;
}
);
};
};
},
{
color = 11;
glyphname = G;
lastChange = "2018-07-07 03:14:17 +0000";
layers = (
{
layerId = "EE8FC948-6E49-42F4-ACA5-5A0A3F8AB331";
paths = (
{
closed = 1;
nodes = (
"404 -15 LINE SMOOTH",
"490.464 -15 OFFCURVE",
"563.638 12.708 OFFCURVE",
"624 59 CURVE",
"624 82 LINE",
"624 206 LINE",
"624 230 LINE SMOOTH",
"624 250 OFFCURVE",
"630.667 265 OFFCURVE",
"644 270 CURVE SMOOTH",
"694 290 LINE",
"694 320 LINE",
"434 320 LINE",
"434 290 LINE",
"494 270 LINE SMOOTH",
"507.333 265 OFFCURVE",
"514 250 OFFCURVE",
"514 230 CURVE SMOOTH",
"514 82 LINE",
"524.766 82 LINE",
"491.469 42.809 OFFCURVE",
"449.072 25 OFFCURVE",
"407 25 CURVE SMOOTH",
"397 25 LINE SMOOTH",
"274.289 25 OFFCURVE",
"160 115.942 OFFCURVE",
"160 365 CURVE SMOOTH",
"160 493.562 OFFCURVE",
"204.79 675 OFFCURVE",
"390 675 CURVE SMOOTH",
"407 675 LINE SMOOTH",
"480.287 675 OFFCURVE",
"554.559 620.962 OFFCURVE",
"580 494 CURVE",
"624 494 LINE",
"624 641 LINE",
"563.638 687.292 OFFCURVE",
"490.464 715 OFFCURVE",
"404 715 CURVE SMOOTH",
"178.619 715 OFFCURVE",
"40 551.084 OFFCURVE",
"40 343 CURVE SMOOTH",
"40 99.756 OFFCURVE",
"215.488 -15 OFFCURVE",
"383 -15 CURVE SMOOTH"
);
}
);
width = 664;
}
);
unicode = 0047;
userData = {
com.fontlab.hintData = {
hhints = (
{
position = -15;
width = 40;
},
{
position = 494;
width = 21;
},
{
position = 675;
width = 40;
}
);
vhints = (
{
position = 40;
width = 120;
},
{
position = 514;
width = 110;
},
{
position = 580;
width = 44;
}
);
};
};
},
{
color = 11;
glyphname = H;
lastChange = "2018-07-07 03:14:17 +0000";
layers = (
{
layerId = "EE8FC948-6E49-42F4-ACA5-5A0A3F8AB331";
paths = (
{
closed = 1;
nodes = (
"370 0 LINE",
"370 30 LINE",
"290 50 LINE SMOOTH",
"270 55 OFFCURVE",
"260 70 OFFCURVE",
"260 90 CURVE SMOOTH",
"260 335 LINE",
"620 335 LINE",
"620 90 LINE SMOOTH",
"620 70 OFFCURVE",
"610 55 OFFCURVE",
"590 50 CURVE SMOOTH",
"510 30 LINE",
"510 0 LINE",
"840 0 LINE",
"840 30 LINE",
"760 50 LINE SMOOTH",
"740 55 OFFCURVE",
"730 70 OFFCURVE",
"730 90 CURVE SMOOTH",
"730 610 LINE SMOOTH",
"730 630 OFFCURVE",
"740 645 OFFCURVE",
"760 650 CURVE SMOOTH",
"840 670 LINE",
"840 700 LINE",
"510 700 LINE",
"510 670 LINE",
"590 650 LINE SMOOTH",
"610 645 OFFCURVE",
"620 630 OFFCURVE",
"620 610 CURVE SMOOTH",
"620 380 LINE",
"260 380 LINE",
"260 610 LINE SMOOTH",
"260 630 OFFCURVE",
"270 645 OFFCURVE",
"290 650 CURVE SMOOTH",
"370 670 LINE",
"370 700 LINE",
"40 700 LINE",
"40 670 LINE",
"120 650 LINE SMOOTH",
"140 645 OFFCURVE",
"150 630 OFFCURVE",
"150 610 CURVE SMOOTH",
"150 90 LINE SMOOTH",
"150 70 OFFCURVE",
"140 55 OFFCURVE",
"120 50 CURVE SMOOTH",
"40 30 LINE",
"40 0 LINE"
);
}
);
width = 880;
}
);
unicode = 0048;
userData = {
com.fontlab.hintData = {
hhints = (
{
position = 0;
width = 30;
},
{
position = 335;
width = 45;
},
{
position = 670;
width = 30;
}
);
vhints = (
{
position = 150;
width = 110;
},
{
position = 240;
width = 20;
},
{
position = 620;
width = 20;
},
{
position = 620;
width = 110;
}
);
};
};
},
{
color = 11;
glyphname = I;
lastChange = "2018-07-07 03:14:17 +0000";
layers = (
{
anchors = (
{
name = "Anchor-1";
position = "{205, 810}";
},
{
name = Anchor1;
position = "{205, 810}";
}
);
layerId = "EE8FC948-6E49-42F4-ACA5-5A0A3F8AB331";
paths = (
{
closed = 1;
nodes = (
"370 0 LINE",
"370 30 LINE",
"290 50 LINE SMOOTH",
"270 55 OFFCURVE",
"260 70 OFFCURVE",
"260 90 CURVE SMOOTH",
"260 610 LINE SMOOTH",
"260 630 OFFCURVE",
"270 645 OFFCURVE",
"290 650 CURVE SMOOTH",
"370 670 LINE",
"370 700 LINE",
"40 700 LINE",
"40 670 LINE",
"120 650 LINE SMOOTH",
"140 645 OFFCURVE",
"150 630 OFFCURVE",
"150 610 CURVE SMOOTH",
"150 90 LINE SMOOTH",
"150 70 OFFCURVE",
"140 55 OFFCURVE",
"120 50 CURVE SMOOTH",
"40 30 LINE",
"40 0 LINE"
);
}
);
width = 410;
}
);
unicode = 0049;
userData = {
com.fontlab.hintData = {
hhints = (
{
position = 0;
width = 30;
},
{
position = 670;
width = 30;
}
);
vhints = (
{
position = 150;
width = 110;
}
);
};
};
},
{
color = 11;
glyphname = J;
lastChange = "2018-07-07 03:14:17 +0000";
layers = (
{
layerId = "EE8FC948-6E49-42F4-ACA5-5A0A3F8AB331";
paths = (
{
closed = 1;
nodes = (
"216.345 -162.889 OFFCURVE",
"260 -96.163 OFFCURVE",
"260 27.463 CURVE SMOOTH",
"260 610 LINE SMOOTH",
"260 630 OFFCURVE",
"270.597 645.149 OFFCURVE",
"290 650 CURVE SMOOTH",
"370 670 LINE",
"370 700 LINE",
"40 700 LINE",
"40 670 LINE",
"120 650 LINE SMOOTH",
"139.894 645.026 OFFCURVE",
"150 630 OFFCURVE",
"150 610 CURVE SMOOTH",
"150 -70.449 LINE SMOOTH",
"150 -101.282 OFFCURVE",
"124.516 -116.876 OFFCURVE",
"103.623 -116.876 CURVE SMOOTH",
"81 -116.876 OFFCURVE",
"56.596 -76.101 OFFCURVE",
"56.596 -76.101 CURVE",
"43.046 -58.535 OFFCURVE",
"32.036 -45.683 OFFCURVE",
"14 -45.683 CURVE SMOOTH",
"-7.061 -45.683 OFFCURVE",
"-25.946 -59.945 OFFCURVE",
"-25.946 -91 CURVE SMOOTH",
"-25.946 -134.864 OFFCURVE",
"38.458 -162.889 OFFCURVE",
"99 -162.889 CURVE SMOOTH"
);
}
);
width = 410;
}
);
unicode = 004A;
userData = {
com.fontlab.hintData = {
hhints = (
{
position = -163;
width = 46;
},
{
position = 670;
width = 30;
}
);
vhints = (
{
position = 150;
width = 110;
}
);
};
};
},
{
color = 11;
glyphname = K;
lastChange = "2018-07-07 03:14:17 +0000";
layers = (
{
layerId = "EE8FC948-6E49-42F4-ACA5-5A0A3F8AB331";
paths = (
{
closed = 1;
nodes = (
"370 0 LINE",
"370 30 LINE",
"290 50 LINE SMOOTH",
"270.597 54.851 OFFCURVE",
"260 73.248 OFFCURVE",
"260 93.248 CURVE SMOOTH",
"260 346.831 LINE",
"509.869 57.309 LINE SMOOTH",
"536.601 28.69 OFFCURVE",
"566.028 0 OFFCURVE",
"579.436 0 CURVE SMOOTH",
"771 0 LINE",
"771 30 LINE",
"726.809 30 OFFCURVE",
"690.651 55.618 OFFCURVE",
"646 88 CURVE",
"364 405 LINE",
"578 616 LINE SMOOTH",
"610 649 OFFCURVE",
"658 670 OFFCURVE",
"703 670 CURVE",
"703 700 LINE",
"460 700 LINE",
"460 670 LINE",
"498 650 LINE SMOOTH",
"505.668 645.965 OFFCURVE",
"510.051 642 OFFCURVE",
"510.051 632 CURVE SMOOTH",
"510.051 622 OFFCURVE",
"503.471 614.236 OFFCURVE",
"491 603 CURVE SMOOTH",
"260 372.737 LINE",
"260 610 LINE SMOOTH",
"260 630 OFFCURVE",
"270.597 645.149 OFFCURVE",
"290 650 CURVE SMOOTH",
"370 670 LINE",
"370 700 LINE",
"40 700 LINE",
"40 670 LINE",
"120 650 LINE SMOOTH",
"140 645 OFFCURVE",
"150 630 OFFCURVE",
"150 610 CURVE SMOOTH",
"150 88.392 LINE SMOOTH",
"150 68.392 OFFCURVE",
"140.353 55.088 OFFCURVE",
"120 50 CURVE SMOOTH",
"40 30 LINE",
"40 0 LINE"
);
}
);
width = 811;
}
);
unicode = 004B;
userData = {
com.fontlab.hintData = {
hhints = (
{
position = 0;
width = 30;
},
{
position = 670;
width = 30;
}
);
vhints = (
{
position = 150;
width = 110;
}
);
};
};
},
{
color = 11;
glyphname = L;
lastChange = "2018-07-07 03:14:17 +0000";
layers = (
{
layerId = "EE8FC948-6E49-42F4-ACA5-5A0A3F8AB331";
paths = (
{
closed = 1;
nodes = (
"620 0 LINE",
"650 210 LINE",
"610 210 LINE",
"570 130 LINE SMOOTH",
"540 70 OFFCURVE",
"510 50 OFFCURVE",
"450 50 CURVE SMOOTH",
"300 50 LINE SMOOTH",
"280 50 OFFCURVE",
"260 60 OFFCURVE",
"260 90 CURVE SMOOTH",
"260 610 LINE SMOOTH",
"260 630 OFFCURVE",
"270 645 OFFCURVE",
"290 650 CURVE SMOOTH",
"370 670 LINE",
"370 700 LINE",
"40 700 LINE",
"40 670 LINE",
"120 650 LINE SMOOTH",
"140 645 OFFCURVE",
"150 630 OFFCURVE",
"150 610 CURVE SMOOTH",
"150 90 LINE SMOOTH",
"150 70 OFFCURVE",
"140 55 OFFCURVE",
"120 50 CURVE SMOOTH",
"40 30 LINE",
"40 0 LINE"
);
}
);
width = 670;
}
);
unicode = 004C;
userData = {
com.fontlab.hintData = {
hhints = (
{
position = 0;
width = 30;
},
{
position = 0;
width = 50;
},
{
position = 670;
width = 30;
}
);
vhints = (
{
position = 150;
width = 110;
}
);
};
};
},
{
color = 11;
glyphname = M;
lastChange = "2018-07-07 03:14:17 +0000";
layers = (
{
layerId = "EE8FC948-6E49-42F4-ACA5-5A0A3F8AB331";
paths = (
{
closed = 1;
nodes = (
"278 0 LINE",
"278 30 LINE",
"236 50 LINE SMOOTH",
"217.587 60.253 OFFCURVE",
"200.75 72.083 OFFCURVE",
"200 100 CURVE SMOOTH",
"250 540 LINE",
"440 0 LINE",
"490 0 LINE",
"696.813 540 LINE",
"750 90 LINE",
"728 60 LINE",
"648 30 LINE",
"648 0 LINE",
"955 0 LINE",
"955 30 LINE",
"873 50 LINE",
"854 100 LINE",
"788 610 LINE",
"804 640 LINE",
"864 670 LINE",
"864 700 LINE",
"669 700 LINE",
"669 625 LINE",
"497 180 LINE",
"320 700 LINE",
"128 700 LINE",
"128 670 LINE",
"180 650 LINE",
"220 618 LINE",
"147 116 LINE",
"137.671 84.663 OFFCURVE",
"119.139 62.528 OFFCURVE",
"91 50 CURVE SMOOTH",
"40 30 LINE",
"40 0 LINE"
);
}
);
width = 1000;
}
);
unicode = 004D;
userData = {
com.fontlab.hintData = {
hhints = (
{
position = 0;
width = 30;
},
{
position = 680;
width = 20;
}
);
};
};
},
{
color = 11;
glyphname = N;
lastChange = "2018-07-07 03:14:17 +0000";
layers = (
{
layerId = "EE8FC948-6E49-42F4-ACA5-5A0A3F8AB331";
paths = (
{
closed = 1;
nodes = (
"310 0 LINE",
"310 30 LINE",
"230 50 LINE SMOOTH",
"210 55 OFFCURVE",
"200 70 OFFCURVE",
"200 90 CURVE SMOOTH",
"200 527.234 LINE",
"620 0 LINE",
"680 0 LINE",
"673 30 OFFCURVE",
"670 66 OFFCURVE",
"670 110 CURVE SMOOTH",
"670 610 LINE SMOOTH",
"670 630 OFFCURVE",
"680 645 OFFCURVE",
"700 650 CURVE SMOOTH",
"780 670 LINE",
"780 700 LINE",
"510 700 LINE",
"510 670 LINE",
"590 650 LINE SMOOTH",
"610 645 OFFCURVE",
"620 630 OFFCURVE",
"620 610 CURVE SMOOTH",
"620 172.766 LINE",
"200 700 LINE",
"40 700 LINE",
"40 670 LINE",
"120 628 LINE SMOOTH",
"137.252 618.942 OFFCURVE",
"150 608 OFFCURVE",
"150 588 CURVE SMOOTH",
"150 90 LINE SMOOTH",
"150 70 OFFCURVE",
"140 55 OFFCURVE",
"120 50 CURVE SMOOTH",
"40 30 LINE",
"40 0 LINE"
);
}
);
width = 820;
}
);
unicode = 004E;
userData = {
com.fontlab.hintData = {
hhints = (
{
position = 0;
width = 30;
},
{
position = 670;
width = 30;
}
);
vhints = (
{
position = 150;
width = 50;
},
{
position = 620;
width = 50;
}
);
};
};
},
{
color = 11;
glyphname = O;
lastChange = "2018-07-07 03:14:17 +0000";
layers = (
{
anchors = (
{
name = "Anchor-1";
position = "{390, 810}";
},
{
name = Anchor1;
position = "{390, 810}";
}
);
layerId = "EE8FC948-6E49-42F4-ACA5-5A0A3F8AB331";
paths = (
{
closed = 1;
nodes = (
"601.4 -15 OFFCURVE",
"747 127.322 OFFCURVE",
"747 357 CURVE SMOOTH",
"747 600.244 OFFCURVE",
"578.491 715 OFFCURVE",
"404 715 CURVE SMOOTH",
"178.619 715 OFFCURVE",
"40 551.084 OFFCURVE",
"40 343 CURVE SMOOTH",
"40 99.756 OFFCURVE",
"215.488 -15 OFFCURVE",
"383 -15 CURVE SMOOTH"
);
},
{
closed = 1;
nodes = (
"274.289 25 OFFCURVE",
"160 115.942 OFFCURVE",
"160 365 CURVE SMOOTH",
"160 493.562 OFFCURVE",
"204.79 675 OFFCURVE",
"390 675 CURVE SMOOTH",
"512.711 675 OFFCURVE",
"627 576.824 OFFCURVE",
"627 335 CURVE SMOOTH",
"627 199.18 OFFCURVE",
"591.895 25 OFFCURVE",
"397 25 CURVE SMOOTH"
);
}
);
width = 787;
}
);
unicode = 004F;
userData = {
com.fontlab.hintData = {
hhints = (
{
position = -15;
width = 40;
},
{
position = 675;
width = 40;
}
);
vhints = (
{
position = 40;
width = 120;
},
{
position = 627;
width = 120;
}
);
};
};
},
{
color = 11;
glyphname = P;
lastChange = "2018-07-07 03:14:17 +0000";
layers = (
{
layerId = "EE8FC948-6E49-42F4-ACA5-5A0A3F8AB331";
paths = (
{
closed = 1;
nodes = (
"370 0 LINE",
"370 30 LINE",
"290 50 LINE SMOOTH",
"270 55 OFFCURVE",
"260 70 OFFCURVE",
"260 90 CURVE SMOOTH",
"260 620 LINE SMOOTH",
"260 650 OFFCURVE",
"280 660 OFFCURVE",
"300 660 CURVE SMOOTH",
"350 660 LINE SMOOTH",
"460 660 OFFCURVE",
"510 601 OFFCURVE",
"510 510 CURVE SMOOTH",
"510 411 OFFCURVE",
"460 320 OFFCURVE",
"320 340 CURVE",
"320 300 LINE",
"335 295 OFFCURVE",
"360 290 OFFCURVE",
"380 290 CURVE SMOOTH",
"530 290 OFFCURVE",
"630 380 OFFCURVE",
"630 510 CURVE SMOOTH",
"630 620 OFFCURVE",
"570 700 OFFCURVE",
"380 700 CURVE SMOOTH",
"40 700 LINE",
"40 670 LINE",
"120 650 LINE SMOOTH",
"140 645 OFFCURVE",
"150 630 OFFCURVE",
"150 610 CURVE SMOOTH",
"150 90 LINE SMOOTH",
"150 70 OFFCURVE",
"140 55 OFFCURVE",
"120 50 CURVE SMOOTH",
"40 30 LINE",
"40 0 LINE"
);
}
);
width = 660;
}
);
unicode = 0050;
userData = {
com.fontlab.hintData = {
hhints = (
{
position = 0;
width = 30;
},
{
position = 300;
width = 40;
},
{
position = 660;
width = 40;
},
{
position = 670;
width = 30;
}
);
vhints = (
{
position = 150;
width = 110;
},
{
position = 510;
width = 120;
}
);
};
};
},
{
color = 11;
glyphname = Q;
lastChange = "2018-07-07 03:14:17 +0000";
layers = (
{
layerId = "EE8FC948-6E49-42F4-ACA5-5A0A3F8AB331";
paths = (
{
closed = 1;
nodes = (
"600 -15 OFFCURVE",
"747 127 OFFCURVE",
"747 357 CURVE SMOOTH",
"747 600 OFFCURVE",
"578 715 OFFCURVE",
"404 715 CURVE SMOOTH",
"179 715 OFFCURVE",
"40 551 OFFCURVE",
"40 343 CURVE SMOOTH",
"40 100 OFFCURVE",
"215 -15 OFFCURVE",
"383 -15 CURVE SMOOTH"
);
},
{
closed = 1;
nodes = (
"930 -255 OFFCURVE",
"990 -210 OFFCURVE",
"1020 -170 CURVE",
"1000 -145 LINE",
"965 -165 OFFCURVE",
"930 -165 OFFCURVE",
"900 -165 CURVE SMOOTH",
"760 -165 OFFCURVE",
"550 0 OFFCURVE",
"480 0 CURVE",
"383 -15 LINE",
"521 -15 OFFCURVE",
"630 -255 OFFCURVE",
"860 -255 CURVE SMOOTH"
);
},
{
closed = 1;
nodes = (
"274 25 OFFCURVE",
"160 116 OFFCURVE",
"160 365 CURVE SMOOTH",
"160 494 OFFCURVE",
"205 675 OFFCURVE",
"390 675 CURVE SMOOTH",
"513 675 OFFCURVE",
"627 577 OFFCURVE",
"627 335 CURVE SMOOTH",
"627 199 OFFCURVE",
"592 25 OFFCURVE",
"397 25 CURVE SMOOTH"
);
}
);
width = 785;
}
);
unicode = 0051;
userData = {
com.fontlab.hintData = {
hhints = (
{
position = -195;
width = 55;
},
{
position = 0;
width = 25;
},
{
position = 675;
width = 40;
}
);
vhints = (
{
position = 40;
width = 123;
},
{
position = 622;
width = 123;
}
);
};
};
},
{
color = 11;
glyphname = R;
lastChange = "2018-07-07 03:14:17 +0000";
layers = (
{
layerId = "EE8FC948-6E49-42F4-ACA5-5A0A3F8AB331";
paths = (
{
closed = 1;
nodes = (
"370 0 LINE",
"370 30 LINE",
"290 50 LINE SMOOTH",
"270 55 OFFCURVE",
"260 70 OFFCURVE",
"260 90 CURVE SMOOTH",
"260 290 LINE",
"324 290 LINE",
"530 57 LINE SMOOTH",
"556 28 OFFCURVE",
"586 0 OFFCURVE",
"599 0 CURVE SMOOTH",
"771 0 LINE",
"771 30 LINE",
"726.809 30 OFFCURVE",
"690.651 55.618 OFFCURVE",
"646 88 CURVE",
"458.263 299.037 LINE",
"563.772 324.901 OFFCURVE",
"630 404.205 OFFCURVE",
"630 510 CURVE SMOOTH",
"630 620 OFFCURVE",
"570 700 OFFCURVE",
"380 700 CURVE SMOOTH",
"40 700 LINE",
"40 670 LINE",
"120 650 LINE SMOOTH",
"140 645 OFFCURVE",
"150 630 OFFCURVE",
"150 610 CURVE SMOOTH",
"150 90 LINE SMOOTH",
"150 70 OFFCURVE",
"140 55 OFFCURVE",
"120 50 CURVE SMOOTH",
"40 30 LINE",
"40 0 LINE"
);
},
{
closed = 1;
nodes = (
"260 620 LINE SMOOTH",
"260 650 OFFCURVE",
"280 660 OFFCURVE",
"300 660 CURVE SMOOTH",
"350 660 LINE SMOOTH",
"460 660 OFFCURVE",
"510 601 OFFCURVE",
"510 510 CURVE SMOOTH",
"510 420.271 OFFCURVE",
"469 337 OFFCURVE",
"357 337 CURVE SMOOTH",
"320 337 LINE",
"260 337 LINE"
);
}
);
width = 811;
}
);
unicode = 0052;
userData = {
com.fontlab.hintData = {
hhints = (
{
position = 0;
width = 30;
},
{
position = 290;
width = 47;
},
{
position = 300;
width = 37;
},
{
position = 660;
width = 40;
},
{
position = 670;
width = 30;
}
);
vhints = (
{
position = 150;
width = 110;
},
{
position = 510;
width = 120;
}
);
};
};
},
{
color = 11;
glyphname = S;
lastChange = "2018-07-07 03:14:17 +0000";
layers = (
{
layerId = "EE8FC948-6E49-42F4-ACA5-5A0A3F8AB331";
paths = (
{
closed = 1;
nodes = (
"458.141 -15 OFFCURVE",
"554 68.22 OFFCURVE",
"554 200 CURVE SMOOTH",
"554 326.781 OFFCURVE",
"446.659 373.728 OFFCURVE",
"340 408 CURVE SMOOTH",
"243.261 439.085 OFFCURVE",
"154 487.087 OFFCURVE",
"154 556 CURVE SMOOTH",
"154 623.8 OFFCURVE",
"203.802 660 OFFCURVE",
"288 660 CURVE SMOOTH",
"381.287 660 OFFCURVE",
"435.559 610.44 OFFCURVE",
"461 494 CURVE",
"505 494 LINE",
"505 641 LINE",
"444.638 687.292 OFFCURVE",
"371.464 715 OFFCURVE",
"285 715 CURVE SMOOTH",
"145.995 715 OFFCURVE",
"50 640.262 OFFCURVE",
"50 525 CURVE SMOOTH",
"50 389.378 OFFCURVE",
"200.771 325.056 OFFCURVE",
"294 296 CURVE SMOOTH",
"384.68 267.738 OFFCURVE",
"454 231.382 OFFCURVE",
"454 163 CURVE SMOOTH",
"454 96.51 OFFCURVE",
"388.591 40 OFFCURVE",
"297 40 CURVE SMOOTH",
"195.974 40 OFFCURVE",
"133.838 113.143 OFFCURVE",
"117 230 CURVE",
"70 230 LINE",
"70 40 LINE",
"131.372 7.284 OFFCURVE",
"176.246 -15 OFFCURVE",
"307 -15 CURVE SMOOTH"
);
}
);
width = 606;
}
);
unicode = 0053;
userData = {
com.fontlab.hintData = {
hhints = (
{
position = -15;
width = 55;
},
{
position = 494;
width = 21;
},
{
position = 660;
width = 55;
}
);
vhints = (
{
position = 50;
width = 104;
},
{
position = 70;
width = 47;
},
{
position = 454;
width = 100;
},
{
position = 461;
width = 44;
}
);
};
};
},
{
color = 11;
glyphname = T;
lastChange = "2018-07-08 00:21:07 +0000";
layers = (
{
layerId = "EE8FC948-6E49-42F4-ACA5-5A0A3F8AB331";
paths = (
{
closed = 1;
nodes = (
"510 0 LINE",
"510 30 LINE",
"430 50 LINE SMOOTH",
"410 55 OFFCURVE",
"400 70 OFFCURVE",
"400 90 CURVE SMOOTH",
"400 610 LINE SMOOTH",
"400 640 OFFCURVE",
"420 650 OFFCURVE",
"440 650 CURVE SMOOTH",
"450 650 LINE SMOOTH",
"510 650 OFFCURVE",
"545 640 OFFCURVE",
"570 590 CURVE SMOOTH",
"610 510 LINE",
"650 510 LINE",
"620 700 LINE",
"70 700 LINE",
"40 510 LINE",
"80 510 LINE",
"120 590 LINE SMOOTH",
"145 640 OFFCURVE",
"180 650 OFFCURVE",
"240 650 CURVE SMOOTH",
"250 650 LINE SMOOTH",
"274.77 650 OFFCURVE",
"290 634.026 OFFCURVE",
"290 610 CURVE SMOOTH",
"290 90 LINE SMOOTH",
"290 70 OFFCURVE",
"280 55 OFFCURVE",
"260 50 CURVE SMOOTH",
"180 30 LINE",
"180 0 LINE"
);
}
);
width = 690;
}
);
unicode = 0054;
userData = {
com.fontlab.hintData = {
hhints = (
{
position = 0;
width = 30;
},
{
position = 650;
width = 50;
}
);
vhints = (
{
position = 290;
width = 110;
}
);
};
};
},
{
color = 11;
glyphname = U;
lastChange = "2018-07-07 03:14:17 +0000";
layers = (
{
anchors = (
{
name = "Anchor-1";
position = "{440, 810}";
},
{
name = Anchor1;
position = "{440, 810}";
}
);
layerId = "EE8FC948-6E49-42F4-ACA5-5A0A3F8AB331";
paths = (
{
closed = 1;
nodes = (
"570 -15 OFFCURVE",
"692 59.753 OFFCURVE",
"692 257 CURVE SMOOTH",
"692 610 LINE SMOOTH",
"692 630 OFFCURVE",
"710.812 644.356 OFFCURVE",
"730 650 CURVE SMOOTH",
"798 670 LINE",
"798 700 LINE",
"519 700 LINE",
"519 670 LINE",
"590 650 LINE SMOOTH",
"609.251 644.577 OFFCURVE",
"635 630 OFFCURVE",
"635 610 CURVE SMOOTH",
"635 267 LINE SMOOTH",
"631.506 77.139 OFFCURVE",
"532 40 OFFCURVE",
"448 40 CURVE SMOOTH",
"311 40 OFFCURVE",
"260 113.334 OFFCURVE",
"260 234 CURVE SMOOTH",
"260 610 LINE SMOOTH",
"260 630 OFFCURVE",
"270.597 645.149 OFFCURVE",
"290 650 CURVE SMOOTH",
"370 670 LINE",
"370 700 LINE",
"40 700 LINE",
"40 670 LINE",
"120 650 LINE SMOOTH",
"139.403 645.149 OFFCURVE",
"150 630 OFFCURVE",
"150 610 CURVE SMOOTH",
"150 237.404 LINE SMOOTH",
"150 72.177 OFFCURVE",
"256 -15 OFFCURVE",
"412 -15 CURVE SMOOTH"
);
}
);
width = 838;
}
);
unicode = 0055;
userData = {
com.fontlab.hintData = {
hhints = (
{
position = -15;
width = 55;
},
{
position = 670;
width = 30;
}
);
vhints = (
{
position = 150;
width = 110;
},
{
position = 635;
width = 57;
}
);
};
};
},
{
color = 11;
glyphname = V;
lastChange = "2018-07-07 03:14:17 +0000";
layers = (
{
layerId = "EE8FC948-6E49-42F4-ACA5-5A0A3F8AB331";
paths = (
{
closed = 1;
nodes = (
"416 -15 LINE",
"661 593 LINE SMOOTH",
"670 615 OFFCURVE",
"679 641 OFFCURVE",
"700 650 CURVE SMOOTH",
"745 670 LINE",
"745 700 LINE",
"510 700 LINE",
"510 670 LINE",
"580 650 LINE SMOOTH",
"598 644 OFFCURVE",
"607 627 OFFCURVE",
"608 610 CURVE",
"430 154 LINE",
"242 610 LINE SMOOTH",
"242 620 OFFCURVE",
"257.507 638.754 OFFCURVE",
"280 650 CURVE SMOOTH",
"320 670 LINE",
"320 700 LINE",
"40 700 LINE",
"40 670 LINE",
"80 650 LINE SMOOTH",
"97 640 OFFCURVE",
"106 628 OFFCURVE",
"115 610 CURVE SMOOTH",
"373 -15 LINE"
);
}
);
width = 785;
}
);
unicode = 0056;
userData = {
com.fontlab.hintData = {
hhints = (
{
position = -15;
width = 21;
},
{
position = 670;
width = 30;
}
);
};
};
},
{
color = 11;
glyphname = W;
lastChange = "2018-07-07 03:14:17 +0000";
layers = (
{
layerId = "EE8FC948-6E49-42F4-ACA5-5A0A3F8AB331";
paths = (
{
closed = 1;
nodes = (
"739 -14.999 LINE",
"984 593 LINE SMOOTH",
"993.714 616.096 OFFCURVE",
"1004.03 639.439 OFFCURVE",
"1018 653.002 CURVE",
"1045 670.002 LINE",
"1045 700.002 LINE",
"845 700.002 LINE",
"845 670.002 LINE",
"896 650.002 LINE SMOOTH",
"913.891 643.232 OFFCURVE",
"923.258 626.406 OFFCURVE",
"924 610.002 CURVE",
"745 112.002 LINE",
"629.646 393.604 LINE",
"730 593.002 LINE SMOOTH",
"741 614.002 OFFCURVE",
"757.084 641.937 OFFCURVE",
"768 650.002 CURVE SMOOTH",
"803 670.002 LINE",
"803 700.002 LINE",
"615 700.002 LINE",
"615 670.002 LINE",
"649 654.002 LINE SMOOTH",
"664 646.002 OFFCURVE",
"682.274 627.861 OFFCURVE",
"683 610.002 CURVE",
"605.518 452.505 LINE",
"541 610.002 LINE SMOOTH",
"536.829 621.411 OFFCURVE",
"540.366 641.038 OFFCURVE",
"555 650.002 CURVE SMOOTH",
"588 670.002 LINE",
"588 700.002 LINE",
"346 700 LINE",
"346 670 LINE",
"376 655 LINE SMOOTH",
"393.096 644.64 OFFCURVE",
"404.899 627.955 OFFCURVE",
"413 610 CURVE SMOOTH",
"542.165 323.731 LINE",
"438.001 112.002 LINE",
"242.001 610.002 LINE SMOOTH",
"241.313 612.231 OFFCURVE",
"241.001 615.002 OFFCURVE",
"241.001 617.002 CURVE SMOOTH",
"241.001 627.896 OFFCURVE",
"248.854 640.264 OFFCURVE",
"262.001 650.002 CURVE SMOOTH",
"289.001 670.002 LINE",
"289.001 700.002 LINE",
"40 700.002 LINE",
"40 670.002 LINE",
"80 650.002 LINE SMOOTH",
"96 642.002 OFFCURVE",
"105 628.002 OFFCURVE",
"115 610.002 CURVE SMOOTH",
"380.001 -14.998 LINE",
"424.001 -14.998 LINE",
"566.895 268.922 LINE",
"695 -14.999 LINE"
);
}
);
width = 1085;
}
);
unicode = 0057;
userData = {
com.fontlab.hintData = {
hhints = (
{
position = -15;
width = 21;
},
{
position = 680;
width = 20;
}
);
};
};
},
{
color = 11;
glyphname = X;
lastChange = "2018-07-07 03:14:17 +0000";
layers = (
{
layerId = "EE8FC948-6E49-42F4-ACA5-5A0A3F8AB331";
paths = (
{
closed = 1;
nodes = (
"274 0 LINE",
"274 30 LINE",
"219 40 OFFCURVE",
"194 50 OFFCURVE",
"194 70 CURVE SMOOTH",
"194 100 OFFCURVE",
"204 110 OFFCURVE",
"224 140 CURVE SMOOTH",
"342 315 LINE",
"444 160 LINE SMOOTH",
"461 134 OFFCURVE",
"489 90 OFFCURVE",
"489 70 CURVE SMOOTH",
"489 50 OFFCURVE",
"474 40 OFFCURVE",
"419 30 CURVE",
"419 0 LINE",
"740 0 LINE",
"740 30 LINE",
"668 45 OFFCURVE",
"631 77 OFFCURVE",
"597 127 CURVE SMOOTH",
"427 380 LINE",
"554 560 LINE SMOOTH",
"589 609 OFFCURVE",
"624 660 OFFCURVE",
"699 670 CURVE",
"699 700 LINE",
"439 700 LINE",
"439 670 LINE",
"504 660 OFFCURVE",
"514 640 OFFCURVE",
"514 620 CURVE SMOOTH",
"514 600 OFFCURVE",
"494 570 OFFCURVE",
"464 525 CURVE SMOOTH",
"394 420 LINE",
"324 530 LINE SMOOTH",
"305 560 OFFCURVE",
"274 600 OFFCURVE",
"274 620 CURVE SMOOTH",
"274 650 OFFCURVE",
"284 660 OFFCURVE",
"354 670 CURVE",
"354 700 LINE",
"14 700 LINE",
"14 670 LINE",
"104 650 OFFCURVE",
"121 630 OFFCURVE",
"184 540 CURVE SMOOTH",
"314 355 LINE",
"144 115 LINE SMOOTH",
"112 70 OFFCURVE",
"84 40 OFFCURVE",
"10 30 CURVE",
"10 0 LINE"
);
}
);
width = 735;
}
);
unicode = 0058;
userData = {
com.fontlab.hintData = {
hhints = (
{
position = 0;
width = 30;
},
{
position = 660;
width = 37;
},
{
position = 670;
width = 30;
}
);
};
};
},
{
color = 11;
glyphname = Y;
lastChange = "2018-07-07 03:14:17 +0000";
layers = (
{
anchors = (
{
name = "Anchor-1";
position = "{355, 810}";
},
{
name = Anchor1;
position = "{410, 810}";
}
);
layerId = "EE8FC948-6E49-42F4-ACA5-5A0A3F8AB331";
paths = (
{
closed = 1;
nodes = (
"505 0 LINE",
"505 30 LINE",
"406 55 OFFCURVE",
"395 65 OFFCURVE",
"395 100 CURVE SMOOTH",
"395 270 LINE SMOOTH",
"591 593 LINE SMOOTH",
"605 616 OFFCURVE",
"620 650 OFFCURVE",
"695 670 CURVE",
"695 700 LINE",
"465 700 LINE",
"465 670 LINE",
"535 650 OFFCURVE",
"540 630 OFFCURVE",
"540 620 CURVE SMOOTH",
"540 610 OFFCURVE",
"533 589 OFFCURVE",
"503 540 CURVE SMOOTH",
"375 330 LINE SMOOTH",
"255 540 LINE SMOOTH",
"227 589 OFFCURVE",
"215 610 OFFCURVE",
"215 620 CURVE SMOOTH",
"215 640 OFFCURVE",
"225 650 OFFCURVE",
"285 670 CURVE",
"285 700 LINE",
"-15 700 LINE",
"-15 670 LINE",
"55 650 OFFCURVE",
"79 620 OFFCURVE",
"120 550 CURVE SMOOTH",
"285 270 LINE SMOOTH",
"285 100 LINE SMOOTH",
"285 65 OFFCURVE",
"275 55 OFFCURVE",
"175 30 CURVE",
"175 0 LINE"
);
}
);
width = 680;
}
);
unicode = 0059;
userData = {
com.fontlab.hintData = {
hhints = (
{
position = 0;
width = 30;
},
{
position = 245;
width = 77;
},
{
position = 680;
width = 20;
}
);
vhints = (
{
position = 341;
width = 110;
}
);
};
};
},
{
color = 11;
glyphname = Z;
lastChange = "2018-07-07 03:14:17 +0000";
layers = (
{
layerId = "EE8FC948-6E49-42F4-ACA5-5A0A3F8AB331";
paths = (
{
closed = 1;
nodes = (
"619 0 LINE",
"660 220 LINE",
"620 220 LINE",
"560 110 OFFCURVE",
"550 57 OFFCURVE",
"420 57 CURVE SMOOTH",
"185 57 LINE",
"620 660 LINE",
"620 700 LINE",
"60 700 LINE",
"60 500 LINE",
"99 500 LINE",
"119 580 OFFCURVE",
"141 640 OFFCURVE",
"239 640 CURVE SMOOTH",
"460 640 LINE",
"40 43 LINE",
"40 0 LINE"
);
}
);
width = 634;
}
);
unicode = 005A;
userData = {
com.fontlab.hintData = {
hhints = (
{
position = 0;
width = 57;
},
{
position = 641;
width = 59;
}
);
vhints = (
{
position = 65;
width = 49;
},
{
position = 545;
width = 49;
}
);
};
};
},
{
color = 11;
glyphname = bracketleft;
lastChange = "2018-07-07 03:14:17 +0000";
layers = (
{
layerId = "EE8FC948-6E49-42F4-ACA5-5A0A3F8AB331";
paths = (
{
closed = 1;
nodes = (
"359 -110 LINE",
"359 -71 LINE",
"302 -71 LINE SMOOTH",
"243 -71 OFFCURVE",
"224 -53 OFFCURVE",
"224 7 CURVE SMOOTH",
"224 683 LINE SMOOTH",
"224 743 OFFCURVE",
"243 761 OFFCURVE",
"302 761 CURVE SMOOTH",
"359 761 LINE",
"359 800 LINE",
"190 800 LINE SMOOTH",
"160 800 OFFCURVE",
"140 780 OFFCURVE",
"140 750 CURVE SMOOTH",
"140 -60 LINE SMOOTH",
"140 -90 OFFCURVE",
"160 -110 OFFCURVE",
"190 -110 CURVE SMOOTH"
);
}
);
width = 375;
}
);
unicode = 005B;
userData = {
com.fontlab.hintData = {
hhints = (
{
position = -110;
width = 39;
},
{
position = 761;
width = 39;
}
);
vhints = (
{
position = 140;
width = 84;
}
);
};
};
},
{
color = 11;
glyphname = backslash;
lastChange = "2018-07-07 03:14:17 +0000";
layers = (
{
layerId = "EE8FC948-6E49-42F4-ACA5-5A0A3F8AB331";
paths = (
{
closed = 1;
nodes = (
"328 -12 LINE",
"94 699 LINE",
"40 699 LINE",
"273 -12 LINE"
);
}
);
width = 368;
}
);
unicode = 005C;
userData = {
com.fontlab.hintData = {
hhints = (
{
position = -12;
width = 21;
},
{
position = 679;
width = 20;
}
);
vhints = (
{
position = 273;
width = 55;
}
);
};
};
},
{
color = 11;
glyphname = bracketright;
lastChange = "2018-07-07 03:14:17 +0000";
layers = (
{
layerId = "EE8FC948-6E49-42F4-ACA5-5A0A3F8AB331";
paths = (
{
closed = 1;
nodes = (
"209 -110 LINE SMOOTH",
"239 -110 OFFCURVE",
"259 -90 OFFCURVE",
"259 -60 CURVE SMOOTH",
"259 750 LINE SMOOTH",
"259 780 OFFCURVE",
"239 800 OFFCURVE",
"209 800 CURVE SMOOTH",
"40 800 LINE",
"40 761 LINE",
"97 761 LINE SMOOTH",
"156 761 OFFCURVE",
"175 743 OFFCURVE",
"175 683 CURVE SMOOTH",
"175 7 LINE SMOOTH",
"175 -53 OFFCURVE",
"156 -71 OFFCURVE",
"97 -71 CURVE SMOOTH",
"40 -71 LINE",
"40 -110 LINE"
);
}
);
width = 375;
}
);
unicode = 005D;
userData = {
com.fontlab.hintData = {
hhints = (
{
position = -110;
width = 39;
},
{
position = 761;
width = 39;
}
);
vhints = (
{
position = 175;
width = 84;
}
);
};
};
},
{
color = 11;
glyphname = asciicircum;
lastChange = "2018-07-07 03:14:17 +0000";
layers = (
{
layerId = "EE8FC948-6E49-42F4-ACA5-5A0A3F8AB331";
paths = (
{
closed = 1;
nodes = (
"82 380 LINE",
"235 628 LINE",
"387 380 LINE",
"449 380 LINE",
"254 700 LINE",
"217 700 LINE",
"20 380 LINE"
);
}
);
width = 469;
}
);
unicode = 005E;
userData = {
com.fontlab.hintData = {
hhints = (
{
position = 380;
width = 320;
}
);
};
};
},
{
color = 11;
glyphname = underscore;
lastChange = "2018-07-07 03:14:17 +0000";
layers = (
{
layerId = "EE8FC948-6E49-42F4-ACA5-5A0A3F8AB331";
paths = (
{
closed = 1;
nodes = (
"506 -130 LINE",
"506 -60 LINE",
"-6 -60 LINE",
"-6 -130 LINE"
);
}
);
width = 500;
}
);
unicode = 005F;
userData = {
com.fontlab.hintData = {
hhints = (
{
position = -130;
width = 70;
}
);
};
};
},
{
color = 11;
glyphname = grave;
lastChange = "2018-07-07 03:14:17 +0000";
layers = (
{
layerId = "EE8FC948-6E49-42F4-ACA5-5A0A3F8AB331";
paths = (
{
closed = 1;
nodes = (
"230 580 LINE",
"180 750 LINE",
"60 750 LINE",
"200 580 LINE"
);
}
);
width = 290;
}
);
unicode = 0060;
userData = {
com.fontlab.hintData = {
hhints = (
{
position = 580;
width = 170;
}
);
vhints = (
{
position = 60;
width = 170;
}
);
};
};
},
{
color = 11;
glyphname = a;
lastChange = "2018-07-07 23:16:29 +0000";
layers = (
{
anchors = (
{
name = "Anchor-1";
position = "{230, 580}";
},
{
name = Anchor1;
position = "{230, 580}";
}
);
layerId = "EE8FC948-6E49-42F4-ACA5-5A0A3F8AB331";
paths = (
{
closed = 1;
nodes = (
"422 -15 OFFCURVE",
"457 3 OFFCURVE",
"472 43 CURVE",
"455 60 LINE",
"447 52 OFFCURVE",
"440 50 OFFCURVE",
"430 50 CURVE SMOOTH",
"420 50 OFFCURVE",
"410 55 OFFCURVE",
"410 80 CURVE SMOOTH",
"410 355 LINE SMOOTH",
"410 448 OFFCURVE",
"360 500 OFFCURVE",
"260 500 CURVE SMOOTH",
"143 500 OFFCURVE",
"77 434 OFFCURVE",
"77 379 CURVE SMOOTH",
"77 352 OFFCURVE",
"84 318 OFFCURVE",
"114 318 CURVE SMOOTH",
"134 318 OFFCURVE",
"173 341 OFFCURVE",
"173 363 CURVE SMOOTH",
"173 382 OFFCURVE",
"158 389 OFFCURVE",
"158 413 CURVE SMOOTH",
"158 442 OFFCURVE",
"196 461 OFFCURVE",
"235 461 CURVE SMOOTH",
"278 461 OFFCURVE",
"310 422 OFFCURVE",
"310 365 CURVE SMOOTH",
"310 75 LINE SMOOTH",
"310 15 OFFCURVE",
"336 -15 OFFCURVE",
"396 -15 CURVE SMOOTH"
);
},
{
closed = 1;
nodes = (
"238 -20 OFFCURVE",
"321 30 OFFCURVE",
"350 97 CURVE",
"350 139 LINE",
"323 97 OFFCURVE",
"266 60 OFFCURVE",
"230 60 CURVE SMOOTH",
"170 60 OFFCURVE",
"155 85 OFFCURVE",
"155 130 CURVE SMOOTH",
"155 176 OFFCURVE",
"201 218 OFFCURVE",
"350 256 CURVE",
"350 298 LINE",
"204 264 OFFCURVE",
"55 214 OFFCURVE",
"55 100 CURVE SMOOTH",
"55 35 OFFCURVE",
"100 -20 OFFCURVE",
"180 -20 CURVE SMOOTH"
);
}
);
width = 510;
}
);
unicode = 0061;
userData = {
com.fontlab.hintData = {
hhints = (
{
position = -20;
width = 70;
},
{
position = 465;
width = 35;
}
);
vhints = (
{
position = 40;
width = 105;
},
{
position = 70;
width = 88;
},
{
position = 310;
width = 100;
}
);
};
com.typemytype.robofont.mark = (
1,
1,
0,
1
);
};
},
{
color = 11;
glyphname = b;
lastChange = "2018-07-07 03:14:17 +0000";
layers = (
{
layerId = "EE8FC948-6E49-42F4-ACA5-5A0A3F8AB331";
paths = (
{
closed = 1;
nodes = (
"450 -20 OFFCURVE",
"535 110 OFFCURVE",
"535 250 CURVE SMOOTH",
"535 380 OFFCURVE",
"480 500 OFFCURVE",
"330 500 CURVE SMOOTH",
"255 500 OFFCURVE",
"210 460 OFFCURVE",
"180 420 CURVE",
"170 420 LINE",
"170 750 LINE",
"110 750 LINE",
"10 720 LINE",
"10 695 LINE",
"50 675 LINE SMOOTH",
"60 670 OFFCURVE",
"70 665 OFFCURVE",
"70 650 CURVE SMOOTH",
"70 0 LINE",
"90 -10 LINE",
"150 20 LINE",
"190 -5 OFFCURVE",
"240 -20 OFFCURVE",
"300 -20 CURVE SMOOTH"
);
},
{
closed = 1;
nodes = (
"190 25 OFFCURVE",
"170 90 OFFCURVE",
"170 140 CURVE SMOOTH",
"170 290 LINE SMOOTH",
"170 380 OFFCURVE",
"200 430 OFFCURVE",
"270 430 CURVE SMOOTH",
"380 430 OFFCURVE",
"425 340 OFFCURVE",
"425 240 CURVE SMOOTH",
"425 60 OFFCURVE",
"350 25 OFFCURVE",
"280 25 CURVE SMOOTH"
);
}
);
width = 575;
}
);
unicode = 0062;
userData = {
com.fontlab.hintData = {
hhints = (
{
position = -20;
width = 45;
},
{
position = -10;
width = 21;
},
{
position = 430;
width = 70;
},
{
position = 730;
width = 20;
}
);
vhints = (
{
position = 70;
width = 100;
},
{
position = 425;
width = 110;
}
);
};
};
},
{
color = 11;
glyphname = c;
lastChange = "2018-07-07 03:14:17 +0000";
layers = (
{
anchors = (
{
name = "Anchor-0";
position = "{230, 0}";
},
{
name = "Anchor-1";
position = "{255, 580}";
},
{
name = Anchor0;
position = "{230, 0}";
},
{
name = Anchor1;
position = "{255, 580}";
}
);
layerId = "EE8FC948-6E49-42F4-ACA5-5A0A3F8AB331";
paths = (
{
closed = 1;
nodes = (
"360 -15 OFFCURVE",
"420 45 OFFCURVE",
"455 90 CURVE",
"435 110 LINE",
"410 85 OFFCURVE",
"350 55 OFFCURVE",
"305 55 CURVE SMOOTH",
"225 55 OFFCURVE",
"150 120 OFFCURVE",
"150 275 CURVE SMOOTH",
"150 405 OFFCURVE",
"220 455 OFFCURVE",
"270 455 CURVE SMOOTH",
"310 455 OFFCURVE",
"335 425 OFFCURVE",
"335 380 CURVE SMOOTH",
"335 335 LINE",
"350 325 OFFCURVE",
"369 320 OFFCURVE",
"390 320 CURVE SMOOTH",
"420 320 OFFCURVE",
"445 340 OFFCURVE",
"445 380 CURVE SMOOTH",
"445 460 OFFCURVE",
"370 495 OFFCURVE",
"280 495 CURVE SMOOTH",
"155 495 OFFCURVE",
"40 395 OFFCURVE",
"40 235 CURVE SMOOTH",
"40 60 OFFCURVE",
"143 -15 OFFCURVE",
"255 -15 CURVE SMOOTH"
);
}
);
width = 475;
}
);
unicode = 0063;
userData = {
com.fontlab.hintData = {
hhints = (
{
position = -15;
width = 70;
},
{
position = 455;
width = 40;
}
);
vhints = (
{
position = 40;
width = 110;
},
{
position = 335;
width = 110;
}
);
};
};
},
{
color = 11;
glyphname = d;
lastChange = "2018-07-07 03:14:17 +0000";
layers = (
{
layerId = "EE8FC948-6E49-42F4-ACA5-5A0A3F8AB331";
paths = (
{
closed = 1;
nodes = (
"334.999 -20 OFFCURVE",
"389.999 25 OFFCURVE",
"404.999 60 CURVE",
"404.999 -15 LINE",
"429.999 -15 LINE",
"561 12 LINE",
"561 37 LINE",
"525 37 OFFCURVE",
"504.999 54.425 OFFCURVE",
"504.999 78 CURVE SMOOTH",
"504.999 527 LINE",
"504.999 750 LINE",
"444.999 750 LINE",
"344.999 720 LINE",
"344.999 695 LINE",
"384.999 675 LINE SMOOTH",
"394.999 670 OFFCURVE",
"404.999 665 OFFCURVE",
"404.999 650 CURVE SMOOTH",
"404.999 527 LINE",
"404.999 475.25 LINE",
"366.619 488.997 OFFCURVE",
"321.909 500 OFFCURVE",
"274.999 500 CURVE SMOOTH",
"125 500 OFFCURVE",
"40 370 OFFCURVE",
"40 230 CURVE SMOOTH",
"40 100 OFFCURVE",
"115 -20 OFFCURVE",
"264.999 -20 CURVE SMOOTH"
);
},
{
closed = 1;
nodes = (
"194.999 50 OFFCURVE",
"149.999 140 OFFCURVE",
"149.999 240 CURVE SMOOTH",
"149.999 420 OFFCURVE",
"225 455 OFFCURVE",
"295 455 CURVE SMOOTH",
"363.106 455 OFFCURVE",
"394.004 417.777 OFFCURVE",
"404.999 378 CURVE SMOOTH",
"408.533 365.214 OFFCURVE",
"409.999 352.163 OFFCURVE",
"409.999 340 CURVE SMOOTH",
"409.999 240 LINE SMOOTH",
"409.999 110 OFFCURVE",
"374.999 50 OFFCURVE",
"304.999 50 CURVE SMOOTH"
);
}
);
width = 585;
}
);
unicode = 0064;
userData = {
com.fontlab.hintData = {
hhints = (
{
position = -20;
width = 70;
},
{
position = 12;
width = 25;
},
{
position = 455;
width = 45;
},
{
position = 730;
width = 20;
}
);
vhints = (
{
position = 40;
width = 110;
},
{
position = 405;
width = 100;
}
);
};
};
},
{
color = 11;
glyphname = e;
lastChange = "2018-07-07 23:16:56 +0000";
layers = (
{
anchors = (
{
name = "Anchor-1";
position = "{247, 600}";
},
{
name = Anchor1;
position = "{247, 600}";
}
);
layerId = "EE8FC948-6E49-42F4-ACA5-5A0A3F8AB331";
paths = (
{
closed = 1;
nodes = (
"357 -15 OFFCURVE",
"417 45 OFFCURVE",
"452 90 CURVE",
"432 110 LINE",
"407 85 OFFCURVE",
"347 55 OFFCURVE",
"302 55 CURVE SMOOTH",
"207 55 OFFCURVE",
"142 120 OFFCURVE",
"142 275 CURVE SMOOTH",
"142 275 OFFCURVE",
"142 276 OFFCURVE",
"142 276 CURVE SMOOTH",
"450 276 LINE",
"450 297 LINE SMOOTH",
"450 393 OFFCURVE",
"392 495 OFFCURVE",
"257 495 CURVE SMOOTH",
"142 495 OFFCURVE",
"32 395 OFFCURVE",
"32 234 CURVE SMOOTH",
"32 60 OFFCURVE",
"140 -15 OFFCURVE",
"252 -15 CURVE SMOOTH"
);
},
{
closed = 1;
nodes = (
"154 417 OFFCURVE",
"196 455 OFFCURVE",
"257 455 CURVE SMOOTH",
"327 455 OFFCURVE",
"356 404 OFFCURVE",
"354 320 CURVE",
"144 320 LINE"
);
}
);
width = 492;
}
);
leftMetricsKey = "=o";
unicode = 0065;
userData = {
com.fontlab.hintData = {
hhints = (
{
position = -15;
width = 70;
},
{
position = 276;
width = 44;
},
{
position = 455;
width = 40;
}
);
vhints = (
{
position = 35;
width = 110;
},
{
position = 350;
width = 110;
}
);
};
};
},
{
color = 11;
glyphname = f;
lastChange = "2018-07-07 13:19:16 +0000";
layers = (
{
layerId = "EE8FC948-6E49-42F4-ACA5-5A0A3F8AB331";
paths = (
{
closed = 1;
nodes = (
"280 0 LINE",
"280 25 LINE",
"230 35 OFFCURVE",
"210 55 OFFCURVE",
"210 95 CURVE",
"210 550 LINE SMOOTH",
"210 662 OFFCURVE",
"250 700 OFFCURVE",
"285 700 CURVE SMOOTH",
"330 700 OFFCURVE",
"340 640 OFFCURVE",
"380 640 CURVE SMOOTH",
"401 640 OFFCURVE",
"433 667 OFFCURVE",
"433 700 CURVE SMOOTH",
"433 734 OFFCURVE",
"392 755 OFFCURVE",
"340 755 CURVE SMOOTH",
"176 755 OFFCURVE",
"125 619 OFFCURVE",
"125 539 CURVE SMOOTH",
"125 497 OFFCURVE",
"100 475 OFFCURVE",
"50 465 CURVE",
"50 440 LINE",
"110 440 LINE",
"110 95 LINE SMOOTH",
"110 55 OFFCURVE",
"90 35 OFFCURVE",
"40 25 CURVE",
"40 0 LINE"
);
},
{
closed = 1;
nodes = (
"295 450 LINE",
"295 480 LINE",
"163 480 LINE",
"163 440 LINE"
);
}
);
width = 333;
}
);
unicode = 0066;
userData = {
com.fontlab.hintData = {
hhints = (
{
position = 0;
width = 30;
},
{
position = 440;
width = 20;
},
{
position = 440;
width = 30;
},
{
position = 710;
width = 50;
}
);
vhints = (
{
position = 110;
width = 100;
},
{
position = 120;
width = 90;
}
);
};
com.typemytype.robofont.mark = (
1,
1,
0,
1
);
};
},
{
color = 11;
glyphname = g;
lastChange = "2018-07-07 03:14:17 +0000";
layers = (
{
layerId = "EE8FC948-6E49-42F4-ACA5-5A0A3F8AB331";
paths = (
{
closed = 1;
nodes = (
"355 -260 OFFCURVE",
"505 -210 OFFCURVE",
"505 -70 CURVE SMOOTH",
"505 10 OFFCURVE",
"425 65 OFFCURVE",
"265 65 CURVE SMOOTH",
"165 65 OFFCURVE",
"135 100 OFFCURVE",
"135 120 CURVE SMOOTH",
"135 131 OFFCURVE",
"141 143 OFFCURVE",
"154 160 CURVE",
"179 150 OFFCURVE",
"209 145 OFFCURVE",
"245 145 CURVE SMOOTH",
"369 145 OFFCURVE",
"445 216 OFFCURVE",
"445 320 CURVE SMOOTH",
"445 359 OFFCURVE",
"431 393 OFFCURVE",
"410 420 CURVE",
"410 420 LINE",
"505 395 LINE",
"535 405 LINE",
"535 480 LINE",
"368 459 LINE",
"331 485 OFFCURVE",
"286 500 OFFCURVE",
"245 500 CURVE SMOOTH",
"116 500 OFFCURVE",
"45 429 OFFCURVE",
"45 330 CURVE SMOOTH",
"45 273 OFFCURVE",
"66 213 OFFCURVE",
"120 177 CURVE",
"95 153 OFFCURVE",
"60 116 OFFCURVE",
"60 90 CURVE SMOOTH",
"60 48 OFFCURVE",
"98 10 OFFCURVE",
"138 -9 CURVE",
"100 -33 OFFCURVE",
"25 -86 OFFCURVE",
"25 -120 CURVE SMOOTH",
"25 -233 OFFCURVE",
"121 -260 OFFCURVE",
"265 -260 CURVE SMOOTH"
);
},
{
closed = 1;
nodes = (
"190 -220 OFFCURVE",
"110 -182 OFFCURVE",
"110 -110 CURVE SMOOTH",
"110 -75 OFFCURVE",
"185 -20 OFFCURVE",
"185 -20 CURVE",
"335 -20 OFFCURVE",
"410 -40 OFFCURVE",
"410 -120 CURVE SMOOTH",
"410 -173 OFFCURVE",
"375 -220 OFFCURVE",
"285 -220 CURVE SMOOTH"
);
},
{
closed = 1;
nodes = (
"196 180 OFFCURVE",
"150 229 OFFCURVE",
"150 330 CURVE SMOOTH",
"150 385 OFFCURVE",
"166 465 OFFCURVE",
"245 465 CURVE SMOOTH",
"296 465 OFFCURVE",
"340 421 OFFCURVE",
"340 320 CURVE SMOOTH",
"340 264 OFFCURVE",
"321 180 OFFCURVE",
"245 180 CURVE SMOOTH"
);
}
);
width = 545;
}
);
unicode = 0067;
userData = {
com.fontlab.hintData = {
hhints = (
{
position = -260;
width = 40;
},
{
position = -20;
width = 85;
},
{
position = 145;
width = 35;
},
{
position = 395;
width = 85;
},
{
position = 465;
width = 35;
}
);
vhints = (
{
position = 30;
width = 85;
},
{
position = 50;
width = 105;
},
{
position = 65;
width = 75;
},
{
position = 345;
width = 105;
},
{
position = 415;
width = 95;
}
);
};
};
},
{
color = 11;
glyphname = h;
lastChange = "2018-07-07 03:25:03 +0000";
layers = (
{
layerId = "EE8FC948-6E49-42F4-ACA5-5A0A3F8AB331";
paths = (
{
closed = 1;
nodes = (
"564 0 LINE",
"564 25 LINE",
"514 35 OFFCURVE",
"494 55 OFFCURVE",
"494 95 CURVE SMOOTH",
"494 320 LINE SMOOTH",
"494 440 OFFCURVE",
"450 490 OFFCURVE",
"344 490 CURVE SMOOTH",
"286 490 OFFCURVE",
"229 458 OFFCURVE",
"181 426 CURVE",
"218 440 LINE",
"142 440 LINE",
"142 387 LINE",
"194 387 LINE",
"220 406 OFFCURVE",
"265 430 OFFCURVE",
"304 430 CURVE SMOOTH",
"372 430 OFFCURVE",
"394 390 OFFCURVE",
"394 330 CURVE SMOOTH",
"394 95 LINE SMOOTH",
"394 55 OFFCURVE",
"374 35 OFFCURVE",
"324 25 CURVE",
"324 0 LINE"
);
},
{
closed = 1;
nodes = (
"264 0 LINE",
"264 25 LINE",
"214 35 OFFCURVE",
"194 55 OFFCURVE",
"194 95 CURVE SMOOTH",
"194 387 LINE",
"190 440 LINE",
"190 740 LINE",
"160 750 LINE",
"34 710 LINE",
"34 690 LINE",
"94 660 LINE",
"94 95 LINE SMOOTH",
"94 55 OFFCURVE",
"74 35 OFFCURVE",
"24 25 CURVE",
"24 0 LINE"
);
}
);
width = 590;
}
);
rightMetricsKey = "=n";
unicode = 0068;
userData = {
com.fontlab.hintData = {
hhints = (
{
position = 0;
width = 25;
},
{
position = 430;
width = 60;
},
{
position = 730;
width = 20;
}
);
vhints = (
{
position = 95;
width = 100;
},
{
position = 395;
width = 100;
}
);
};
com.typemytype.robofont.mark = (
1,
1,
0,
1
);
};
},
{
color = 11;
glyphname = i;
lastChange = "2018-07-07 03:14:17 +0000";
layers = (
{
layerId = "EE8FC948-6E49-42F4-ACA5-5A0A3F8AB331";
paths = (
{
closed = 1;
nodes = (
"268 0 LINE",
"268 24 LINE",
"218 36 OFFCURVE",
"198 56 OFFCURVE",
"198 96 CURVE SMOOTH",
"198 490 LINE",
"168 500 LINE",
"38 450 LINE",
"38 430 LINE",
"98 400 LINE",
"98 96 LINE SMOOTH",
"98 56 OFFCURVE",
"78 36 OFFCURVE",
"28 24 CURVE",
"28 0 LINE"
);
},
{
closed = 1;
nodes = (
"184 634 OFFCURVE",
"210 664 OFFCURVE",
"210 700 CURVE SMOOTH",
"210 736 OFFCURVE",
"184 766 OFFCURVE",
"144 766 CURVE SMOOTH",
"104 766 OFFCURVE",
"78 736 OFFCURVE",
"78 700 CURVE SMOOTH",
"78 664 OFFCURVE",
"104 634 OFFCURVE",
"144 634 CURVE SMOOTH"
);
}
);
width = 288;
}
);
unicode = 0069;
userData = {
com.fontlab.hintData = {
hhints = (
{
position = 0;
width = 25;
},
{
position = 635;
width = 130;
}
);
vhints = (
{
position = 80;
width = 130;
},
{
position = 100;
width = 100;
}
);
};
com.typemytype.robofont.mark = (
1,
1,
0,
1
);
};
},
{
color = 11;
glyphname = j;
lastChange = "2018-07-07 03:14:17 +0000";
layers = (
{
layerId = "EE8FC948-6E49-42F4-ACA5-5A0A3F8AB331";
paths = (
{
closed = 1;
nodes = (
"130 -115 OFFCURVE",
"185 -50 OFFCURVE",
"185 50 CURVE SMOOTH",
"185 490 LINE",
"155 500 LINE",
"25 450 LINE",
"25 430 LINE",
"85 400 LINE",
"85 75 LINE SMOOTH",
"85 -25 OFFCURVE",
"80 -75 OFFCURVE",
"10 -165 CURVE",
"30 -185 LINE"
);
},
{
closed = 1;
nodes = (
"170 635 OFFCURVE",
"195 665 OFFCURVE",
"195 700 CURVE SMOOTH",
"195 735 OFFCURVE",
"170 765 OFFCURVE",
"130 765 CURVE SMOOTH",
"90 765 OFFCURVE",
"65 735 OFFCURVE",
"65 700 CURVE SMOOTH",
"65 665 OFFCURVE",
"90 635 OFFCURVE",
"130 635 CURVE SMOOTH"
);
}
);
width = 245;
}
);
unicode = 006A;
userData = {
com.fontlab.hintData = {
hhints = (
{
position = 635;
width = 130;
}
);
vhints = (
{
position = 65;
width = 130;
},
{
position = 85;
width = 100;
}
);
};
com.typemytype.robofont.mark = (
1,
1,
0,
1
);
};
},
{
color = 11;
glyphname = k;
lastChange = "2018-07-07 03:14:17 +0000";
layers = (
{
layerId = "EE8FC948-6E49-42F4-ACA5-5A0A3F8AB331";
paths = (
{
closed = 1;
nodes = (
"260 0 LINE",
"260 30 LINE",
"210 35 OFFCURVE",
"190 60 OFFCURVE",
"190 100 CURVE SMOOTH",
"190 230 LINE",
"420 0 LINE",
"550 0 LINE",
"550 30 LINE",
"500 50 OFFCURVE",
"470 80 OFFCURVE",
"270 280 CURVE",
"411 421 OFFCURVE",
"440 440 OFFCURVE",
"500 460 CURVE",
"500 480 LINE",
"270 480 LINE",
"270 460 LINE",
"300 450 OFFCURVE",
"310 440 OFFCURVE",
"310 420 CURVE SMOOTH",
"310 390 OFFCURVE",
"300 380 OFFCURVE",
"190 270 CURVE",
"190 740 LINE",
"160 750 LINE",
"30 710 LINE",
"30 690 LINE",
"90 660 LINE",
"90 100 LINE SMOOTH",
"90 60 OFFCURVE",
"70 35 OFFCURVE",
"20 30 CURVE",
"20 0 LINE"
);
}
);
width = 555;
}
);
unicode = 006B;
userData = {
com.fontlab.hintData = {
hhints = (
{
position = 0;
width = 30;
},
{
position = 460;
width = 20;
},
{
position = 730;
width = 20;
}
);
vhints = (
{
position = 90;
width = 100;
}
);
};
};
},
{
color = 11;
glyphname = l;
lastChange = "2018-07-07 03:14:17 +0000";
layers = (
{
layerId = "EE8FC948-6E49-42F4-ACA5-5A0A3F8AB331";
paths = (
{
closed = 1;
nodes = (
"258 0 LINE",
"258 30 LINE",
"208 40 OFFCURVE",
"188 60 OFFCURVE",
"188 100 CURVE SMOOTH",
"188 740 LINE",
"158 750 LINE",
"28 710 LINE",
"28 690 LINE",
"88 660 LINE",
"88 100 LINE SMOOTH",
"88 60 OFFCURVE",
"68 40 OFFCURVE",
"18 30 CURVE",
"18 0 LINE"
);
}
);
width = 272;
}
);
unicode = 006C;
userData = {
com.fontlab.hintData = {
hhints = (
{
position = 0;
width = 30;
},
{
position = 730;
width = 20;
}
);
vhints = (
{
position = 90;
width = 100;
}
);
};
com.typemytype.robofont.mark = (
1,
1,
0,
1
);
};
},
{
color = 11;
glyphname = m;
lastChange = "2018-07-07 03:14:17 +0000";
layers = (
{
layerId = "EE8FC948-6E49-42F4-ACA5-5A0A3F8AB331";
paths = (
{
closed = 1;
nodes = (
"864 0 LINE",
"864 25 LINE",
"814 35 OFFCURVE",
"794 55 OFFCURVE",
"794 95 CURVE SMOOTH",
"794 320 LINE SMOOTH",
"794 440 OFFCURVE",
"750 490 OFFCURVE",
"644 490 CURVE SMOOTH",
"586 490 OFFCURVE",
"499 448 OFFCURVE",
"451 416 CURVE",
"518 435 LINE",
"442 435 LINE",
"442 377 LINE",
"474 377 LINE",
"500 396 OFFCURVE",
"565 430 OFFCURVE",
"604 430 CURVE SMOOTH",
"672 430 OFFCURVE",
"694 390 OFFCURVE",
"694 330 CURVE SMOOTH",
"694 95 LINE SMOOTH",
"694 55 OFFCURVE",
"674 35 OFFCURVE",
"624 25 CURVE",
"624 0 LINE"
);
},
{
closed = 1;
nodes = (
"264 0 LINE",
"264 25 LINE",
"214 35 OFFCURVE",
"194 55 OFFCURVE",
"194 95 CURVE SMOOTH",
"194 387 LINE",
"190 440 LINE",
"190 490 LINE",
"160 500 LINE",
"34 460 LINE",
"34 440 LINE",
"94 410 LINE",
"94 95 LINE SMOOTH",
"94 55 OFFCURVE",
"74 35 OFFCURVE",
"24 25 CURVE",
"24 0 LINE"
);
},
{
closed = 1;
nodes = (
"564 0 LINE",
"564 25 LINE",
"514 35 OFFCURVE",
"494 55 OFFCURVE",
"494 95 CURVE SMOOTH",
"494 320 LINE SMOOTH",
"494 440 OFFCURVE",
"450 490 OFFCURVE",
"344 490 CURVE SMOOTH",
"286 490 OFFCURVE",
"229 458 OFFCURVE",
"181 426 CURVE",
"218 440 LINE",
"142 440 LINE",
"142 387 LINE",
"194 387 LINE",
"220 406 OFFCURVE",
"265 430 OFFCURVE",
"304 430 CURVE SMOOTH",
"372 430 OFFCURVE",
"394 390 OFFCURVE",
"394 330 CURVE SMOOTH",
"394 95 LINE SMOOTH",
"394 55 OFFCURVE",
"374 35 OFFCURVE",
"324 25 CURVE",
"324 0 LINE"
);
}
);
width = 880;
}
);
unicode = 006D;
userData = {
com.fontlab.hintData = {
hhints = (
{
position = 0;
width = 30;
},
{
position = 430;
width = 60;
}
);
vhints = (
{
position = 100;
width = 100;
},
{
position = 400;
width = 100;
},
{
position = 700;
width = 100;
}
);
};
com.typemytype.robofont.mark = (
1,
1,
0,
1
);
};
},
{
color = 11;
glyphname = n;
lastChange = "2018-07-07 03:14:17 +0000";
layers = (
{
layerId = "EE8FC948-6E49-42F4-ACA5-5A0A3F8AB331";
paths = (
{
closed = 1;
nodes = (
"564 0 LINE",
"564 25 LINE",
"514 35 OFFCURVE",
"494 55 OFFCURVE",
"494 95 CURVE SMOOTH",
"494 320 LINE SMOOTH",
"494 440 OFFCURVE",
"450 490 OFFCURVE",
"344 490 CURVE SMOOTH",
"286 490 OFFCURVE",
"229 458 OFFCURVE",
"181 426 CURVE",
"218 440 LINE",
"142 440 LINE",
"142 387 LINE",
"194 387 LINE",
"220 406 OFFCURVE",
"265 430 OFFCURVE",
"304 430 CURVE SMOOTH",
"372 430 OFFCURVE",
"394 390 OFFCURVE",
"394 330 CURVE SMOOTH",
"394 95 LINE SMOOTH",
"394 55 OFFCURVE",
"374 35 OFFCURVE",
"324 25 CURVE",
"324 0 LINE"
);
},
{
closed = 1;
nodes = (
"264 0 LINE",
"264 25 LINE",
"214 35 OFFCURVE",
"194 55 OFFCURVE",
"194 95 CURVE SMOOTH",
"194 387 LINE",
"190 440 LINE",
"190 490 LINE",
"160 500 LINE",
"34 460 LINE",
"34 440 LINE",
"94 410 LINE",
"94 95 LINE SMOOTH",
"94 55 OFFCURVE",
"74 35 OFFCURVE",
"24 25 CURVE",
"24 0 LINE"
);
}
);
width = 590;
}
);
unicode = 006E;
userData = {
com.fontlab.hintData = {
hhints = (
{
position = 0;
width = 30;
},
{
position = 435;
width = 60;
}
);
vhints = (
{
position = 100;
width = 100;
},
{
position = 410;
width = 100;
}
);
};
com.typemytype.robofont.mark = (
1,
1,
0,
1
);
};
},
{
color = 11;
glyphname = o;
lastChange = "2018-07-07 03:25:21 +0000";
layers = (
{
anchors = (
{
name = Anchor1;
position = "{274, 580}";
}
);
layerId = "EE8FC948-6E49-42F4-ACA5-5A0A3F8AB331";
paths = (
{
closed = 1;
nodes = (
"417 -15 OFFCURVE",
"517 85 OFFCURVE",
"517 245 CURVE SMOOTH",
"517 415 OFFCURVE",
"402 495 OFFCURVE",
"282 495 CURVE SMOOTH",
"127 495 OFFCURVE",
"32 380 OFFCURVE",
"32 235 CURVE SMOOTH",
"32 65 OFFCURVE",
"152 -15 OFFCURVE",
"267 -15 CURVE SMOOTH"
);
},
{
closed = 1;
nodes = (
"207 25 OFFCURVE",
"142 85 OFFCURVE",
"142 250 CURVE SMOOTH",
"142 335 OFFCURVE",
"167 455 OFFCURVE",
"272 455 CURVE SMOOTH",
"342 455 OFFCURVE",
"407 390 OFFCURVE",
"407 230 CURVE SMOOTH",
"407 140 OFFCURVE",
"387 25 OFFCURVE",
"277 25 CURVE SMOOTH"
);
}
);
width = 549;
}
);
unicode = 006F;
userData = {
com.fontlab.hintData = {
hhints = (
{
position = -15;
width = 40;
},
{
position = 455;
width = 40;
}
);
vhints = (
{
position = 40;
width = 110;
},
{
position = 415;
width = 110;
}
);
};
com.typemytype.robofont.mark = (
1,
1,
0,
1
);
};
},
{
color = 11;
glyphname = p;
lastChange = "2018-07-07 03:14:17 +0000";
layers = (
{
layerId = "EE8FC948-6E49-42F4-ACA5-5A0A3F8AB331";
paths = (
{
closed = 1;
nodes = (
"70 -220 LINE",
"170 -220 LINE",
"240 -220 LINE",
"240 -190 LINE",
"190 -180 OFFCURVE",
"170 -160 OFFCURVE",
"170 -120 CURVE SMOOTH",
"170 -62 LINE SMOOTH",
"170 -34 OFFCURVE",
"166.919 -10.08 OFFCURVE",
"160 13 CURVE",
"170 18 LINE",
"190 1.85 OFFCURVE",
"236 -20 OFFCURVE",
"300 -20 CURVE SMOOTH",
"450 -20 OFFCURVE",
"535 110 OFFCURVE",
"535 250 CURVE SMOOTH",
"535 380 OFFCURVE",
"480 500 OFFCURVE",
"330 500 CURVE SMOOTH",
"255 500 OFFCURVE",
"210 460 OFFCURVE",
"180 420 CURVE",
"170 420 LINE",
"170 498 LINE",
"110 498 LINE",
"10 468 LINE",
"10 443 LINE",
"50 423 LINE SMOOTH",
"60 418 OFFCURVE",
"70 413 OFFCURVE",
"70 398 CURVE SMOOTH",
"70 -120 LINE SMOOTH",
"70 -160 OFFCURVE",
"50 -180 OFFCURVE",
"0 -190 CURVE",
"0 -220 LINE"
);
},
{
closed = 1;
nodes = (
"190 25 OFFCURVE",
"170 90 OFFCURVE",
"170 140 CURVE SMOOTH",
"170 290 LINE SMOOTH",
"170 380 OFFCURVE",
"200 430 OFFCURVE",
"270 430 CURVE SMOOTH",
"380 430 OFFCURVE",
"425 340 OFFCURVE",
"425 240 CURVE SMOOTH",
"425 60 OFFCURVE",
"350 25 OFFCURVE",
"280 25 CURVE SMOOTH"
);
}
);
width = 575;
}
);
unicode = 0070;
userData = {
com.fontlab.hintData = {
hhints = (
{
position = -220;
width = 30;
},
{
position = -220;
width = 100;
},
{
position = -20;
width = 45;
},
{
position = 430;
width = 70;
}
);
vhints = (
{
position = 70;
width = 100;
},
{
position = 425;
width = 110;
}
);
};
};
},
{
color = 11;
glyphname = q;
lastChange = "2018-07-07 03:14:17 +0000";
layers = (
{
layerId = "EE8FC948-6E49-42F4-ACA5-5A0A3F8AB331";
paths = (
{
closed = 1;
nodes = (
"575 -220 LINE",
"575 -190 LINE",
"525 -180 OFFCURVE",
"505 -160 OFFCURVE",
"505 -120 CURVE SMOOTH",
"505 480 LINE",
"473 500 LINE",
"415 471.375 LINE",
"405 475.25 LINE SMOOTH",
"366.62 488.997 OFFCURVE",
"321.91 500 OFFCURVE",
"275 500 CURVE SMOOTH",
"125 500 OFFCURVE",
"40 370 OFFCURVE",
"40 230 CURVE SMOOTH",
"40 100 OFFCURVE",
"115 -20 OFFCURVE",
"265 -20 CURVE SMOOTH",
"335 -20 OFFCURVE",
"390 25 OFFCURVE",
"405 60 CURVE",
"415 55 LINE",
"405 25 OFFCURVE",
"405 0 OFFCURVE",
"405 -20 CURVE SMOOTH",
"405 -120 LINE SMOOTH",
"405 -160 OFFCURVE",
"385 -180 OFFCURVE",
"335 -190 CURVE",
"335 -220 LINE"
);
},
{
closed = 1;
nodes = (
"194.999 50 OFFCURVE",
"149.999 140 OFFCURVE",
"149.999 240 CURVE SMOOTH",
"149.999 420 OFFCURVE",
"225 455 OFFCURVE",
"295 455 CURVE SMOOTH",
"363.106 455 OFFCURVE",
"394.004 417.777 OFFCURVE",
"404.999 378 CURVE SMOOTH",
"408.533 365.214 OFFCURVE",
"409.999 352.163 OFFCURVE",
"409.999 340 CURVE SMOOTH",
"409.999 240 LINE SMOOTH",
"409.999 110 OFFCURVE",
"374.999 50 OFFCURVE",
"304.999 50 CURVE SMOOTH"
);
}
);
width = 585;
}
);
unicode = 0071;
userData = {
com.fontlab.hintData = {
hhints = (
{
position = -220;
width = 30;
},
{
position = -20;
width = 70;
},
{
position = 455;
width = 45;
}
);
vhints = (
{
position = 40;
width = 110;
},
{
position = 405;
width = 100;
}
);
};
};
},
{
color = 11;
glyphname = r;
lastChange = "2018-07-07 23:02:49 +0000";
layers = (
{
layerId = "EE8FC948-6E49-42F4-ACA5-5A0A3F8AB331";
paths = (
{
closed = 1;
nodes = (
"290 0 LINE",
"290 25 LINE",
"240 35 OFFCURVE",
"200 55 OFFCURVE",
"200 95 CURVE SMOOTH",
"200 346 LINE",
"196 395 LINE",
"196 490 LINE",
"166 500 LINE",
"40 445 LINE",
"40 425 LINE",
"100 395 LINE",
"100 95 LINE SMOOTH",
"100 55 OFFCURVE",
"80 35 OFFCURVE",
"30 25 CURVE",
"30 0 LINE"
);
},
{
closed = 1;
nodes = (
"391 348 OFFCURVE",
"409 397 OFFCURVE",
"409 413 CURVE SMOOTH",
"409 445 OFFCURVE",
"389 490 OFFCURVE",
"332 490 CURVE SMOOTH",
"274 490 OFFCURVE",
"230 431 OFFCURVE",
"187 381 CURVE",
"224 395 LINE",
"148 395 LINE",
"148 346 LINE",
"200 346 LINE",
"230 382 OFFCURVE",
"243 400 OFFCURVE",
"274 400 CURVE SMOOTH",
"291 400 OFFCURVE",
"300 389 OFFCURVE",
"300 381 CURVE SMOOTH",
"300 362 OFFCURVE",
"319 348 OFFCURVE",
"348 348 CURVE SMOOTH"
);
}
);
width = 429;
}
);
unicode = 0072;
userData = {
com.fontlab.hintData = {
hhints = (
{
position = 0;
width = 21;
}
);
vhints = (
{
position = 100;
width = 100;
}
);
};
};
},
{
color = 11;
glyphname = s;
lastChange = "2018-07-07 03:14:17 +0000";
layers = (
{
layerId = "EE8FC948-6E49-42F4-ACA5-5A0A3F8AB331";
paths = (
{
closed = 1;
nodes = (
"347.49 -20.24 OFFCURVE",
"418.003 36.489 OFFCURVE",
"418.003 129 CURVE SMOOTH",
"418.003 226.56 OFFCURVE",
"344.99 258.524 OFFCURVE",
"260.003 288.897 CURVE SMOOTH",
"190.693 313.667 OFFCURVE",
"122.283 337 OFFCURVE",
"122.283 378.84 CURVE SMOOTH",
"122.283 421.858 OFFCURVE",
"159.43 446 OFFCURVE",
"221.783 446 CURVE SMOOTH",
"290.867 446 OFFCURVE",
"331.062 411.838 OFFCURVE",
"349.902 335.02 CURVE",
"382.762 335.02 LINE",
"382.76 449.5 LINE",
"338.059 480.24 OFFCURVE",
"283.692 495 OFFCURVE",
"219.661 495 CURVE SMOOTH",
"116.721 495 OFFCURVE",
"45 437.915 OFFCURVE",
"45 357 CURVE SMOOTH",
"45 253.478 OFFCURVE",
"146.961 211.47 OFFCURVE",
"226.001 182.29 CURVE SMOOTH",
"290.506 158.476 OFFCURVE",
"344.601 144.026 OFFCURVE",
"344.601 103.24 CURVE SMOOTH",
"344.601 60.357 OFFCURVE",
"295.969 28.98 OFFCURVE",
"228.141 28.98 CURVE SMOOTH",
"153.326 28.98 OFFCURVE",
"107.19 74.205 OFFCURVE",
"94.722 156.24 CURVE",
"59.742 156.24 LINE",
"59.742 22.68 LINE",
"105.192 -2.804 OFFCURVE",
"175.76 -20.24 OFFCURVE",
"235.562 -20.24 CURVE SMOOTH"
);
}
);
width = 463;
}
);
unicode = 0073;
userData = {
com.fontlab.hintData = {
hhints = (
{
position = -20;
width = 49;
},
{
position = 446;
width = 49;
}
);
vhints = (
{
position = 45;
width = 77;
},
{
position = 60;
width = 35;
},
{
position = 345;
width = 73;
},
{
position = 350;
width = 33;
}
);
};
};
},
{
color = 11;
glyphname = t;
lastChange = "2018-07-07 13:19:04 +0000";
layers = (
{
layerId = "EE8FC948-6E49-42F4-ACA5-5A0A3F8AB331";
paths = (
{
closed = 1;
nodes = (
"250 -20 OFFCURVE",
"270 -15 OFFCURVE",
"310 0 CURVE",
"310 30 LINE",
"265 30 LINE SMOOTH",
"220 30 OFFCURVE",
"190 68 OFFCURVE",
"190 153 CURVE SMOOTH",
"190 440 LINE",
"293 450 LINE",
"293 480 LINE",
"190 480 LINE",
"190 590 LINE",
"160 600 LINE",
"135 540 OFFCURVE",
"120 500 OFFCURVE",
"10 470 CURVE",
"10 440 LINE",
"90 440 LINE",
"90 113 LINE SMOOTH",
"90 26 OFFCURVE",
"140 -20 OFFCURVE",
"205 -20 CURVE SMOOTH"
);
}
);
width = 330;
}
);
unicode = 0074;
userData = {
com.fontlab.hintData = {
hhints = (
{
position = -20;
width = 50;
},
{
position = 0;
width = 30;
},
{
position = 440;
width = 40;
},
{
position = 440;
width = 30;
}
);
vhints = (
{
position = 90;
width = 100;
},
{
position = 160;
width = 30;
}
);
};
};
},
{
color = 11;
glyphname = u;
lastChange = "2018-07-07 23:15:04 +0000";
layers = (
{
anchors = (
{
name = "Anchor-1";
position = "{270, 580}";
},
{
name = Anchor1;
position = "{270, 580}";
}
);
layerId = "EE8FC948-6E49-42F4-ACA5-5A0A3F8AB331";
paths = (
{
closed = 1;
nodes = (
"85 400 LINE",
"85 140 LINE SMOOTH",
"85 50 OFFCURVE",
"145 -10 OFFCURVE",
"245 -10 CURVE SMOOTH",
"295 -10 OFFCURVE",
"350 29 OFFCURVE",
"385 79 CURVE",
"385 19 OFFCURVE",
"411 -15 OFFCURVE",
"471 -15 CURVE SMOOTH",
"497 -15 OFFCURVE",
"532 3 OFFCURVE",
"547 43 CURVE",
"530 60 LINE",
"522 52 OFFCURVE",
"515 50 OFFCURVE",
"505 50 CURVE SMOOTH",
"495 50 OFFCURVE",
"485 55 OFFCURVE",
"485 80 CURVE SMOOTH",
"485 480 LINE",
"455 490 LINE",
"325 445 LINE",
"325 425 LINE",
"385 400 LINE",
"385 150 LINE SMOOTH",
"385 89 OFFCURVE",
"328 50 OFFCURVE",
"285 50 CURVE SMOOTH",
"220 50 OFFCURVE",
"185 85 OFFCURVE",
"185 150 CURVE SMOOTH",
"185 480 LINE",
"155 490 LINE",
"25 445 LINE",
"25 425 LINE"
);
}
);
width = 565;
}
);
unicode = 0075;
userData = {
com.fontlab.hintData = {
hhints = (
{
position = -10;
width = 60;
},
{
position = 450;
width = 30;
}
);
vhints = (
{
position = 85;
width = 100;
},
{
position = 385;
width = 100;
}
);
};
};
},
{
color = 11;
glyphname = v;
lastChange = "2018-07-07 03:14:17 +0000";
layers = (
{
layerId = "EE8FC948-6E49-42F4-ACA5-5A0A3F8AB331";
paths = (
{
closed = 1;
nodes = (
"288 -20 LINE",
"460 395 LINE SMOOTH",
"474.579 430.177 OFFCURVE",
"500 450 OFFCURVE",
"530 455 CURVE",
"530 480 LINE",
"340 480 LINE",
"340 455 LINE",
"370 450 OFFCURVE",
"400 430 OFFCURVE",
"400 410 CURVE SMOOTH",
"400 380 OFFCURVE",
"392.213 359.914 OFFCURVE",
"372 310 CURVE SMOOTH",
"274 68 LINE",
"293 68 LINE",
"200 310 LINE SMOOTH",
"180.682 360.268 OFFCURVE",
"170 380 OFFCURVE",
"170 410 CURVE SMOOTH",
"170 430 OFFCURVE",
"200 450 OFFCURVE",
"230 455 CURVE",
"230 480 LINE",
"-10 480 LINE",
"-10 455 LINE",
"20 450 OFFCURVE",
"41 430 OFFCURVE",
"55 395 CURVE SMOOTH",
"225 -20 LINE"
);
}
);
width = 520;
}
);
unicode = 0076;
userData = {
com.fontlab.hintData = {
hhints = (
{
position = 0;
width = 21;
},
{
position = 448;
width = 32;
},
{
position = 455;
width = 25;
}
);
};
};
},
{
color = 11;
glyphname = w;
lastChange = "2018-07-07 23:15:37 +0000";
layers = (
{
layerId = "EE8FC948-6E49-42F4-ACA5-5A0A3F8AB331";
paths = (
{
closed = 1;
nodes = (
"583 -20 LINE",
"762 395 LINE SMOOTH",
"777 430 OFFCURVE",
"802 450 OFFCURVE",
"832 455 CURVE",
"832 480 LINE",
"642 480 LINE",
"642 455 LINE",
"672 450 OFFCURVE",
"702 430 OFFCURVE",
"702 410 CURVE SMOOTH",
"702 380 OFFCURVE",
"695 360 OFFCURVE",
"674 310 CURVE SMOOTH",
"577 78 LINE",
"591 78 LINE",
"502 310 LINE SMOOTH",
"483 360 OFFCURVE",
"472 380 OFFCURVE",
"472 410 CURVE SMOOTH",
"472 430 OFFCURVE",
"502 450 OFFCURVE",
"532 455 CURVE",
"532 480 LINE",
"292 480 LINE",
"292 455 LINE",
"322 450 OFFCURVE",
"343 430 OFFCURVE",
"357 395 CURVE SMOOTH",
"527 -20 LINE"
);
},
{
closed = 1;
nodes = (
"299 -20 LINE",
"434 292 LINE",
"408 352 LINE",
"293 78 LINE",
"307 78 LINE",
"218 310 LINE SMOOTH",
"199 360 OFFCURVE",
"188 380 OFFCURVE",
"188 410 CURVE SMOOTH",
"188 430 OFFCURVE",
"218 450 OFFCURVE",
"248 455 CURVE",
"248 480 LINE",
"8 480 LINE",
"8 455 LINE",
"38 450 OFFCURVE",
"59 430 OFFCURVE",
"73 395 CURVE SMOOTH",
"243 -20 LINE"
);
}
);
width = 840;
}
);
unicode = 0077;
userData = {
com.fontlab.hintData = {
hhints = (
{
position = 0;
width = 21;
},
{
position = 448;
width = 32;
},
{
position = 455;
width = 25;
}
);
};
};
},
{
color = 11;
glyphname = x;
lastChange = "2018-07-07 03:14:17 +0000";
layers = (
{
layerId = "EE8FC948-6E49-42F4-ACA5-5A0A3F8AB331";
paths = (
{
closed = 1;
nodes = (
"525 0 LINE",
"525 25 LINE",
"475 35 OFFCURVE",
"457 50 OFFCURVE",
"430 90 CURVE SMOOTH",
"230 380 LINE SMOOTH",
"216 400 OFFCURVE",
"210 410 OFFCURVE",
"210 420 CURVE SMOOTH",
"210 440 OFFCURVE",
"230 450 OFFCURVE",
"260 455 CURVE",
"260 480 LINE",
"25 480 LINE",
"25 455 LINE",
"55 450 OFFCURVE",
"84 433 OFFCURVE",
"110 395 CURVE SMOOTH",
"305 110 LINE SMOOTH",
"319 90 OFFCURVE",
"330 70 OFFCURVE",
"330 60 CURVE SMOOTH",
"330 40 OFFCURVE",
"315 30 OFFCURVE",
"285 25 CURVE",
"285 0 LINE"
);
},
{
closed = 1;
nodes = (
"200 0 LINE",
"200 25 LINE",
"170 30 OFFCURVE",
"160 40 OFFCURVE",
"160 60 CURVE SMOOTH",
"160 70 OFFCURVE",
"165.159 84.882 OFFCURVE",
"180 105 CURVE SMOOTH",
"270 227 LINE",
"250 254 LINE",
"115 90 LINE SMOOTH",
"82.444 50.451 OFFCURVE",
"50 35 OFFCURVE",
"10 25 CURVE",
"10 0 LINE"
);
},
{
closed = 1;
nodes = (
"415 395 LINE SMOOTH",
"441.892 431.835 OFFCURVE",
"475 450 OFFCURVE",
"505 455 CURVE",
"505 480 LINE",
"325 480 LINE",
"325 455 LINE",
"355 450 OFFCURVE",
"370 440 OFFCURVE",
"370 420 CURVE SMOOTH",
"370 410 OFFCURVE",
"364.124 395.628 OFFCURVE",
"350 375 CURVE SMOOTH",
"274 264 LINE",
"296 232 LINE"
);
}
);
width = 535;
}
);
unicode = 0078;
userData = {
com.fontlab.hintData = {
hhints = (
{
position = 0;
width = 25;
},
{
position = 455;
width = 25;
}
);
};
};
},
{
color = 11;
glyphname = y;
lastChange = "2018-07-07 03:14:17 +0000";
layers = (
{
anchors = (
{
name = Anchor1;
position = "{290, 580}";
}
);
layerId = "EE8FC948-6E49-42F4-ACA5-5A0A3F8AB331";
paths = (
{
closed = 1;
nodes = (
"190 -220 OFFCURVE",
"240 -140 OFFCURVE",
"300 0 CURVE SMOOTH",
"470 395 LINE SMOOTH",
"485 430 OFFCURVE",
"510 450 OFFCURVE",
"540 455 CURVE",
"540 480 LINE",
"350 480 LINE",
"350 455 LINE",
"380 450 OFFCURVE",
"410 430 OFFCURVE",
"410 410 CURVE SMOOTH",
"410 380 OFFCURVE",
"402.773 359.684 OFFCURVE",
"382 310 CURVE SMOOTH",
"285 78 LINE",
"295 78 LINE",
"206 310 LINE SMOOTH",
"186.712 360.279 OFFCURVE",
"176 380 OFFCURVE",
"176 410 CURVE SMOOTH",
"176 430 OFFCURVE",
"206 450 OFFCURVE",
"236 455 CURVE",
"236 480 LINE",
"0 480 LINE",
"0 455 LINE",
"30 450 OFFCURVE",
"50.495 429.794 OFFCURVE",
"65 395 CURVE SMOOTH",
"238 -20 LINE",
"218 -70 OFFCURVE",
"190 -136 OFFCURVE",
"160 -136 CURVE SMOOTH",
"130 -136 OFFCURVE",
"120 -112 OFFCURVE",
"90 -112 CURVE SMOOTH",
"60 -112 OFFCURVE",
"32 -130 OFFCURVE",
"32 -165 CURVE SMOOTH",
"32 -200 OFFCURVE",
"65 -220 OFFCURVE",
"110 -220 CURVE SMOOTH"
);
}
);
width = 540;
}
);
unicode = 0079;
userData = {
com.fontlab.hintData = {
hhints = (
{
position = -220;
width = 110;
},
{
position = 448;
width = 32;
},
{
position = 455;
width = 25;
}
);
};
};
},
{
color = 11;
glyphname = z;
lastChange = "2018-07-07 03:14:17 +0000";
layers = (
{
layerId = "EE8FC948-6E49-42F4-ACA5-5A0A3F8AB331";
paths = (
{
closed = 1;
nodes = (
"460 0 LINE",
"480 170 LINE",
"440 170 LINE",
"410 60 OFFCURVE",
"380 40 OFFCURVE",
"330 40 CURVE SMOOTH",
"105.99 40 LINE",
"137 18 LINE",
"460 450 LINE",
"460 480 LINE",
"114.632 480 LINE",
"79.424 496 LINE",
"50 496 LINE",
"50 320 LINE",
"90 320 LINE",
"110 400 OFFCURVE",
"130 440 OFFCURVE",
"219 440 CURVE SMOOTH",
"367.006 440 LINE",
"352 465 LINE",
"30 30 LINE",
"30 0 LINE"
);
}
);
width = 515;
}
);
unicode = 007A;
userData = {
com.fontlab.hintData = {
hhints = (
{
position = 0;
width = 40;
},
{
position = 440;
width = 40;
}
);
vhints = (
{
position = 50;
width = 40;
},
{
position = 440;
width = 40;
}
);
};
};
},
{
color = 11;
glyphname = braceleft;
lastChange = "2018-07-07 03:14:17 +0000";
layers = (
{
layerId = "EE8FC948-6E49-42F4-ACA5-5A0A3F8AB331";
paths = (
{
closed = 1;
nodes = (
"352 -166 LINE",
"277.514 -150.275 OFFCURVE",
"246 -113.034 OFFCURVE",
"246 -70 CURVE SMOOTH",
"246 -24.666 OFFCURVE",
"264 17.241 OFFCURVE",
"264 84 CURVE SMOOTH",
"264 155 OFFCURVE",
"215.777 221 OFFCURVE",
"140 254 CURVE",
"215.777 287 OFFCURVE",
"264 353 OFFCURVE",
"264 424 CURVE SMOOTH",
"264 490.701 OFFCURVE",
"246 532.722 OFFCURVE",
"246 578 CURVE SMOOTH",
"246 621.033 OFFCURVE",
"277.514 658.274 OFFCURVE",
"352 674 CURVE",
"352 707 LINE",
"245 693 OFFCURVE",
"169 614 OFFCURVE",
"169 519 CURVE SMOOTH",
"169 465.658 OFFCURVE",
"192 417.012 OFFCURVE",
"192 368.999 CURVE SMOOTH",
"192 316.999 OFFCURVE",
"146 273.999 OFFCURVE",
"80 264.999 CURVE",
"80 243 LINE",
"146 234 OFFCURVE",
"192 191 OFFCURVE",
"192 139 CURVE SMOOTH",
"192 91.969 OFFCURVE",
"169 42.056 OFFCURVE",
"169 -11 CURVE SMOOTH",
"169 -106 OFFCURVE",
"245 -185 OFFCURVE",
"352 -199 CURVE"
);
}
);
width = 392;
}
);
unicode = 007B;
userData = {
com.fontlab.hintData = {
hhints = (
{
position = -199;
width = 33;
},
{
position = 243;
width = 22;
},
{
position = 674;
width = 33;
}
);
vhints = (
{
position = 169;
width = 77;
},
{
position = 192;
width = 72;
}
);
};
};
},
{
color = 11;
glyphname = bar;
lastChange = "2018-07-07 03:14:17 +0000";
layers = (
{
layerId = "EE8FC948-6E49-42F4-ACA5-5A0A3F8AB331";
paths = (
{
closed = 1;
nodes = (
"150 -200 LINE",
"150 700 LINE",
"80 700 LINE",
"80 -200 LINE"
);
}
);
width = 230;
}
);
unicode = 007C;
userData = {
com.fontlab.hintData = {
hhints = (
{
position = 680;
width = 20;
}
);
vhints = (
{
position = 80;
width = 70;
}
);
};
};
},
{
color = 11;
glyphname = braceright;
lastChange = "2018-07-07 03:14:17 +0000";
layers = (
{
layerId = "EE8FC948-6E49-42F4-ACA5-5A0A3F8AB331";
paths = (
{
closed = 1;
nodes = (
"147 -185 OFFCURVE",
"223 -106 OFFCURVE",
"223 -11 CURVE SMOOTH",
"223 42 OFFCURVE",
"200 92 OFFCURVE",
"200 139 CURVE SMOOTH",
"200 191 OFFCURVE",
"246 234 OFFCURVE",
"312 243 CURVE",
"312 265 LINE",
"246 274 OFFCURVE",
"200 317 OFFCURVE",
"200 369 CURVE SMOOTH",
"200 417 OFFCURVE",
"223 466 OFFCURVE",
"223 519 CURVE SMOOTH",
"223 614 OFFCURVE",
"147 693 OFFCURVE",
"40 707 CURVE",
"40 674 LINE",
"114 658 OFFCURVE",
"146 621 OFFCURVE",
"146 578 CURVE SMOOTH",
"146 533 OFFCURVE",
"128 491 OFFCURVE",
"128 424 CURVE SMOOTH",
"128 353 OFFCURVE",
"176 287 OFFCURVE",
"252 254 CURVE",
"176 221 OFFCURVE",
"128 155 OFFCURVE",
"128 84 CURVE SMOOTH",
"128 17 OFFCURVE",
"146 -25 OFFCURVE",
"146 -70 CURVE SMOOTH",
"146 -113 OFFCURVE",
"114 -150 OFFCURVE",
"40 -166 CURVE",
"40 -199 LINE"
);
}
);
width = 392;
}
);
unicode = 007D;
userData = {
com.fontlab.hintData = {
hhints = (
{
position = -199;
width = 33;
},
{
position = 243;
width = 22;
},
{
position = 674;
width = 33;
}
);
vhints = (
{
position = 128;
width = 72;
},
{
position = 146;
width = 77;
}
);
};
};
},
{
color = 11;
glyphname = asciitilde;
lastChange = "2018-07-07 03:14:17 +0000";
layers = (
{
layerId = "EE8FC948-6E49-42F4-ACA5-5A0A3F8AB331";
paths = (
{
closed = 1;
nodes = (
"446 242 OFFCURVE",
"497 304.931 OFFCURVE",
"500 405 CURVE",
"461 405 LINE",
"455.768 352.146 OFFCURVE",
"428.732 321 OFFCURVE",
"386 321 CURVE SMOOTH",
"362 321 OFFCURVE",
"337 327 OFFCURVE",
"282 352 CURVE SMOOTH",
"251 366 OFFCURVE",
"209 382 OFFCURVE",
"185 391 CURVE SMOOTH",
"143 406 OFFCURVE",
"122 411 OFFCURVE",
"95 411 CURVE SMOOTH",
"56 411 OFFCURVE",
"18 389.182 OFFCURVE",
"-5 351 CURVE SMOOTH",
"-22 325 OFFCURVE",
"-29 297 OFFCURVE",
"-32 248 CURVE",
"8 248 LINE",
"15.849 302.667 OFFCURVE",
"41.14 330 OFFCURVE",
"83 330 CURVE SMOOTH",
"106 330 OFFCURVE",
"133 322 OFFCURVE",
"185 300 CURVE SMOOTH",
"308 249 OFFCURVE",
"330 242 OFFCURVE",
"369 242 CURVE SMOOTH"
);
}
);
width = 469;
}
);
unicode = 007E;
userData = {
com.fontlab.hintData = {
hhints = (
{
position = 242;
width = 79;
},
{
position = 330;
width = 81;
}
);
vhints = (
{
position = -32;
width = 40;
},
{
position = 461;
width = 39;
}
);
};
};
},
{
color = 11;
glyphname = exclamdown;
lastChange = "2018-07-07 03:14:17 +0000";
layers = (
{
layerId = "EE8FC948-6E49-42F4-ACA5-5A0A3F8AB331";
paths = (
{
closed = 1;
nodes = (
"196.385 -220 OFFCURVE",
"233 -196 OFFCURVE",
"233 -160 CURVE SMOOTH",
"233 -110 LINE",
"200 290 LINE",
"130 290 LINE",
"90 -110 LINE",
"90 -160 LINE SMOOTH",
"90 -196 OFFCURVE",
"130.385 -220 OFFCURVE",
"165 -220 CURVE SMOOTH"
);
},
{
closed = 1;
nodes = (
"210 380 OFFCURVE",
"250 415 OFFCURVE",
"250 465 CURVE SMOOTH",
"250 515 OFFCURVE",
"210 550 OFFCURVE",
"165 550 CURVE SMOOTH",
"120 550 OFFCURVE",
"80 515 OFFCURVE",
"80 465 CURVE SMOOTH",
"80 415 OFFCURVE",
"120 380 OFFCURVE",
"165 380 CURVE SMOOTH"
);
}
);
width = 330;
}
);
unicode = 00A1;
userData = {
com.fontlab.hintData = {
hhints = (
{
position = 380;
width = 170;
}
);
vhints = (
{
position = 80;
width = 170;
},
{
position = 90;
width = 143;
}
);
};
};
},
{
color = 11;
glyphname = cent;
lastChange = "2018-07-07 03:14:17 +0000";
layers = (
{
layerId = "EE8FC948-6E49-42F4-ACA5-5A0A3F8AB331";
paths = (
{
closed = 1;
nodes = (
"127 -120 LINE",
"169.246 1.415 LINE",
"196.011 -9.686 OFFCURVE",
"225.186 -15 OFFCURVE",
"255 -15 CURVE SMOOTH",
"360 -15 OFFCURVE",
"420 45 OFFCURVE",
"455 90 CURVE",
"435 110 LINE",
"410 85 OFFCURVE",
"350 55 OFFCURVE",
"305 55 CURVE SMOOTH",
"267.721 55 OFFCURVE",
"231.528 69.114 OFFCURVE",
"203.504 99.872 CURVE",
"319.179 432.327 LINE",
"329.37 419.331 OFFCURVE",
"335 401.354 OFFCURVE",
"335 380 CURVE SMOOTH",
"335 335 LINE",
"350 325 OFFCURVE",
"369 320 OFFCURVE",
"390 320 CURVE SMOOTH",
"420 320 OFFCURVE",
"445 340 OFFCURVE",
"445 380 CURVE SMOOTH",
"445 441.593 OFFCURVE",
"400.542 476.512 OFFCURVE",
"339.01 489.32 CURVE",
"381 610 LINE",
"337 610 LINE",
"296.84 494.58 LINE",
"291.296 494.861 OFFCURVE",
"285.678 495 OFFCURVE",
"280 495 CURVE SMOOTH",
"155 495 OFFCURVE",
"40 395 OFFCURVE",
"40 235 CURVE SMOOTH",
"40 129.125 OFFCURVE",
"77.7 59.853 OFFCURVE",
"132.285 21.647 CURVE",
"83 -120 LINE"
);
},
{
closed = 1;
nodes = (
"159.275 177.114 OFFCURVE",
"150 220.492 OFFCURVE",
"150 275 CURVE SMOOTH",
"150 405 OFFCURVE",
"220 455 OFFCURVE",
"270 455 CURVE SMOOTH",
"274.419 455 OFFCURVE",
"278.654 454.634 OFFCURVE",
"282.693 453.922 CURVE",
"174.781 143.78 LINE"
);
}
);
width = 475;
}
);
unicode = 00A2;
userData = {
com.fontlab.hintData = {
hhints = (
{
position = -15;
width = 70;
},
{
position = 455;
width = 40;
}
);
vhints = (
{
position = 40;
width = 110;
},
{
position = 335;
width = 110;
}
);
};
};
},
{
color = 11;
glyphname = sterling;
lastChange = "2018-07-07 03:14:17 +0000";
layers = (
{
layerId = "EE8FC948-6E49-42F4-ACA5-5A0A3F8AB331";
paths = (
{
closed = 1;
nodes = (
"505.833 -192.666 OFFCURVE",
"606.833 -143.833 OFFCURVE",
"606.833 -27.833 CURVE SMOOTH",
"606.833 8.5 OFFCURVE",
"584 36.167 OFFCURVE",
"554.667 36.167 CURVE SMOOTH",
"528.334 36.167 OFFCURVE",
"507.334 12.5 OFFCURVE",
"509.001 -15 CURVE SMOOTH",
"510.698 -43.006 OFFCURVE",
"544.834 -56.333 OFFCURVE",
"544.834 -88.666 CURVE SMOOTH",
"544.834 -104.712 OFFCURVE",
"525.888 -118.166 OFFCURVE",
"502.168 -118.166 CURVE SMOOTH",
"424.113 -118.166 OFFCURVE",
"380.01 -9.666 OFFCURVE",
"270.5 -9.666 CURVE SMOOTH",
"248.5 -9.666 OFFCURVE",
"233.313 -11.362 OFFCURVE",
"204 -20 CURVE",
"244.098 51.969 OFFCURVE",
"258.02 86.388 OFFCURVE",
"282 174.001 CURVE",
"417 174.001 LINE",
"427.167 218.168 LINE",
"294.167 218.168 LINE",
"309.165 274.22 OFFCURVE",
"321.637 329.033 OFFCURVE",
"332.619 380.001 CURVE SMOOTH",
"366.268 543.542 OFFCURVE",
"393.759 667.834 OFFCURVE",
"469 667.834 CURVE SMOOTH",
"508.623 667.834 OFFCURVE",
"531.746 644.852 OFFCURVE",
"551.333 622.417 CURVE SMOOTH",
"563.284 608.729 OFFCURVE",
"580 600.369 OFFCURVE",
"595 600.369 CURVE SMOOTH",
"615.269 600.369 OFFCURVE",
"632.833 614.185 OFFCURVE",
"632.833 648.501 CURVE SMOOTH",
"632.833 687.168 OFFCURVE",
"581.492 715.002 OFFCURVE",
"506.333 715.002 CURVE SMOOTH",
"385.224 715.002 OFFCURVE",
"304.601 596.702 OFFCURVE",
"238.999 425.002 CURVE SMOOTH",
"212.999 360.002 OFFCURVE",
"195.11 300.521 OFFCURVE",
"172.999 218.17 CURVE",
"72.166 218.17 LINE",
"64.666 174.003 LINE",
"161.666 174.003 LINE",
"139.063 92.003 OFFCURVE",
"135.909 56.003 OFFCURVE",
"120.666 -48.33 CURVE",
"66.871 -78.202 OFFCURVE",
"33.333 -113.479 OFFCURVE",
"33.333 -152.333 CURVE SMOOTH",
"33.333 -173.833 OFFCURVE",
"51 -190.833 OFFCURVE",
"71.5 -190.833 CURVE SMOOTH",
"99.333 -190.833 OFFCURVE",
"135 -155.833 OFFCURVE",
"173.833 -78.333 CURVE",
"183.7 -76.31 OFFCURVE",
"193.062 -75.507 OFFCURVE",
"202 -75.507 CURVE SMOOTH",
"300 -75.507 OFFCURVE",
"346.669 -192.666 OFFCURVE",
"447 -192.666 CURVE SMOOTH"
);
}
);
width = 677;
}
);
unicode = 00A3;
userData = {
com.fontlab.hintData = {
hhints = (
{
position = -193;
width = 74;
},
{
position = -76;
width = 66;
},
{
position = 174;
width = 44;
},
{
position = 668;
width = 47;
}
);
vhints = (
{
position = 545;
width = 62;
}
);
};
};
},
{
color = 11;
glyphname = currency;
lastChange = "2018-07-07 03:14:17 +0000";
layers = (
{
layerId = "EE8FC948-6E49-42F4-ACA5-5A0A3F8AB331";
paths = (
{
closed = 1;
nodes = (
"204.333 149.667 LINE",
"251 118.334 OFFCURVE",
"284.667 106.667 OFFCURVE",
"335.334 106.667 CURVE SMOOTH",
"385.001 106.667 OFFCURVE",
"417.334 117.334 OFFCURVE",
"464.668 149.334 CURVE",
"527.668 87 LINE",
"572.668 132.334 LINE",
"509.668 195.334 LINE",
"542 242.001 OFFCURVE",
"553 275.334 OFFCURVE",
"553 324.668 CURVE SMOOTH",
"553 374.334 OFFCURVE",
"542 408.334 OFFCURVE",
"509.668 455.334 CURVE",
"572.668 518.668 LINE",
"527.668 564 LINE",
"464.668 500.334 LINE",
"416.668 533 OFFCURVE",
"384.335 544 OFFCURVE",
"333.668 544 CURVE SMOOTH",
"284.668 544 OFFCURVE",
"252.334 533 OFFCURVE",
"204.334 501.001 CURVE",
"141.001 564 LINE",
"95.334 518.668 LINE",
"159.001 456.001 LINE",
"126.668 408.001 OFFCURVE",
"115.668 374.668 OFFCURVE",
"115.668 325.335 CURVE SMOOTH",
"115.668 275.335 OFFCURVE",
"126.668 242.002 OFFCURVE",
"159.001 195.335 CURVE",
"95.333 132.333 LINE",
"141 87 LINE"
);
},
{
closed = 1;
nodes = (
"252.001 175.335 OFFCURVE",
"184.334 243.002 OFFCURVE",
"184.334 325.669 CURVE SMOOTH",
"184.334 407.669 OFFCURVE",
"252.001 475.335 OFFCURVE",
"334.668 475.335 CURVE SMOOTH",
"416.668 475.335 OFFCURVE",
"484.334 407.669 OFFCURVE",
"484.334 325.669 CURVE SMOOTH",
"484.334 242.669 OFFCURVE",
"416.668 175.335 OFFCURVE",
"334.668 175.335 CURVE SMOOTH"
);
}
);
width = 630;
}
);
unicode = 00A4;
userData = {
com.fontlab.hintData = {
hhints = (
{
position = 107;
width = 69;
},
{
position = 475;
width = 69;
}
);
vhints = (
{
position = 116;
width = 69;
},
{
position = 484;
width = 69;
}
);
};
};
},
{
color = 11;
glyphname = yen;
lastChange = "2018-07-07 03:14:17 +0000";
layers = (
{
layerId = "EE8FC948-6E49-42F4-ACA5-5A0A3F8AB331";
paths = (
{
closed = 1;
nodes = (
"561 0 LINE",
"561 30 LINE",
"481 50 LINE SMOOTH",
"461 55 OFFCURVE",
"451 70 OFFCURVE",
"451 90 CURVE SMOOTH",
"451 276 LINE",
"705 276 LINE",
"705 316 LINE",
"457.825 316 LINE",
"546.187 466 LINE",
"705 466 LINE",
"705 506 LINE",
"569.75 506 LINE",
"621 593 LINE SMOOTH",
"634.615 615 OFFCURVE",
"649.438 636.417 OFFCURVE",
"680 650 CURVE SMOOTH",
"725 670 LINE",
"725 700 LINE",
"510 700 LINE",
"510 670 LINE",
"560 650 LINE SMOOTH",
"573.448 644.621 OFFCURVE",
"576 626 OFFCURVE",
"568 610 CURVE SMOOTH",
"509.659 506 LINE",
"344.569 506 LINE",
"282 610 LINE SMOOTH",
"274 624 OFFCURVE",
"278.591 643.284 OFFCURVE",
"289 650 CURVE SMOOTH",
"320 670 LINE",
"320 700 LINE",
"40 700 LINE",
"40 670 LINE",
"80 650 LINE SMOOTH",
"105.646 637.177 OFFCURVE",
"120.857 628 OFFCURVE",
"135 610 CURVE SMOOTH",
"202.814 506 LINE",
"60 506 LINE",
"60 466 LINE",
"228.896 466 LINE",
"326.704 316 LINE",
"60 316 LINE",
"60 276 LINE",
"341 276 LINE",
"341 90 LINE SMOOTH",
"341 70 OFFCURVE",
"331 55 OFFCURVE",
"311 50 CURVE SMOOTH",
"231 30 LINE",
"231 0 LINE"
);
},
{
closed = 1;
nodes = (
"368.634 466 LINE",
"487.22 466 LINE",
"430 364 LINE"
);
}
);
width = 765;
}
);
unicode = 00A5;
userData = {
com.fontlab.hintData = {
hhints = (
{
position = 0;
width = 30;
},
{
position = 245;
width = 77;
},
{
position = 276;
width = 40;
},
{
position = 466;
width = 40;
},
{
position = 680;
width = 20;
}
);
vhints = (
{
position = 341;
width = 110;
}
);
};
};
},
{
color = 11;
glyphname = brokenbar;
lastChange = "2018-07-07 03:14:17 +0000";
layers = (
{
layerId = "EE8FC948-6E49-42F4-ACA5-5A0A3F8AB331";
paths = (
{
closed = 1;
nodes = (
"150 396 LINE",
"150 700 LINE",
"80 700 LINE",
"80 396 LINE"
);
},
{
closed = 1;
nodes = (
"150 -200 LINE",
"150 103 LINE",
"80 103 LINE",
"80 -200 LINE"
);
}
);
width = 230;
}
);
unicode = 00A6;
userData = {
com.fontlab.hintData = {
hhints = (
{
position = 680;
width = 20;
}
);
vhints = (
{
position = 80;
width = 70;
}
);
};
};
},
{
color = 11;
glyphname = section;
lastChange = "2018-07-07 03:14:17 +0000";
layers = (
{
layerId = "EE8FC948-6E49-42F4-ACA5-5A0A3F8AB331";
paths = (
{
closed = 1;
nodes = (
"261.97 -185.27 OFFCURVE",
"325 -149 OFFCURVE",
"367 -81 CURVE SMOOTH",
"397.231 -32.054 OFFCURVE",
"406 49.231 OFFCURVE",
"406 90 CURVE SMOOTH",
"406 135.978 OFFCURVE",
"393.306 182.88 OFFCURVE",
"372.5 226.5 CURVE SMOOTH",
"350.22 273.212 OFFCURVE",
"320.335 323.665 OFFCURVE",
"284 379 CURVE SMOOTH",
"255.251 422.782 OFFCURVE",
"224.177 478.609 OFFCURVE",
"197 524.5 CURVE SMOOTH",
"185.575 543.791 OFFCURVE",
"177.657 559.203 OFFCURVE",
"177.657 584 CURVE SMOOTH",
"177.657 617.238 OFFCURVE",
"197.455 641 OFFCURVE",
"233 641 CURVE SMOOTH",
"268.407 641 OFFCURVE",
"300 616.212 OFFCURVE",
"300 580 CURVE SMOOTH",
"300 563.333 OFFCURVE",
"295.333 550.167 OFFCURVE",
"286 540.5 CURVE SMOOTH",
"278.459 532.69 OFFCURVE",
"275.292 525.777 OFFCURVE",
"275.292 520 CURVE SMOOTH",
"275.292 508 OFFCURVE",
"290.95 501 OFFCURVE",
"315 501 CURVE SMOOTH",
"358.41 501 OFFCURVE",
"385 538.18 OFFCURVE",
"385 581 CURVE SMOOTH",
"385 644.865 OFFCURVE",
"329.285 680 OFFCURVE",
"269 680 CURVE SMOOTH",
"178 680 OFFCURVE",
"110.749 642.022 OFFCURVE",
"72.5 582 CURVE SMOOTH",
"50.227 547.047 OFFCURVE",
"40 502 OFFCURVE",
"40 459 CURVE SMOOTH",
"40 401.171 OFFCURVE",
"53.796 336.154 OFFCURVE",
"77.5 282.5 CURVE SMOOTH",
"98.188 235.674 OFFCURVE",
"126.923 184.463 OFFCURVE",
"160 130 CURVE SMOOTH",
"204.837 64.623 OFFCURVE",
"245.262 3.216 OFFCURVE",
"266 -59 CURVE SMOOTH",
"280.704 -103.113 OFFCURVE",
"259.7 -144 OFFCURVE",
"214 -144 CURVE SMOOTH",
"178.593 -144 OFFCURVE",
"147 -119.212 OFFCURVE",
"147 -83 CURVE SMOOTH",
"147 -66.333 OFFCURVE",
"151.667 -53.167 OFFCURVE",
"161 -43.5 CURVE SMOOTH",
"168.11 -36.136 OFFCURVE",
"171.702 -29.571 OFFCURVE",
"171.702 -24 CURVE SMOOTH",
"171.702 -12.3 OFFCURVE",
"156.714 -6 OFFCURVE",
"132 -6 CURVE SMOOTH",
"88.59 -6 OFFCURVE",
"62 -42.25 OFFCURVE",
"62 -84 CURVE SMOOTH",
"62 -147.865 OFFCURVE",
"117.737 -181.371 OFFCURVE",
"178 -183 CURVE SMOOTH"
);
},
{
closed = 1;
nodes = (
"316.36 2.86 OFFCURVE",
"276.721 48.188 OFFCURVE",
"227 132 CURVE SMOOTH",
"186.689 199.95 OFFCURVE",
"154.167 256.667 OFFCURVE",
"132.5 304 CURVE SMOOTH",
"107.917 357.703 OFFCURVE",
"94.922 420.345 OFFCURVE",
"94.922 480 CURVE SMOOTH",
"94.922 520.368 OFFCURVE",
"108.114 563.804 OFFCURVE",
"137 598 CURVE",
"120.902 512.99 OFFCURVE",
"158.318 455.915 OFFCURVE",
"202.715 388 CURVE SMOOTH",
"222.765 357.329 OFFCURVE",
"245.88 320.752 OFFCURVE",
"264.781 292 CURVE SMOOTH",
"286.938 258.296 OFFCURVE",
"306.025 229.18 OFFCURVE",
"319.5 203 CURVE SMOOTH",
"340.021 163.13 OFFCURVE",
"348.174 116 OFFCURVE",
"348.174 72 CURVE SMOOTH",
"348.174 22.533 OFFCURVE",
"334.971 -26.838 OFFCURVE",
"308 -70 CURVE"
);
}
);
width = 446;
}
);
unicode = 00A7;
userData = {
com.fontlab.hintData = {
hhints = (
{
position = -183;
width = 39;
},
{
position = -26;
width = 20;
},
{
position = 641;
width = 39;
}
);
vhints = (
{
position = 40;
width = 55;
},
{
position = 62;
width = 85;
},
{
position = 300;
width = 85;
},
{
position = 348;
width = 58;
}
);
};
};
},
{
color = 11;
glyphname = dieresis;
lastChange = "2018-07-07 03:14:17 +0000";
layers = (
{
layerId = "EE8FC948-6E49-42F4-ACA5-5A0A3F8AB331";
paths = (
{
closed = 1;
nodes = (
"319.6 574.7 OFFCURVE",
"346 601.101 OFFCURVE",
"346 633 CURVE SMOOTH",
"346 664.899 OFFCURVE",
"319.6 691.3 OFFCURVE",
"287.699 691.3 CURVE SMOOTH",
"255.8 691.3 OFFCURVE",
"229.399 664.899 OFFCURVE",
"229.399 633 CURVE SMOOTH",
"229.399 601.101 OFFCURVE",
"255.8 574.7 OFFCURVE",
"287.699 574.7 CURVE SMOOTH"
);
},
{
closed = 1;
nodes = (
"130.399 574.7 OFFCURVE",
"156.8 601.101 OFFCURVE",
"156.8 633 CURVE SMOOTH",
"156.8 664.899 OFFCURVE",
"130.399 691.3 OFFCURVE",
"98.5 691.3 CURVE SMOOTH",
"66.6 691.3 OFFCURVE",
"40.199 664.899 OFFCURVE",
"40.199 633 CURVE SMOOTH",
"40.199 601.101 OFFCURVE",
"66.6 574.7 OFFCURVE",
"98.5 574.7 CURVE SMOOTH"
);
}
);
width = 386;
}
);
unicode = 00A8;
userData = {
com.fontlab.hintData = {
hhints = (
{
position = 575;
width = 117;
}
);
vhints = (
{
position = 40;
width = 117;
},
{
position = 229;
width = 117;
}
);
};
};
},
{
color = 11;
glyphname = copyright;
lastChange = "2018-07-07 03:14:17 +0000";
layers = (
{
layerId = "EE8FC948-6E49-42F4-ACA5-5A0A3F8AB331";
paths = (
{
closed = 1;
nodes = (
"571 -10 OFFCURVE",
"726 145 OFFCURVE",
"726 336 CURVE SMOOTH",
"726 527 OFFCURVE",
"571 682 OFFCURVE",
"380 682 CURVE SMOOTH",
"189 682 OFFCURVE",
"34 527 OFFCURVE",
"34 336 CURVE SMOOTH",
"34 145 OFFCURVE",
"189 -10 OFFCURVE",
"380 -10 CURVE SMOOTH"
);
},
{
closed = 1;
nodes = (
"393.52 103.55 LINE SMOOTH",
"447.992 103.55 OFFCURVE",
"494.092 121.006 OFFCURVE",
"532.12 150.17 CURVE",
"532.12 242.78 LINE",
"504.4 242.78 LINE",
"488.372 162.794 OFFCURVE",
"441.581 128.75 OFFCURVE",
"395.41 128.75 CURVE SMOOTH",
"389.11 128.75 LINE SMOOTH",
"311.803 128.75 OFFCURVE",
"239.8 186.044 OFFCURVE",
"239.8 342.95 CURVE SMOOTH",
"239.8 423.943 OFFCURVE",
"268.018 538.25 OFFCURVE",
"384.7 538.25 CURVE SMOOTH",
"395.41 538.25 LINE SMOOTH",
"441.581 538.25 OFFCURVE",
"488.372 504.206 OFFCURVE",
"504.4 424.22 CURVE",
"532.12 424.22 LINE",
"532.12 516.83 LINE",
"494.092 545.994 OFFCURVE",
"447.992 563.45 OFFCURVE",
"393.52 563.45 CURVE SMOOTH",
"251.53 563.45 OFFCURVE",
"164.2 460.183 OFFCURVE",
"164.2 329.09 CURVE SMOOTH",
"164.2 175.846 OFFCURVE",
"274.758 103.55 OFFCURVE",
"380.29 103.55 CURVE SMOOTH"
);
},
{
closed = 1;
nodes = (
"206 21 OFFCURVE",
"65 162 OFFCURVE",
"65 336 CURVE SMOOTH",
"65 510 OFFCURVE",
"206 651 OFFCURVE",
"380 651 CURVE SMOOTH",
"554 651 OFFCURVE",
"695 510 OFFCURVE",
"695 336 CURVE SMOOTH",
"695 162 OFFCURVE",
"554 21 OFFCURVE",
"380 21 CURVE SMOOTH"
);
}
);
width = 760;
}
);
unicode = 00A9;
userData = {
com.fontlab.hintData = {
hhints = (
{
position = -10;
width = 31;
},
{
position = 104;
width = 25;
},
{
position = 424;
width = 21;
},
{
position = 538;
width = 25;
},
{
position = 651;
width = 31;
}
);
vhints = (
{
position = 34;
width = 31;
},
{
position = 164;
width = 76;
},
{
position = 504;
width = 28;
},
{
position = 695;
width = 31;
}
);
};
};
},
{
color = 11;
glyphname = ordfeminine;
lastChange = "2018-07-07 03:14:17 +0000";
layers = (
{
layerId = "EE8FC948-6E49-42F4-ACA5-5A0A3F8AB331";
paths = (
{
closed = 1;
nodes = (
"141 388 OFFCURVE",
"165 403 OFFCURVE",
"183 433 CURVE",
"189 403 OFFCURVE",
"213 391 OFFCURVE",
"243 391 CURVE SMOOTH",
"273 391 OFFCURVE",
"291 406 OFFCURVE",
"303 424 CURVE",
"291 436 LINE",
"285 430 OFFCURVE",
"273 427 OFFCURVE",
"264 427 CURVE SMOOTH",
"255 427 OFFCURVE",
"243 436 OFFCURVE",
"243 454 CURVE SMOOTH",
"243 622 LINE SMOOTH",
"243 658 OFFCURVE",
"225 700 OFFCURVE",
"153 700 CURVE SMOOTH",
"69 700 OFFCURVE",
"39 658 OFFCURVE",
"39 634 CURVE SMOOTH",
"39 616 OFFCURVE",
"45 598 OFFCURVE",
"63 598 CURVE SMOOTH",
"75 598 OFFCURVE",
"93 604 OFFCURVE",
"105 616 CURVE",
"96 634 LINE SMOOTH",
"93.124 639.751 OFFCURVE",
"91.729 644.8 OFFCURVE",
"91.729 649.6 CURVE SMOOTH",
"91.729 669.202 OFFCURVE",
"113.751 679 OFFCURVE",
"138 679 CURVE SMOOTH",
"162 679 OFFCURVE",
"183 667 OFFCURVE",
"183 637 CURVE SMOOTH",
"183 580 LINE",
"93 550 OFFCURVE",
"21 532 OFFCURVE",
"21 472 CURVE SMOOTH",
"21 424 OFFCURVE",
"57 388 OFFCURVE",
"105 388 CURVE SMOOTH"
);
},
{
closed = 1;
nodes = (
"99 430 OFFCURVE",
"84 454 OFFCURVE",
"84 478 CURVE SMOOTH",
"84 514 OFFCURVE",
"105 529 OFFCURVE",
"183 559 CURVE",
"183 490 LINE SMOOTH",
"183 454 OFFCURVE",
"168 430 OFFCURVE",
"135 430 CURVE SMOOTH"
);
}
);
width = 313;
}
);
unicode = 00AA;
userData = {
com.fontlab.hintData = {
hhints = (
{
position = 388;
width = 42;
},
{
position = 679;
width = 21;
}
);
vhints = (
{
position = 21;
width = 63;
},
{
position = 39;
width = 53;
},
{
position = 183;
width = 60;
}
);
};
};
},
{
color = 11;
glyphname = logicalnot;
lastChange = "2018-07-07 03:14:17 +0000";
layers = (
{
layerId = "EE8FC948-6E49-42F4-ACA5-5A0A3F8AB331";
paths = (
{
closed = 1;
nodes = (
"601 179 LINE",
"601 480 LINE",
"66 480 LINE",
"66 410 LINE",
"531 410 LINE",
"531 179 LINE"
);
}
);
width = 667;
}
);
unicode = 00AC;
userData = {
com.fontlab.hintData = {
hhints = (
{
position = 410;
width = 70;
}
);
vhints = (
{
position = 531;
width = 70;
}
);
};
};
},
{
color = 11;
glyphname = registered;
lastChange = "2018-07-07 03:14:17 +0000";
layers = (
{
layerId = "EE8FC948-6E49-42F4-ACA5-5A0A3F8AB331";
paths = (
{
closed = 1;
nodes = (
"571 -10 OFFCURVE",
"726 145 OFFCURVE",
"726 336 CURVE SMOOTH",
"726 527 OFFCURVE",
"571 682 OFFCURVE",
"380 682 CURVE SMOOTH",
"189 682 OFFCURVE",
"34 527 OFFCURVE",
"34 336 CURVE SMOOTH",
"34 145 OFFCURVE",
"189 -10 OFFCURVE",
"380 -10 CURVE SMOOTH"
);
},
{
closed = 1;
nodes = (
"206 21 OFFCURVE",
"65 162 OFFCURVE",
"65 336 CURVE SMOOTH",
"65 510 OFFCURVE",
"206 651 OFFCURVE",
"380 651 CURVE SMOOTH",
"554 651 OFFCURVE",
"695 510 OFFCURVE",
"695 336 CURVE SMOOTH",
"695 162 OFFCURVE",
"554 21 OFFCURVE",
"380 21 CURVE SMOOTH"
);
},
{
closed = 1;
nodes = (
"369.675 142 LINE",
"369.675 159.325 LINE",
"323.475 170.875 LINE SMOOTH",
"311.925 173.763 OFFCURVE",
"306.15 182.425 OFFCURVE",
"306.15 193.975 CURVE SMOOTH",
"306.15 309.475 LINE",
"331.554 309.475 LINE",
"450.449 175.096 LINE SMOOTH",
"465.887 158.568 OFFCURVE",
"482.881 142 OFFCURVE",
"490.624 142 CURVE SMOOTH",
"601.253 142 LINE",
"601.253 159.325 LINE",
"575.731 159.325 OFFCURVE",
"554.852 174.119 OFFCURVE",
"529.065 192.82 CURVE",
"420.647 314.694 LINE",
"481.578 329.63 OFFCURVE",
"519.825 375.429 OFFCURVE",
"519.825 436.525 CURVE SMOOTH",
"519.825 500.05 OFFCURVE",
"485.175 546.25 OFFCURVE",
"375.45 546.25 CURVE SMOOTH",
"179.1 546.25 LINE",
"179.1 528.925 LINE",
"225.3 517.375 LINE SMOOTH",
"236.85 514.487 OFFCURVE",
"242.625 505.825 OFFCURVE",
"242.625 494.275 CURVE SMOOTH",
"242.625 193.975 LINE SMOOTH",
"242.625 182.425 OFFCURVE",
"236.85 173.763 OFFCURVE",
"225.3 170.875 CURVE SMOOTH",
"179.1 159.325 LINE",
"179.1 142 LINE"
);
},
{
closed = 1;
nodes = (
"306.15 500.05 LINE SMOOTH",
"306.15 517.375 OFFCURVE",
"317.7 523.15 OFFCURVE",
"329.25 523.15 CURVE SMOOTH",
"358.125 523.15 LINE SMOOTH",
"421.65 523.15 OFFCURVE",
"450.525 489.077 OFFCURVE",
"450.525 436.525 CURVE SMOOTH",
"450.525 384.707 OFFCURVE",
"426.848 336.617 OFFCURVE",
"362.168 336.617 CURVE SMOOTH",
"340.8 336.617 LINE",
"306.15 336.617 LINE"
);
}
);
width = 760;
}
);
unicode = 00AE;
userData = {
com.fontlab.hintData = {
hhints = (
{
position = -10;
width = 31;
},
{
position = 142;
width = 17;
},
{
position = 309;
width = 27;
},
{
position = 315;
width = 21;
},
{
position = 523;
width = 23;
},
{
position = 529;
width = 17;
},
{
position = 651;
width = 31;
}
);
vhints = (
{
position = 34;
width = 31;
},
{
position = 243;
width = 64;
},
{
position = 451;
width = 69;
},
{
position = 695;
width = 31;
}
);
};
};
},
{
color = 11;
glyphname = macron;
lastChange = "2018-07-07 03:14:17 +0000";
layers = (
{
layerId = "EE8FC948-6E49-42F4-ACA5-5A0A3F8AB331";
paths = (
{
closed = 1;
nodes = (
"322 580 LINE",
"322 650 LINE",
"11 650 LINE",
"11 580 LINE"
);
}
);
width = 333;
}
);
unicode = 00AF;
userData = {
com.fontlab.hintData = {
hhints = (
{
position = 580;
width = 70;
}
);
vhints = (
{
position = 11;
width = 311;
}
);
};
};
},
{
color = 11;
glyphname = degree;
lastChange = "2018-07-07 03:14:17 +0000";
layers = (
{
layerId = "EE8FC948-6E49-42F4-ACA5-5A0A3F8AB331";
paths = (
{
closed = 1;
nodes = (
"273 400 OFFCURVE",
"340 467 OFFCURVE",
"340 550 CURVE SMOOTH",
"340 633 OFFCURVE",
"273 700 OFFCURVE",
"190 700 CURVE SMOOTH",
"107 700 OFFCURVE",
"40 633 OFFCURVE",
"40 550 CURVE SMOOTH",
"40 467 OFFCURVE",
"107 400 OFFCURVE",
"190 400 CURVE SMOOTH"
);
},
{
closed = 1;
nodes = (
"135 448 OFFCURVE",
"88 495 OFFCURVE",
"88 550 CURVE SMOOTH",
"88 605 OFFCURVE",
"135 652 OFFCURVE",
"190 652 CURVE SMOOTH",
"245 652 OFFCURVE",
"292 605 OFFCURVE",
"292 550 CURVE SMOOTH",
"292 495 OFFCURVE",
"245 448 OFFCURVE",
"190 448 CURVE SMOOTH"
);
}
);
width = 380;
}
);
unicode = 00B0;
userData = {
com.fontlab.hintData = {
hhints = (
{
position = 400;
width = 48;
},
{
position = 652;
width = 48;
}
);
vhints = (
{
position = 40;
width = 48;
},
{
position = 292;
width = 48;
}
);
};
};
},
{
color = 11;
glyphname = plusminus;
lastChange = "2018-07-07 03:14:17 +0000";
layers = (
{
layerId = "EE8FC948-6E49-42F4-ACA5-5A0A3F8AB331";
paths = (
{
closed = 1;
nodes = (
"368 170 LINE",
"368 399 LINE",
"597 399 LINE",
"597 469 LINE",
"368 469 LINE",
"368 698 LINE",
"298 698 LINE",
"298 469 LINE",
"69 469 LINE",
"69 399 LINE",
"298 399 LINE",
"298 170 LINE"
);
},
{
closed = 1;
nodes = (
"597 0 LINE",
"597 70 LINE",
"69 70 LINE",
"69 0 LINE"
);
}
);
width = 667;
}
);
unicode = 00B1;
userData = {
com.fontlab.hintData = {
hhints = (
{
position = 0;
width = 70;
},
{
position = 399;
width = 70;
}
);
vhints = (
{
position = 298;
width = 70;
}
);
};
};
},
{
color = 11;
glyphname = acute;
lastChange = "2018-07-07 03:14:17 +0000";
layers = (
{
layerId = "EE8FC948-6E49-42F4-ACA5-5A0A3F8AB331";
paths = (
{
closed = 1;
nodes = (
"90 580 LINE",
"230 750 LINE",
"110 750 LINE",
"60 580 LINE"
);
}
);
width = 290;
}
);
unicode = 00B4;
userData = {
com.fontlab.hintData = {
hhints = (
{
position = 580;
width = 170;
}
);
vhints = (
{
position = 60;
width = 170;
}
);
};
};
},
{
color = 11;
glyphname = mu;
lastChange = "2018-07-07 03:14:17 +0000";
layers = (
{
layerId = "EE8FC948-6E49-42F4-ACA5-5A0A3F8AB331";
paths = (
{
closed = 1;
nodes = (
"120.484 -230 OFFCURVE",
"144 -203.015 OFFCURVE",
"144 -170 CURVE SMOOTH",
"144 -113.555 OFFCURVE",
"116 -84.215 OFFCURVE",
"116 34 CURVE",
"119 34 LINE",
"141.277 0.985 OFFCURVE",
"167.135 -15 OFFCURVE",
"207 -15 CURVE SMOOTH",
"269.143 -15 OFFCURVE",
"319.513 16.71 OFFCURVE",
"384 87 CURVE",
"395.725 11.385 OFFCURVE",
"420.893 -15 OFFCURVE",
"476 -15 CURVE SMOOTH",
"532.28 -15 OFFCURVE",
"587.655 25.865 OFFCURVE",
"590 110 CURVE",
"565 110 LINE",
"557.965 67.4 OFFCURVE",
"543.45 45 OFFCURVE",
"520 45 CURVE SMOOTH",
"501.239 45 OFFCURVE",
"484 62.66 OFFCURVE",
"484 101 CURVE SMOOTH",
"484 480 LINE",
"384 480 LINE",
"384 120 LINE",
"342.962 72.074 OFFCURVE",
"296.555 52 OFFCURVE",
"252 52 CURVE SMOOTH",
"196.893 52 OFFCURVE",
"172 87.67 OFFCURVE",
"172 175 CURVE SMOOTH",
"172 480 LINE",
"72 480 LINE",
"72 59.64 LINE SMOOTH",
"72 -90.525 OFFCURVE",
"40 -111.425 OFFCURVE",
"40 -170 CURVE SMOOTH",
"40 -205.145 OFFCURVE",
"59.515 -230 OFFCURVE",
"90 -230 CURVE SMOOTH"
);
}
);
width = 630;
}
);
unicode = 00B5;
userData = {
com.fontlab.hintData = {
hhints = (
{
position = -12;
width = 56;
},
{
position = -12;
width = 64;
},
{
position = 459;
width = 20;
}
);
vhints = (
{
position = 40;
width = 104;
},
{
position = 73;
width = 43;
},
{
position = 73;
width = 100;
},
{
position = 384;
width = 98;
},
{
position = 565;
width = 25;
}
);
};
};
},
{
color = 11;
glyphname = paragraph;
lastChange = "2018-07-07 03:14:17 +0000";
layers = (
{
layerId = "EE8FC948-6E49-42F4-ACA5-5A0A3F8AB331";
paths = (
{
closed = 1;
nodes = (
"323 -191 LINE",
"323 642 LINE",
"386 642 LINE",
"386 -191 LINE",
"436 -191 LINE",
"436 642 LINE",
"500 642 LINE",
"500 682 LINE",
"259 682 LINE SMOOTH",
"121 682 OFFCURVE",
"40 616 OFFCURVE",
"40 500 CURVE SMOOTH",
"40 359 OFFCURVE",
"141 314 OFFCURVE",
"273 314 CURVE",
"273 -191 LINE"
);
}
);
width = 540;
}
);
unicode = 00B6;
userData = {
com.fontlab.hintData = {
hhints = (
{
position = 642;
width = 40;
}
);
vhints = (
{
position = 40;
width = 283;
},
{
position = 273;
width = 50;
},
{
position = 386;
width = 50;
}
);
};
};
},
{
color = 11;
glyphname = periodcentered;
lastChange = "2018-07-07 03:14:17 +0000";
layers = (
{
layerId = "EE8FC948-6E49-42F4-ACA5-5A0A3F8AB331";
paths = (
{
closed = 1;
nodes = (
"197 250 OFFCURVE",
"233 281.5 OFFCURVE",
"233 326.5 CURVE SMOOTH",
"233 371.5 OFFCURVE",
"197 403 OFFCURVE",
"156.5 403 CURVE SMOOTH",
"116 403 OFFCURVE",
"80 371.5 OFFCURVE",
"80 326.5 CURVE SMOOTH",
"80 281.5 OFFCURVE",
"116 250 OFFCURVE",
"156.5 250 CURVE SMOOTH"
);
}
);
width = 313;
}
);
unicode = 00B7;
userData = {
com.fontlab.hintData = {
hhints = (
{
position = 250;
width = 153;
}
);
vhints = (
{
position = 80;
width = 153;
}
);
};
};
},
{
color = 11;
glyphname = cedilla;
lastChange = "2018-07-07 03:14:17 +0000";
layers = (
{
layerId = "EE8FC948-6E49-42F4-ACA5-5A0A3F8AB331";
paths = (
{
closed = 1;
nodes = (
"204 -214 OFFCURVE",
"258 -173 OFFCURVE",
"258 -120 CURVE SMOOTH",
"258 -88.082 OFFCURVE",
"235.118 -57.16 OFFCURVE",
"175.463 -52.039 CURVE",
"210 10 LINE",
"164 10 LINE",
"110 -87 LINE",
"156 -92 OFFCURVE",
"180 -111 OFFCURVE",
"180 -141 CURVE SMOOTH",
"180 -171 OFFCURVE",
"151 -195 OFFCURVE",
"116 -195 CURVE SMOOTH",
"107 -195 OFFCURVE",
"98 -194 OFFCURVE",
"80 -190 CURVE",
"76 -206 LINE",
"104 -212 OFFCURVE",
"117 -214 OFFCURVE",
"134 -214 CURVE SMOOTH"
);
}
);
width = 333;
}
);
unicode = 00B8;
userData = {
com.fontlab.hintData = {
hhints = (
{
position = -214;
width = 19;
}
);
vhints = (
{
position = 180;
width = 78;
}
);
};
};
},
{
color = 11;
glyphname = ordmasculine;
lastChange = "2018-07-07 03:14:17 +0000";
layers = (
{
layerId = "EE8FC948-6E49-42F4-ACA5-5A0A3F8AB331";
paths = (
{
closed = 1;
nodes = (
"264.036 385.575 OFFCURVE",
"326.868 448.407 OFFCURVE",
"326.868 548.938 CURVE SMOOTH",
"326.868 655.753 OFFCURVE",
"254.611 706.019 OFFCURVE",
"179.213 706.019 CURVE SMOOTH",
"81.823 706.019 OFFCURVE",
"22.133 633.762 OFFCURVE",
"22.133 542.655 CURVE SMOOTH",
"22.133 435.841 OFFCURVE",
"97.531 385.575 OFFCURVE",
"169.788 385.575 CURVE SMOOTH"
);
},
{
closed = 1;
nodes = (
"132.089 410.708 OFFCURVE",
"91.248 448.407 OFFCURVE",
"91.248 552.08 CURVE SMOOTH",
"91.248 605.487 OFFCURVE",
"106.956 680.886 OFFCURVE",
"172.93 680.886 CURVE SMOOTH",
"216.912 680.886 OFFCURVE",
"257.753 640.045 OFFCURVE",
"257.753 539.514 CURVE SMOOTH",
"257.753 482.965 OFFCURVE",
"245.187 410.708 OFFCURVE",
"176.071 410.708 CURVE SMOOTH"
);
}
);
width = 354;
}
);
unicode = 00BA;
userData = {
com.fontlab.hintData = {
hhints = (
{
position = 386;
width = 25;
},
{
position = 681;
width = 25;
}
);
vhints = (
{
position = 22;
width = 69;
},
{
position = 258;
width = 69;
}
);
};
};
},
{
color = 11;
glyphname = onequarter;
lastChange = "2018-07-07 03:14:17 +0000";
layers = (
{
layerId = "EE8FC948-6E49-42F4-ACA5-5A0A3F8AB331";
paths = (
{
closed = 1;
nodes = (
"211.575 -22 LINE",
"672.575 706 LINE",
"621.575 706 LINE",
"160.575 -22 LINE"
);
},
{
closed = 1;
nodes = (
"248.45 302 LINE",
"248.45 318.5 LINE",
"204.45 329.5 LINE SMOOTH",
"193.45 332.25 OFFCURVE",
"187.95 340.5 OFFCURVE",
"187.95 351.5 CURVE SMOOTH",
"187.95 357 LINE",
"187.95 687 LINE",
"168.7 687 LINE",
"140.913 666.1 OFFCURVE",
"117.663 658.95 OFFCURVE",
"77.4 658.95 CURVE",
"77.4 639.15 LINE",
"86.75 639.15 LINE SMOOTH",
"118.65 639.15 OFFCURVE",
"130.2 623.75 OFFCURVE",
"130.2 594.05 CURVE SMOOTH",
"130.2 357 LINE",
"130.2 351.5 LINE SMOOTH",
"130.2 340.5 OFFCURVE",
"124.7 332.25 OFFCURVE",
"113.7 329.5 CURVE SMOOTH",
"69.7 318.5 LINE",
"69.7 302 LINE"
);
},
{
closed = 1;
nodes = (
"653.175 337.15 LINE",
"654.275 337.15 LINE",
"654.275 129.8 LINE",
"526.125 129.8 LINE"
);
},
{
closed = 1;
nodes = (
"763.175 0 LINE",
"763.175 19.8 LINE",
"728.525 19.8 OFFCURVE",
"714.775 31.35 OFFCURVE",
"714.775 63.25 CURVE SMOOTH",
"714.775 102.85 LINE",
"763.175 102.85 LINE",
"771.425 165 LINE",
"752.726 165 LINE",
"744.476 138.05 OFFCURVE",
"736.775 129.8 OFFCURVE",
"714.775 129.8 CURVE",
"714.775 385 LINE",
"661.976 385 LINE",
"503.575 134.75 LINE",
"503.575 102.85 LINE",
"654.275 102.85 LINE",
"654.275 64.35 LINE SMOOTH",
"654.275 33 OFFCURVE",
"642.175 19.8 OFFCURVE",
"604.775 19.8 CURVE",
"604.775 0 LINE"
);
}
);
width = 841;
}
);
unicode = 00BC;
userData = {
com.fontlab.hintData = {
hhints = (
{
position = 0;
width = 20;
},
{
position = 103;
width = 27;
},
{
position = 302;
width = 16;
},
{
position = 374;
width = 21;
},
{
position = 639;
width = 20;
},
{
position = 676;
width = 21;
},
{
position = 686;
width = 20;
}
);
vhints = (
{
position = 130;
width = 58;
},
{
position = 654;
width = 60;
},
{
position = 753;
width = 19;
}
);
};
};
},
{
color = 11;
glyphname = onehalf;
lastChange = "2018-07-07 03:14:17 +0000";
layers = (
{
layerId = "EE8FC948-6E49-42F4-ACA5-5A0A3F8AB331";
paths = (
{
closed = 1;
nodes = (
"212 -22 LINE",
"673 706 LINE",
"622 706 LINE",
"161 -22 LINE"
);
},
{
closed = 1;
nodes = (
"248.875 302 LINE",
"248.875 318.5 LINE",
"204.875 329.5 LINE SMOOTH",
"193.875 332.25 OFFCURVE",
"188.375 340.5 OFFCURVE",
"188.375 351.5 CURVE SMOOTH",
"188.375 357 LINE",
"188.375 687 LINE",
"169.125 687 LINE",
"141.338 666.1 OFFCURVE",
"118.088 658.95 OFFCURVE",
"77.825 658.95 CURVE",
"77.825 639.15 LINE",
"87.175 639.15 LINE SMOOTH",
"119.075 639.15 OFFCURVE",
"130.625 623.75 OFFCURVE",
"130.625 594.05 CURVE SMOOTH",
"130.625 357 LINE",
"130.625 351.5 LINE SMOOTH",
"130.625 340.5 OFFCURVE",
"125.125 332.25 OFFCURVE",
"114.125 329.5 CURVE SMOOTH",
"70.125 318.5 LINE",
"70.125 302 LINE"
);
},
{
closed = 1;
nodes = (
"785.05 0 LINE",
"812 90.75 LINE",
"792.75 90.75 LINE",
"777.35 54.45 OFFCURVE",
"763.6 44.55 OFFCURVE",
"728.4 44.55 CURVE SMOOTH",
"601.9 44.55 LINE",
"690.907 150.728 OFFCURVE",
"804.3 183.721 OFFCURVE",
"804.3 282.7 CURVE SMOOTH",
"804.3 339.35 OFFCURVE",
"763.323 385 OFFCURVE",
"682.2 385 CURVE SMOOTH",
"625.55 385 OFFCURVE",
"579.35 343.75 OFFCURVE",
"552.95 270.05 CURVE",
"573.3 261.8 LINE",
"595.85 315.15 OFFCURVE",
"629.95 345.4 OFFCURVE",
"668.45 345.4 CURVE SMOOTH",
"722.548 345.4 OFFCURVE",
"743.8 312.4 OFFCURVE",
"743.8 272.25 CURVE SMOOTH",
"743.8 199.439 OFFCURVE",
"658.065 140.952 OFFCURVE",
"550.75 19.8 CURVE",
"550.75 0 LINE"
);
}
);
width = 882;
}
);
unicode = 00BD;
userData = {
com.fontlab.hintData = {
hhints = (
{
position = 0;
width = 45;
},
{
position = 302;
width = 16;
},
{
position = 345;
width = 40;
},
{
position = 639;
width = 20;
},
{
position = 676;
width = 21;
},
{
position = 686;
width = 20;
}
);
vhints = (
{
position = 131;
width = 58;
},
{
position = 744;
width = 60;
}
);
};
};
},
{
color = 11;
glyphname = threequarters;
lastChange = "2018-07-07 03:14:17 +0000";
layers = (
{
layerId = "EE8FC948-6E49-42F4-ACA5-5A0A3F8AB331";
paths = (
{
closed = 1;
nodes = (
"241.575 -22 LINE",
"702.575 706 LINE",
"651.575 706 LINE",
"190.575 -22 LINE"
);
},
{
closed = 1;
nodes = (
"260.788 295.75 OFFCURVE",
"334.35 353.528 OFFCURVE",
"334.35 442.05 CURVE SMOOTH",
"334.35 498.465 OFFCURVE",
"293.649 535 OFFCURVE",
"232.05 535 CURVE",
"230.949 536.1 LINE",
"286.416 561.4 OFFCURVE",
"307.949 583.4 OFFCURVE",
"307.949 616.95 CURVE SMOOTH",
"307.949 659.332 OFFCURVE",
"261.229 689 OFFCURVE",
"210.05 689 CURVE SMOOTH",
"154.247 689 OFFCURVE",
"114.899 664.8 OFFCURVE",
"79.699 599.35 CURVE",
"95.1 587.25 LINE",
"125.013 630.919 OFFCURVE",
"153.389 649.4 OFFCURVE",
"194.1 649.4 CURVE SMOOTH",
"224.761 649.4 OFFCURVE",
"247.449 628.314 OFFCURVE",
"247.449 602.1 CURVE SMOOTH",
"247.449 560.85 OFFCURVE",
"212.096 541.6 OFFCURVE",
"139.649 503.1 CURVE",
"148.449 484.95 LINE",
"168.8 498.7 OFFCURVE",
"188.05 505.85 OFFCURVE",
"205.1 505.85 CURVE SMOOTH",
"243.958 505.85 OFFCURVE",
"273.85 473.945 OFFCURVE",
"273.85 429.4 CURVE SMOOTH",
"273.85 355.968 OFFCURVE",
"219.664 319.4 OFFCURVE",
"153.949 319.4 CURVE SMOOTH",
"128.972 319.4 OFFCURVE",
"109.346 323.8 OFFCURVE",
"80.8 336.45 CURVE",
"69.8 320.5 LINE",
"93.335 305.65 OFFCURVE",
"135.177 295.75 OFFCURVE",
"173.75 295.75 CURVE SMOOTH"
);
},
{
closed = 1;
nodes = (
"682.75 337.15 LINE",
"683.851 337.15 LINE",
"683.851 129.8 LINE",
"555.7 129.8 LINE"
);
},
{
closed = 1;
nodes = (
"792.75 0 LINE",
"792.75 19.8 LINE",
"758.101 19.8 OFFCURVE",
"744.351 31.35 OFFCURVE",
"744.351 63.25 CURVE SMOOTH",
"744.351 102.85 LINE",
"792.75 102.85 LINE",
"801 165 LINE",
"782.3 165 LINE",
"774.05 138.05 OFFCURVE",
"766.351 129.8 OFFCURVE",
"744.351 129.8 CURVE",
"744.351 385 LINE",
"691.55 385 LINE",
"533.15 134.75 LINE",
"533.15 102.85 LINE",
"683.851 102.85 LINE",
"683.851 64.35 LINE SMOOTH",
"683.851 33 OFFCURVE",
"671.75 19.8 OFFCURVE",
"634.351 19.8 CURVE",
"634.351 0 LINE"
);
}
);
width = 871;
}
);
unicode = 00BE;
userData = {
com.fontlab.hintData = {
hhints = (
{
position = 0;
width = 20;
},
{
position = 103;
width = 27;
},
{
position = 296;
width = 24;
},
{
position = 374;
width = 21;
},
{
position = 506;
width = 29;
},
{
position = 649;
width = 40;
},
{
position = 686;
width = 20;
}
);
vhints = (
{
position = 247;
width = 60;
},
{
position = 274;
width = 60;
},
{
position = 684;
width = 60;
},
{
position = 782;
width = 19;
}
);
};
};
},
{
color = 11;
glyphname = questiondown;
lastChange = "2018-07-07 03:14:17 +0000";
layers = (
{
layerId = "EE8FC948-6E49-42F4-ACA5-5A0A3F8AB331";
paths = (
{
closed = 1;
nodes = (
"314 -251 OFFCURVE",
"349 -227 OFFCURVE",
"349 -190 CURVE SMOOTH",
"349 -166 OFFCURVE",
"332 -149 OFFCURVE",
"307 -149 CURVE SMOOTH",
"277 -149 OFFCURVE",
"262 -171 OFFCURVE",
"226 -171 CURVE SMOOTH",
"165 -171 OFFCURVE",
"93 -88.754 OFFCURVE",
"93 -19 CURVE SMOOTH",
"93 4 OFFCURVE",
"105 28 OFFCURVE",
"123 46 CURVE SMOOTH",
"173.625 96 OFFCURVE",
"267.787 95 OFFCURVE",
"285 112 CURVE SMOOTH",
"290 117 OFFCURVE",
"291 122 OFFCURVE",
"291 130 CURVE SMOOTH",
"291 151 OFFCURVE",
"276 184 OFFCURVE",
"276 279 CURVE",
"236 279 LINE",
"235 247 OFFCURVE",
"231 221 OFFCURVE",
"217 207 CURVE SMOOTH",
"183.45 173 OFFCURVE",
"120.298 175 OFFCURVE",
"68 122 CURVE SMOOTH",
"41 95 OFFCURVE",
"30 62 OFFCURVE",
"30 25 CURVE SMOOTH",
"30 -37.355 OFFCURVE",
"121 -251 OFFCURVE",
"261 -251 CURVE SMOOTH"
);
},
{
closed = 1;
nodes = (
"293.432 380 OFFCURVE",
"324 410.263 OFFCURVE",
"324 448.5 CURVE SMOOTH",
"324 486.713 OFFCURVE",
"293.432 519 OFFCURVE",
"255 519 CURVE SMOOTH",
"216.42 519 OFFCURVE",
"185 486.713 OFFCURVE",
"185 448.5 CURVE SMOOTH",
"185 410.263 OFFCURVE",
"216.42 380 OFFCURVE",
"255 380 CURVE SMOOTH"
);
}
);
width = 385;
}
);
unicode = 00BF;
userData = {
com.fontlab.hintData = {
hhints = (
{
position = -251;
width = 80;
},
{
position = 380;
width = 139;
}
);
vhints = (
{
position = 30;
width = 63;
},
{
position = 185;
width = 139;
},
{
position = 236;
width = 40;
}
);
};
};
},
{
color = 11;
glyphname = Agrave;
lastChange = "2018-07-07 03:14:17 +0000";
layers = (
{
layerId = "EE8FC948-6E49-42F4-ACA5-5A0A3F8AB331";
paths = (
{
closed = 1;
nodes = (
"260 0 LINE",
"260 30 LINE",
"195 50 LINE SMOOTH",
"175 56 OFFCURVE",
"160 80 OFFCURVE",
"167 100 CURVE SMOOTH",
"235 290 LINE",
"475 290 LINE",
"545 100 LINE SMOOTH",
"552 80 OFFCURVE",
"540 56 OFFCURVE",
"520 50 CURVE SMOOTH",
"455 30 LINE",
"455 0 LINE",
"780 0 LINE",
"780 30 LINE",
"710 50 LINE SMOOTH",
"690 56 OFFCURVE",
"686 70 OFFCURVE",
"678 90 CURVE SMOOTH",
"435 700 LINE",
"340 700 LINE",
"102 90 LINE SMOOTH",
"94 70 OFFCURVE",
"85 54 OFFCURVE",
"70 50 CURVE SMOOTH",
"0 30 LINE",
"0 0 LINE"
);
},
{
closed = 1;
nodes = (
"355 620 LINE",
"460 335 LINE",
"250 335 LINE"
);
},
{
closed = 1;
nodes = (
"400 790 LINE",
"350 960 LINE",
"230 960 LINE",
"370 790 LINE"
);
}
);
width = 780;
}
);
unicode = 00C0;
userData = {
com.fontlab.hintData = {
hhints = (
{
position = 0;
width = 30;
},
{
position = 290;
width = 45;
},
{
position = 680;
width = 20;
},
{
position = 790;
width = 170;
}
);
vhints = (
{
position = 230;
width = 170;
}
);
};
};
},
{
color = 11;
glyphname = Aacute;
lastChange = "2018-07-07 03:14:17 +0000";
layers = (
{
layerId = "EE8FC948-6E49-42F4-ACA5-5A0A3F8AB331";
paths = (
{
closed = 1;
nodes = (
"260 0 LINE",
"260 30 LINE",
"195 50 LINE SMOOTH",
"175 56 OFFCURVE",
"160 80 OFFCURVE",
"167 100 CURVE SMOOTH",
"235 290 LINE",
"475 290 LINE",
"545 100 LINE SMOOTH",
"552 80 OFFCURVE",
"540 56 OFFCURVE",
"520 50 CURVE SMOOTH",
"455 30 LINE",
"455 0 LINE",
"780 0 LINE",
"780 30 LINE",
"710 50 LINE SMOOTH",
"690 56 OFFCURVE",
"686 70 OFFCURVE",
"678 90 CURVE SMOOTH",
"435 700 LINE",
"340 700 LINE",
"102 90 LINE SMOOTH",
"94 70 OFFCURVE",
"85 54 OFFCURVE",
"70 50 CURVE SMOOTH",
"0 30 LINE",
"0 0 LINE"
);
},
{
closed = 1;
nodes = (
"355 620 LINE",
"460 335 LINE",
"250 335 LINE"
);
},
{
closed = 1;
nodes = (
"370 790 LINE",
"510 960 LINE",
"390 960 LINE",
"340 790 LINE"
);
}
);
width = 780;
}
);
unicode = 00C1;
userData = {
com.fontlab.hintData = {
hhints = (
{
position = 0;
width = 30;
},
{
position = 290;
width = 45;
},
{
position = 680;
width = 20;
},
{
position = 790;
width = 170;
}
);
vhints = (
{
position = 340;
width = 170;
}
);
};
};
},
{
color = 11;
glyphname = Acircumflex;
lastChange = "2018-07-07 03:14:17 +0000";
layers = (
{
layerId = "EE8FC948-6E49-42F4-ACA5-5A0A3F8AB331";
paths = (
{
closed = 1;
nodes = (
"260 0 LINE",
"260 30 LINE",
"195 50 LINE SMOOTH",
"175 56 OFFCURVE",
"160 80 OFFCURVE",
"167 100 CURVE SMOOTH",
"235 290 LINE",
"475 290 LINE",
"545 100 LINE SMOOTH",
"552 80 OFFCURVE",
"540 56 OFFCURVE",
"520 50 CURVE SMOOTH",
"455 30 LINE",
"455 0 LINE",
"780 0 LINE",
"780 30 LINE",
"710 50 LINE SMOOTH",
"690 56 OFFCURVE",
"686 70 OFFCURVE",
"678 90 CURVE SMOOTH",
"435 700 LINE",
"340 700 LINE",
"102 90 LINE SMOOTH",
"94 70 OFFCURVE",
"85 54 OFFCURVE",
"70 50 CURVE SMOOTH",
"0 30 LINE",
"0 0 LINE"
);
},
{
closed = 1;
nodes = (
"355 620 LINE",
"460 335 LINE",
"250 335 LINE"
);
},
{
closed = 1;
nodes = (
"257.5 775 LINE",
"387.5 891.316 LINE",
"517.5 775 LINE",
"547.5 775 LINE",
"447.5 945 LINE",
"327.5 945 LINE",
"227.5 775 LINE"
);
}
);
width = 780;
}
);
unicode = 00C2;
userData = {
com.fontlab.hintData = {
hhints = (
{
position = 0;
width = 30;
},
{
position = 290;
width = 45;
},
{
position = 680;
width = 20;
},
{
position = 775;
width = 170;
}
);
vhints = (
{
position = 228;
width = 320;
}
);
};
};
},
{
color = 11;
glyphname = Atilde;
lastChange = "2018-07-07 03:14:17 +0000";
layers = (
{
layerId = "EE8FC948-6E49-42F4-ACA5-5A0A3F8AB331";
paths = (
{
closed = 1;
nodes = (
"260 0 LINE",
"260 30 LINE",
"195 50 LINE SMOOTH",
"175 56 OFFCURVE",
"160 80 OFFCURVE",
"167 100 CURVE SMOOTH",
"235 290 LINE",
"475 290 LINE",
"545 100 LINE SMOOTH",
"552 80 OFFCURVE",
"540 56 OFFCURVE",
"520 50 CURVE SMOOTH",
"455 30 LINE",
"455 0 LINE",
"780 0 LINE",
"780 30 LINE",
"710 50 LINE SMOOTH",
"690 56 OFFCURVE",
"686 70 OFFCURVE",
"678 90 CURVE SMOOTH",
"435 700 LINE",
"340 700 LINE",
"102 90 LINE SMOOTH",
"94 70 OFFCURVE",
"85 54 OFFCURVE",
"70 50 CURVE SMOOTH",
"0 30 LINE",
"0 0 LINE"
);
},
{
closed = 1;
nodes = (
"355 620 LINE",
"460 335 LINE",
"250 335 LINE"
);
},
{
closed = 1;
nodes = (
"515.559 775 OFFCURVE",
"553.5 829.24 OFFCURVE",
"553.5 904 CURVE",
"528.5 904 LINE",
"523.5 859 OFFCURVE",
"507.5 835 OFFCURVE",
"481.5 835 CURVE SMOOTH",
"464.466 835 OFFCURVE",
"443.832 847.633 OFFCURVE",
"421.5 862.992 CURVE SMOOTH",
"392.245 883.112 OFFCURVE",
"358.982 904 OFFCURVE",
"323.5 904 CURVE SMOOTH",
"260.305 904 OFFCURVE",
"223.718 859 OFFCURVE",
"221.5 777 CURVE",
"246.5 777 LINE",
"250.5 815 OFFCURVE",
"264.5 844 OFFCURVE",
"291.5 844 CURVE SMOOTH",
"310.875 844 OFFCURVE",
"332.804 830.529 OFFCURVE",
"356.5 813.939 CURVE SMOOTH",
"382.919 795.443 OFFCURVE",
"415.061 775 OFFCURVE",
"449.5 775 CURVE SMOOTH"
);
}
);
width = 780;
}
);
unicode = 00C3;
userData = {
com.fontlab.hintData = {
hhints = (
{
position = 0;
width = 30;
},
{
position = 290;
width = 45;
},
{
position = 680;
width = 20;
},
{
position = 775;
width = 60;
},
{
position = 844;
width = 60;
}
);
vhints = (
{
position = 222;
width = 25;
},
{
position = 528;
width = 25;
}
);
};
};
},
{
color = 11;
glyphname = Adieresis;
lastChange = "2018-07-07 03:14:17 +0000";
layers = (
{
layerId = "EE8FC948-6E49-42F4-ACA5-5A0A3F8AB331";
paths = (
{
closed = 1;
nodes = (
"260 0 LINE",
"260 30 LINE",
"195 50 LINE SMOOTH",
"175 56 OFFCURVE",
"160 80 OFFCURVE",
"167 100 CURVE SMOOTH",
"235 290 LINE",
"475 290 LINE",
"545 100 LINE SMOOTH",
"552 80 OFFCURVE",
"540 56 OFFCURVE",
"520 50 CURVE SMOOTH",
"455 30 LINE",
"455 0 LINE",
"780 0 LINE",
"780 30 LINE",
"710 50 LINE SMOOTH",
"690 56 OFFCURVE",
"686 70 OFFCURVE",
"678 90 CURVE SMOOTH",
"435 700 LINE",
"340 700 LINE",
"102 90 LINE SMOOTH",
"94 70 OFFCURVE",
"85 54 OFFCURVE",
"70 50 CURVE SMOOTH",
"0 30 LINE",
"0 0 LINE"
);
},
{
closed = 1;
nodes = (
"355 620 LINE",
"460 335 LINE",
"250 335 LINE"
);
},
{
closed = 1;
nodes = (
"324.8 775 OFFCURVE",
"351.2 801.4 OFFCURVE",
"351.2 833.3 CURVE SMOOTH",
"351.2 865.199 OFFCURVE",
"324.8 891.6 OFFCURVE",
"292.9 891.6 CURVE SMOOTH",
"261 891.6 OFFCURVE",
"234.6 865.199 OFFCURVE",
"234.6 833.3 CURVE SMOOTH",
"234.6 801.4 OFFCURVE",
"261 775 OFFCURVE",
"292.9 775 CURVE SMOOTH"
);
},
{
closed = 1;
nodes = (
"514 775 OFFCURVE",
"540.4 801.4 OFFCURVE",
"540.4 833.3 CURVE SMOOTH",
"540.4 865.199 OFFCURVE",
"514 891.6 OFFCURVE",
"482.1 891.6 CURVE SMOOTH",
"450.2 891.6 OFFCURVE",
"423.8 865.199 OFFCURVE",
"423.8 833.3 CURVE SMOOTH",
"423.8 801.4 OFFCURVE",
"450.2 775 OFFCURVE",
"482.1 775 CURVE SMOOTH"
);
}
);
width = 780;
}
);
unicode = 00C4;
userData = {
com.fontlab.hintData = {
hhints = (
{
position = 0;
width = 30;
},
{
position = 290;
width = 45;
},
{
position = 680;
width = 20;
},
{
position = 775;
width = 117;
}
);
vhints = (
{
position = 235;
width = 117;
},
{
position = 424;
width = 117;
}
);
};
};
},
{
color = 11;
glyphname = Aring;
lastChange = "2018-07-07 03:14:17 +0000";
layers = (
{
layerId = "EE8FC948-6E49-42F4-ACA5-5A0A3F8AB331";
paths = (
{
closed = 1;
nodes = (
"260 0 LINE",
"260 30 LINE",
"195 50 LINE SMOOTH",
"175 56 OFFCURVE",
"160 80 OFFCURVE",
"167 100 CURVE SMOOTH",
"235 290 LINE",
"475 290 LINE",
"545 100 LINE SMOOTH",
"552 80 OFFCURVE",
"540 56 OFFCURVE",
"520 50 CURVE SMOOTH",
"455 30 LINE",
"455 0 LINE",
"780 0 LINE",
"780 30 LINE",
"710 50 LINE SMOOTH",
"690 56 OFFCURVE",
"686 70 OFFCURVE",
"678 90 CURVE SMOOTH",
"435 700 LINE",
"340 700 LINE",
"102 90 LINE SMOOTH",
"94 70 OFFCURVE",
"85 54 OFFCURVE",
"70 50 CURVE SMOOTH",
"0 30 LINE",
"0 0 LINE"
);
},
{
closed = 1;
nodes = (
"355 620 LINE",
"460 335 LINE",
"250 335 LINE"
);
},
{
closed = 1;
nodes = (
"439 708.767 OFFCURVE",
"481 750.767 OFFCURVE",
"481 802.767 CURVE SMOOTH",
"481 854.767 OFFCURVE",
"439 895.767 OFFCURVE",
"387 895.767 CURVE SMOOTH",
"335 895.767 OFFCURVE",
"294 854.767 OFFCURVE",
"294 802.767 CURVE SMOOTH",
"294 750.767 OFFCURVE",
"335 708.767 OFFCURVE",
"387 708.767 CURVE SMOOTH"
);
},
{
closed = 1;
nodes = (
"357.35 748.717 OFFCURVE",
"333.95 773.018 OFFCURVE",
"333.95 802.717 CURVE SMOOTH",
"333.95 832.417 OFFCURVE",
"357.35 855.816 OFFCURVE",
"387.05 855.816 CURVE SMOOTH",
"416.75 855.816 OFFCURVE",
"441.05 832.417 OFFCURVE",
"441.05 802.717 CURVE SMOOTH",
"441.05 773.018 OFFCURVE",
"416.75 748.717 OFFCURVE",
"387.05 748.717 CURVE SMOOTH"
);
}
);
width = 780;
}
);
unicode = 00C5;
userData = {
com.fontlab.hintData = {
hhints = (
{
position = 0;
width = 30;
},
{
position = 290;
width = 45;
},
{
position = 680;
width = 20;
},
{
position = 709;
width = 40;
},
{
position = 856;
width = 40;
}
);
vhints = (
{
position = 294;
width = 40;
},
{
position = 441;
width = 40;
}
);
};
};
},
{
color = 11;
glyphname = AE;
lastChange = "2018-07-07 03:14:17 +0000";
layers = (
{
anchors = (
{
name = "Anchor-1";
position = "{616, 810}";
},
{
name = Anchor1;
position = "{616, 810}";
}
);
layerId = "EE8FC948-6E49-42F4-ACA5-5A0A3F8AB331";
paths = (
{
closed = 1;
nodes = (
"300 0 LINE",
"300 30 LINE",
"235 50 LINE SMOOTH",
"215.043 56.14 OFFCURVE",
"196.309 82.18 OFFCURVE",
"207 100 CURVE SMOOTH",
"321 289.999 LINE",
"505 289.999 LINE",
"505 90 LINE SMOOTH",
"505 70 OFFCURVE",
"495 55 OFFCURVE",
"475 50 CURVE SMOOTH",
"395 30 LINE",
"395 0 LINE",
"720 0 LINE",
"975 0 LINE",
"1005 210 LINE",
"965 210 LINE",
"925 130 LINE SMOOTH",
"895 70 OFFCURVE",
"865 50 OFFCURVE",
"805 50 CURVE SMOOTH",
"650 50 LINE",
"628.19 56.231 OFFCURVE",
"615 68.567 OFFCURVE",
"615 89.994 CURVE SMOOTH",
"615 90 LINE",
"615 340 LINE",
"695 340 LINE SMOOTH",
"745 340 OFFCURVE",
"781.7 329.9 OFFCURVE",
"795 290 CURVE SMOOTH",
"815 230 LINE",
"845 230 LINE",
"845 490 LINE",
"815 490 LINE",
"795 430 LINE SMOOTH",
"781.7 390.1 OFFCURVE",
"745 380 OFFCURVE",
"695 380 CURVE SMOOTH",
"615 380 LINE",
"615 610 LINE SMOOTH",
"615 640 OFFCURVE",
"635 650 OFFCURVE",
"655 650 CURVE SMOOTH",
"755 650 LINE SMOOTH",
"815 650 OFFCURVE",
"850 640 OFFCURVE",
"875 590 CURVE SMOOTH",
"915 510 LINE",
"955 510 LINE",
"955 700 LINE",
"395 700 LINE",
"395 670 LINE",
"463.164 652.959 LINE",
"142 90 LINE SMOOTH",
"131.425 71.462 OFFCURVE",
"124.925 54.264 OFFCURVE",
"110 50 CURVE SMOOTH",
"40 30 LINE",
"40 0 LINE"
);
},
{
closed = 1;
nodes = (
"504.302 618.787 LINE SMOOTH",
"504.767 615.986 OFFCURVE",
"505 613.051 OFFCURVE",
"505 610 CURVE SMOOTH",
"505 335 LINE",
"341 335 LINE"
);
}
);
width = 1045;
}
);
unicode = 00C6;
userData = {
com.fontlab.hintData = {
hhints = (
{
position = 0;
width = 30;
},
{
position = 0;
width = 50;
},
{
position = 290;
width = 45;
},
{
position = 340;
width = 40;
},
{
position = 470;
width = 20;
},
{
position = 650;
width = 50;
},
{
position = 670;
width = 30;
}
);
vhints = (
{
position = 505;
width = 110;
},
{
position = 595;
width = 20;
}
);
};
};
},
{
color = 11;
glyphname = Ccedilla;
lastChange = "2018-07-07 03:14:17 +0000";
layers = (
{
layerId = "EE8FC948-6E49-42F4-ACA5-5A0A3F8AB331";
paths = (
{
closed = 1;
nodes = (
"410.5 -231.533 OFFCURVE",
"464.5 -190.533 OFFCURVE",
"464.5 -137.533 CURVE SMOOTH",
"464.5 -105.616 OFFCURVE",
"441.618 -74.693 OFFCURVE",
"381.963 -69.572 CURVE",
"412.392 -14.912 LINE",
"495.209 -13.179 OFFCURVE",
"565.6 14.213 OFFCURVE",
"624 59 CURVE",
"624 206 LINE",
"580 206 LINE",
"554.559 79.038 OFFCURVE",
"480.287 25 OFFCURVE",
"407 25 CURVE SMOOTH",
"397 25 LINE SMOOTH",
"274.289 25 OFFCURVE",
"160 115.942 OFFCURVE",
"160 365 CURVE SMOOTH",
"160 493.562 OFFCURVE",
"204.79 675 OFFCURVE",
"390 675 CURVE SMOOTH",
"407 675 LINE SMOOTH",
"480.287 675 OFFCURVE",
"554.559 620.962 OFFCURVE",
"580 494 CURVE",
"624 494 LINE",
"624 641 LINE",
"563.638 687.292 OFFCURVE",
"490.464 715 OFFCURVE",
"404 715 CURVE SMOOTH",
"178.619 715 OFFCURVE",
"40 551.084 OFFCURVE",
"40 343 CURVE SMOOTH",
"40 107.71 OFFCURVE",
"204.199 -7.358 OFFCURVE",
"366.548 -14.631 CURVE",
"316.5 -104.533 LINE",
"362.5 -109.533 OFFCURVE",
"386.5 -128.533 OFFCURVE",
"386.5 -158.533 CURVE SMOOTH",
"386.5 -188.533 OFFCURVE",
"357.5 -212.533 OFFCURVE",
"322.5 -212.533 CURVE SMOOTH",
"313.5 -212.533 OFFCURVE",
"304.5 -211.533 OFFCURVE",
"286.5 -207.533 CURVE",
"282.5 -223.533 LINE",
"310.5 -229.533 OFFCURVE",
"323.5 -231.533 OFFCURVE",
"340.5 -231.533 CURVE SMOOTH"
);
}
);
width = 664;
}
);
unicode = 00C7;
userData = {
com.fontlab.hintData = {
hhints = (
{
position = -232;
width = 19;
},
{
position = -15;
width = 40;
},
{
position = 494;
width = 21;
},
{
position = 675;
width = 40;
}
);
vhints = (
{
position = 40;
width = 120;
},
{
position = 386;
width = 78;
},
{
position = 580;
width = 44;
}
);
};
};
},
{
color = 11;
glyphname = Egrave;
lastChange = "2018-07-07 03:14:17 +0000";
layers = (
{
layerId = "EE8FC948-6E49-42F4-ACA5-5A0A3F8AB331";
paths = (
{
closed = 1;
nodes = (
"620 0 LINE",
"650 210 LINE",
"610 210 LINE",
"570 130 LINE SMOOTH",
"540 70 OFFCURVE",
"510 50 OFFCURVE",
"450 50 CURVE SMOOTH",
"300 50 LINE SMOOTH",
"280 50 OFFCURVE",
"260 60 OFFCURVE",
"260 90 CURVE SMOOTH",
"260 340 LINE",
"340 340 LINE SMOOTH",
"390 340 OFFCURVE",
"427 330 OFFCURVE",
"440 290 CURVE SMOOTH",
"460 230 LINE",
"490 230 LINE",
"490 490 LINE",
"460 490 LINE",
"440 430 LINE SMOOTH",
"427 390 OFFCURVE",
"390 380 OFFCURVE",
"340 380 CURVE SMOOTH",
"260 380 LINE",
"260 610 LINE SMOOTH",
"260 640 OFFCURVE",
"280 650 OFFCURVE",
"300 650 CURVE SMOOTH",
"400 650 LINE SMOOTH",
"460 650 OFFCURVE",
"495 640 OFFCURVE",
"520 590 CURVE SMOOTH",
"560 510 LINE",
"600 510 LINE",
"600 700 LINE",
"40 700 LINE",
"40 670 LINE",
"120 650 LINE SMOOTH",
"140 645 OFFCURVE",
"150 630 OFFCURVE",
"150 610 CURVE SMOOTH",
"150 90 LINE SMOOTH",
"150 70 OFFCURVE",
"140 55 OFFCURVE",
"120 50 CURVE SMOOTH",
"40 30 LINE",
"40 0 LINE"
);
},
{
closed = 1;
nodes = (
"360 790 LINE",
"310 960 LINE",
"190 960 LINE",
"330 790 LINE"
);
}
);
width = 690;
}
);
unicode = 00C8;
userData = {
com.fontlab.hintData = {
hhints = (
{
position = 0;
width = 30;
},
{
position = 0;
width = 50;
},
{
position = 340;
width = 40;
},
{
position = 470;
width = 20;
},
{
position = 650;
width = 50;
},
{
position = 670;
width = 30;
},
{
position = 790;
width = 170;
}
);
vhints = (
{
position = 150;
width = 110;
},
{
position = 190;
width = 170;
},
{
position = 240;
width = 20;
},
{
position = 440;
width = 50;
}
);
};
};
},
{
color = 11;
glyphname = Eacute;
lastChange = "2018-07-07 03:14:17 +0000";
layers = (
{
layerId = "EE8FC948-6E49-42F4-ACA5-5A0A3F8AB331";
paths = (
{
closed = 1;
nodes = (
"620 0 LINE",
"650 210 LINE",
"610 210 LINE",
"570 130 LINE SMOOTH",
"540 70 OFFCURVE",
"510 50 OFFCURVE",
"450 50 CURVE SMOOTH",
"300 50 LINE SMOOTH",
"280 50 OFFCURVE",
"260 60 OFFCURVE",
"260 90 CURVE SMOOTH",
"260 340 LINE",
"340 340 LINE SMOOTH",
"390 340 OFFCURVE",
"427 330 OFFCURVE",
"440 290 CURVE SMOOTH",
"460 230 LINE",
"490 230 LINE",
"490 490 LINE",
"460 490 LINE",
"440 430 LINE SMOOTH",
"427 390 OFFCURVE",
"390 380 OFFCURVE",
"340 380 CURVE SMOOTH",
"260 380 LINE",
"260 610 LINE SMOOTH",
"260 640 OFFCURVE",
"280 650 OFFCURVE",
"300 650 CURVE SMOOTH",
"400 650 LINE SMOOTH",
"460 650 OFFCURVE",
"495 640 OFFCURVE",
"520 590 CURVE SMOOTH",
"560 510 LINE",
"600 510 LINE",
"600 700 LINE",
"40 700 LINE",
"40 670 LINE",
"120 650 LINE SMOOTH",
"140 645 OFFCURVE",
"150 630 OFFCURVE",
"150 610 CURVE SMOOTH",
"150 90 LINE SMOOTH",
"150 70 OFFCURVE",
"140 55 OFFCURVE",
"120 50 CURVE SMOOTH",
"40 30 LINE",
"40 0 LINE"
);
},
{
closed = 1;
nodes = (
"330 790 LINE",
"470 960 LINE",
"350 960 LINE",
"300 790 LINE"
);
}
);
width = 690;
}
);
unicode = 00C9;
userData = {
com.fontlab.hintData = {
hhints = (
{
position = 0;
width = 30;
},
{
position = 0;
width = 50;
},
{
position = 340;
width = 40;
},
{
position = 470;
width = 20;
},
{
position = 650;
width = 50;
},
{
position = 670;
width = 30;
},
{
position = 790;
width = 170;
}
);
vhints = (
{
position = 150;
width = 110;
},
{
position = 240;
width = 20;
},
{
position = 300;
width = 170;
},
{
position = 440;
width = 50;
}
);
};
};
},
{
color = 11;
glyphname = Ecircumflex;
lastChange = "2018-07-07 03:14:17 +0000";
layers = (
{
layerId = "EE8FC948-6E49-42F4-ACA5-5A0A3F8AB331";
paths = (
{
closed = 1;
nodes = (
"620 0 LINE",
"650 210 LINE",
"610 210 LINE",
"570 130 LINE SMOOTH",
"540 70 OFFCURVE",
"510 50 OFFCURVE",
"450 50 CURVE SMOOTH",
"300 50 LINE SMOOTH",
"280 50 OFFCURVE",
"260 60 OFFCURVE",
"260 90 CURVE SMOOTH",
"260 340 LINE",
"340 340 LINE SMOOTH",
"390 340 OFFCURVE",
"427 330 OFFCURVE",
"440 290 CURVE SMOOTH",
"460 230 LINE",
"490 230 LINE",
"490 490 LINE",
"460 490 LINE",
"440 430 LINE SMOOTH",
"427 390 OFFCURVE",
"390 380 OFFCURVE",
"340 380 CURVE SMOOTH",
"260 380 LINE",
"260 610 LINE SMOOTH",
"260 640 OFFCURVE",
"280 650 OFFCURVE",
"300 650 CURVE SMOOTH",
"400 650 LINE SMOOTH",
"460 650 OFFCURVE",
"495 640 OFFCURVE",
"520 590 CURVE SMOOTH",
"560 510 LINE",
"600 510 LINE",
"600 700 LINE",
"40 700 LINE",
"40 670 LINE",
"120 650 LINE SMOOTH",
"140 645 OFFCURVE",
"150 630 OFFCURVE",
"150 610 CURVE SMOOTH",
"150 90 LINE SMOOTH",
"150 70 OFFCURVE",
"140 55 OFFCURVE",
"120 50 CURVE SMOOTH",
"40 30 LINE",
"40 0 LINE"
);
},
{
closed = 1;
nodes = (
"190 775 LINE",
"320 891.316 LINE",
"450 775 LINE",
"480 775 LINE",
"380 945 LINE",
"260 945 LINE",
"160 775 LINE"
);
}
);
width = 690;
}
);
unicode = 00CA;
userData = {
com.fontlab.hintData = {
hhints = (
{
position = 0;
width = 30;
},
{
position = 0;
width = 50;
},
{
position = 340;
width = 40;
},
{
position = 470;
width = 20;
},
{
position = 650;
width = 50;
},
{
position = 670;
width = 30;
},
{
position = 775;
width = 170;
}
);
vhints = (
{
position = 150;
width = 110;
},
{
position = 160;
width = 320;
},
{
position = 240;
width = 20;
},
{
position = 440;
width = 50;
}
);
};
};
},
{
color = 11;
glyphname = Edieresis;
lastChange = "2018-07-07 03:14:17 +0000";
layers = (
{
layerId = "EE8FC948-6E49-42F4-ACA5-5A0A3F8AB331";
paths = (
{
closed = 1;
nodes = (
"620 0 LINE",
"650 210 LINE",
"610 210 LINE",
"570 130 LINE SMOOTH",
"540 70 OFFCURVE",
"510 50 OFFCURVE",
"450 50 CURVE SMOOTH",
"300 50 LINE SMOOTH",
"280 50 OFFCURVE",
"260 60 OFFCURVE",
"260 90 CURVE SMOOTH",
"260 340 LINE",
"340 340 LINE SMOOTH",
"390 340 OFFCURVE",
"427 330 OFFCURVE",
"440 290 CURVE SMOOTH",
"460 230 LINE",
"490 230 LINE",
"490 490 LINE",
"460 490 LINE",
"440 430 LINE SMOOTH",
"427 390 OFFCURVE",
"390 380 OFFCURVE",
"340 380 CURVE SMOOTH",
"260 380 LINE",
"260 610 LINE SMOOTH",
"260 640 OFFCURVE",
"280 650 OFFCURVE",
"300 650 CURVE SMOOTH",
"400 650 LINE SMOOTH",
"460 650 OFFCURVE",
"495 640 OFFCURVE",
"520 590 CURVE SMOOTH",
"560 510 LINE",
"600 510 LINE",
"600 700 LINE",
"40 700 LINE",
"40 670 LINE",
"120 650 LINE SMOOTH",
"140 645 OFFCURVE",
"150 630 OFFCURVE",
"150 610 CURVE SMOOTH",
"150 90 LINE SMOOTH",
"150 70 OFFCURVE",
"140 55 OFFCURVE",
"120 50 CURVE SMOOTH",
"40 30 LINE",
"40 0 LINE"
);
},
{
closed = 1;
nodes = (
"257.3 775 OFFCURVE",
"283.7 801.4 OFFCURVE",
"283.7 833.3 CURVE SMOOTH",
"283.7 865.199 OFFCURVE",
"257.3 891.6 OFFCURVE",
"225.4 891.6 CURVE SMOOTH",
"193.5 891.6 OFFCURVE",
"167.1 865.199 OFFCURVE",
"167.1 833.3 CURVE SMOOTH",
"167.1 801.4 OFFCURVE",
"193.5 775 OFFCURVE",
"225.4 775 CURVE SMOOTH"
);
},
{
closed = 1;
nodes = (
"446.5 775 OFFCURVE",
"472.9 801.4 OFFCURVE",
"472.9 833.3 CURVE SMOOTH",
"472.9 865.199 OFFCURVE",
"446.5 891.6 OFFCURVE",
"414.6 891.6 CURVE SMOOTH",
"382.7 891.6 OFFCURVE",
"356.3 865.199 OFFCURVE",
"356.3 833.3 CURVE SMOOTH",
"356.3 801.4 OFFCURVE",
"382.7 775 OFFCURVE",
"414.6 775 CURVE SMOOTH"
);
}
);
width = 690;
}
);
unicode = 00CB;
userData = {
com.fontlab.hintData = {
hhints = (
{
position = 0;
width = 30;
},
{
position = 0;
width = 50;
},
{
position = 340;
width = 40;
},
{
position = 470;
width = 20;
},
{
position = 650;
width = 50;
},
{
position = 670;
width = 30;
},
{
position = 775;
width = 117;
}
);
vhints = (
{
position = 150;
width = 110;
},
{
position = 167;
width = 117;
},
{
position = 240;
width = 20;
},
{
position = 356;
width = 117;
},
{
position = 440;
width = 50;
}
);
};
};
},
{
color = 11;
glyphname = Igrave;
lastChange = "2018-07-07 03:14:17 +0000";
layers = (
{
layerId = "EE8FC948-6E49-42F4-ACA5-5A0A3F8AB331";
paths = (
{
closed = 1;
nodes = (
"370 0 LINE",
"370 30 LINE",
"290 50 LINE SMOOTH",
"270 55 OFFCURVE",
"260 70 OFFCURVE",
"260 90 CURVE SMOOTH",
"260 610 LINE SMOOTH",
"260 630 OFFCURVE",
"270 645 OFFCURVE",
"290 650 CURVE SMOOTH",
"370 670 LINE",
"370 700 LINE",
"40 700 LINE",
"40 670 LINE",
"120 650 LINE SMOOTH",
"140 645 OFFCURVE",
"150 630 OFFCURVE",
"150 610 CURVE SMOOTH",
"150 90 LINE SMOOTH",
"150 70 OFFCURVE",
"140 55 OFFCURVE",
"120 50 CURVE SMOOTH",
"40 30 LINE",
"40 0 LINE"
);
},
{
closed = 1;
nodes = (
"225 790 LINE",
"175 960 LINE",
"55 960 LINE",
"195 790 LINE"
);
}
);
width = 410;
}
);
unicode = 00CC;
userData = {
com.fontlab.hintData = {
hhints = (
{
position = 0;
width = 30;
},
{
position = 670;
width = 30;
},
{
position = 790;
width = 170;
}
);
vhints = (
{
position = 55;
width = 170;
},
{
position = 150;
width = 110;
}
);
};
};
},
{
color = 11;
glyphname = Iacute;
lastChange = "2018-07-07 03:14:17 +0000";
layers = (
{
layerId = "EE8FC948-6E49-42F4-ACA5-5A0A3F8AB331";
paths = (
{
closed = 1;
nodes = (
"370 0 LINE",
"370 30 LINE",
"290 50 LINE SMOOTH",
"270 55 OFFCURVE",
"260 70 OFFCURVE",
"260 90 CURVE SMOOTH",
"260 610 LINE SMOOTH",
"260 630 OFFCURVE",
"270 645 OFFCURVE",
"290 650 CURVE SMOOTH",
"370 670 LINE",
"370 700 LINE",
"40 700 LINE",
"40 670 LINE",
"120 650 LINE SMOOTH",
"140 645 OFFCURVE",
"150 630 OFFCURVE",
"150 610 CURVE SMOOTH",
"150 90 LINE SMOOTH",
"150 70 OFFCURVE",
"140 55 OFFCURVE",
"120 50 CURVE SMOOTH",
"40 30 LINE",
"40 0 LINE"
);
},
{
closed = 1;
nodes = (
"195 790 LINE",
"335 960 LINE",
"215 960 LINE",
"165 790 LINE"
);
}
);
width = 410;
}
);
unicode = 00CD;
userData = {
com.fontlab.hintData = {
hhints = (
{
position = 0;
width = 30;
},
{
position = 670;
width = 30;
},
{
position = 790;
width = 170;
}
);
vhints = (
{
position = 150;
width = 110;
},
{
position = 165;
width = 170;
}
);
};
};
},
{
color = 11;
glyphname = Icircumflex;
lastChange = "2018-07-07 03:14:17 +0000";
layers = (
{
layerId = "EE8FC948-6E49-42F4-ACA5-5A0A3F8AB331";
paths = (
{
closed = 1;
nodes = (
"370 0 LINE",
"370 30 LINE",
"290 50 LINE SMOOTH",
"270 55 OFFCURVE",
"260 70 OFFCURVE",
"260 90 CURVE SMOOTH",
"260 610 LINE SMOOTH",
"260 630 OFFCURVE",
"270 645 OFFCURVE",
"290 650 CURVE SMOOTH",
"370 670 LINE",
"370 700 LINE",
"40 700 LINE",
"40 670 LINE",
"120 650 LINE SMOOTH",
"140 645 OFFCURVE",
"150 630 OFFCURVE",
"150 610 CURVE SMOOTH",
"150 90 LINE SMOOTH",
"150 70 OFFCURVE",
"140 55 OFFCURVE",
"120 50 CURVE SMOOTH",
"40 30 LINE",
"40 0 LINE"
);
},
{
closed = 1;
nodes = (
"75 775 LINE",
"205 891.316 LINE",
"335 775 LINE",
"365 775 LINE",
"265 945 LINE",
"145 945 LINE",
"45 775 LINE"
);
}
);
width = 410;
}
);
unicode = 00CE;
userData = {
com.fontlab.hintData = {
hhints = (
{
position = 0;
width = 30;
},
{
position = 670;
width = 30;
},
{
position = 775;
width = 170;
}
);
vhints = (
{
position = 45;
width = 320;
},
{
position = 150;
width = 110;
}
);
};
};
},
{
color = 11;
glyphname = Idieresis;
lastChange = "2018-07-07 03:14:17 +0000";
layers = (
{
layerId = "EE8FC948-6E49-42F4-ACA5-5A0A3F8AB331";
paths = (
{
closed = 1;
nodes = (
"370 0 LINE",
"370 30 LINE",
"290 50 LINE SMOOTH",
"270 55 OFFCURVE",
"260 70 OFFCURVE",
"260 90 CURVE SMOOTH",
"260 610 LINE SMOOTH",
"260 630 OFFCURVE",
"270 645 OFFCURVE",
"290 650 CURVE SMOOTH",
"370 670 LINE",
"370 700 LINE",
"40 700 LINE",
"40 670 LINE",
"120 650 LINE SMOOTH",
"140 645 OFFCURVE",
"150 630 OFFCURVE",
"150 610 CURVE SMOOTH",
"150 90 LINE SMOOTH",
"150 70 OFFCURVE",
"140 55 OFFCURVE",
"120 50 CURVE SMOOTH",
"40 30 LINE",
"40 0 LINE"
);
},
{
closed = 1;
nodes = (
"142.3 775 OFFCURVE",
"168.7 801.4 OFFCURVE",
"168.7 833.3 CURVE SMOOTH",
"168.7 865.199 OFFCURVE",
"142.3 891.6 OFFCURVE",
"110.4 891.6 CURVE SMOOTH",
"78.5 891.6 OFFCURVE",
"52.1 865.199 OFFCURVE",
"52.1 833.3 CURVE SMOOTH",
"52.1 801.4 OFFCURVE",
"78.5 775 OFFCURVE",
"110.4 775 CURVE SMOOTH"
);
},
{
closed = 1;
nodes = (
"331.5 775 OFFCURVE",
"357.9 801.4 OFFCURVE",
"357.9 833.3 CURVE SMOOTH",
"357.9 865.199 OFFCURVE",
"331.5 891.6 OFFCURVE",
"299.6 891.6 CURVE SMOOTH",
"267.7 891.6 OFFCURVE",
"241.3 865.199 OFFCURVE",
"241.3 833.3 CURVE SMOOTH",
"241.3 801.4 OFFCURVE",
"267.7 775 OFFCURVE",
"299.6 775 CURVE SMOOTH"
);
}
);
width = 410;
}
);
unicode = 00CF;
userData = {
com.fontlab.hintData = {
hhints = (
{
position = 0;
width = 30;
},
{
position = 670;
width = 30;
},
{
position = 775;
width = 117;
}
);
vhints = (
{
position = 52;
width = 117;
},
{
position = 150;
width = 110;
},
{
position = 241;
width = 117;
}
);
};
};
},
{
color = 11;
glyphname = Eth;
lastChange = "2018-07-07 03:14:17 +0000";
layers = (
{
layerId = "EE8FC948-6E49-42F4-ACA5-5A0A3F8AB331";
paths = (
{
closed = 1;
nodes = (
"410 0 LINE SMOOTH",
"572 0 OFFCURVE",
"710 123.671 OFFCURVE",
"710 350 CURVE SMOOTH",
"710 521.84 OFFCURVE",
"626.321 700 OFFCURVE",
"380 700 CURVE SMOOTH",
"40 700 LINE",
"40 670 LINE",
"120 650 LINE SMOOTH",
"140 645 OFFCURVE",
"150 630 OFFCURVE",
"150 610 CURVE SMOOTH",
"150 420 LINE",
"20 420 LINE",
"20 350 LINE",
"150 350 LINE",
"150 90 LINE SMOOTH",
"150 70 OFFCURVE",
"140 55 OFFCURVE",
"120 50 CURVE SMOOTH",
"40 30 LINE",
"40 0 LINE"
);
},
{
closed = 1;
nodes = (
"280 40 OFFCURVE",
"260 50 OFFCURVE",
"260 80 CURVE SMOOTH",
"260 350 LINE",
"448 350 LINE",
"448 420 LINE",
"260 420 LINE",
"260 620 LINE SMOOTH",
"260 650 OFFCURVE",
"280 660 OFFCURVE",
"300 660 CURVE SMOOTH",
"350 660 LINE SMOOTH",
"502.842 660 OFFCURVE",
"590 542.2 OFFCURVE",
"590 350 CURVE SMOOTH",
"590 214.375 OFFCURVE",
"530.938 40 OFFCURVE",
"380 40 CURVE SMOOTH",
"300 40 LINE SMOOTH"
);
}
);
width = 750;
}
);
unicode = 00D0;
userData = {
com.fontlab.hintData = {
hhints = (
{
position = 0;
width = 30;
},
{
position = 0;
width = 40;
},
{
position = 350;
width = 70;
},
{
position = 660;
width = 40;
},
{
position = 670;
width = 30;
}
);
vhints = (
{
position = 150;
width = 110;
},
{
position = 590;
width = 120;
}
);
};
};
},
{
color = 11;
glyphname = Ntilde;
lastChange = "2018-07-07 03:14:17 +0000";
layers = (
{
layerId = "EE8FC948-6E49-42F4-ACA5-5A0A3F8AB331";
paths = (
{
closed = 1;
nodes = (
"310 0 LINE",
"310 30 LINE",
"230 50 LINE SMOOTH",
"210 55 OFFCURVE",
"200 70 OFFCURVE",
"200 90 CURVE SMOOTH",
"200 527.234 LINE",
"620 0 LINE",
"680 0 LINE",
"673 30 OFFCURVE",
"670 66 OFFCURVE",
"670 110 CURVE SMOOTH",
"670 610 LINE SMOOTH",
"670 630 OFFCURVE",
"680 645 OFFCURVE",
"700 650 CURVE SMOOTH",
"780 670 LINE",
"780 700 LINE",
"510 700 LINE",
"510 670 LINE",
"590 650 LINE SMOOTH",
"610 645 OFFCURVE",
"620 630 OFFCURVE",
"620 610 CURVE SMOOTH",
"620 172.766 LINE",
"200 700 LINE",
"40 700 LINE",
"40 670 LINE",
"120 628 LINE SMOOTH",
"137.252 618.942 OFFCURVE",
"150 608 OFFCURVE",
"150 588 CURVE SMOOTH",
"150 90 LINE SMOOTH",
"150 70 OFFCURVE",
"140 55 OFFCURVE",
"120 50 CURVE SMOOTH",
"40 30 LINE",
"40 0 LINE"
);
},
{
closed = 1;
nodes = (
"538.059 775 OFFCURVE",
"576 829.24 OFFCURVE",
"576 904 CURVE",
"551 904 LINE",
"546 859 OFFCURVE",
"530 835 OFFCURVE",
"504 835 CURVE SMOOTH",
"486.966 835 OFFCURVE",
"466.332 847.633 OFFCURVE",
"444 862.992 CURVE SMOOTH",
"414.745 883.112 OFFCURVE",
"381.482 904 OFFCURVE",
"346 904 CURVE SMOOTH",
"282.805 904 OFFCURVE",
"246.218 859 OFFCURVE",
"244 777 CURVE",
"269 777 LINE",
"273 815 OFFCURVE",
"287 844 OFFCURVE",
"314 844 CURVE SMOOTH",
"333.375 844 OFFCURVE",
"355.304 830.529 OFFCURVE",
"379 813.939 CURVE SMOOTH",
"405.419 795.443 OFFCURVE",
"437.561 775 OFFCURVE",
"472 775 CURVE SMOOTH"
);
}
);
width = 820;
}
);
unicode = 00D1;
userData = {
com.fontlab.hintData = {
hhints = (
{
position = 0;
width = 30;
},
{
position = 670;
width = 30;
},
{
position = 775;
width = 60;
},
{
position = 844;
width = 60;
}
);
vhints = (
{
position = 150;
width = 50;
},
{
position = 244;
width = 25;
},
{
position = 551;
width = 25;
},
{
position = 620;
width = 50;
}
);
};
};
},
{
color = 11;
glyphname = Ograve;
lastChange = "2018-07-07 03:14:17 +0000";
layers = (
{
layerId = "EE8FC948-6E49-42F4-ACA5-5A0A3F8AB331";
paths = (
{
closed = 1;
nodes = (
"601.4 -15 OFFCURVE",
"747 127.322 OFFCURVE",
"747 357 CURVE SMOOTH",
"747 600.244 OFFCURVE",
"578.491 715 OFFCURVE",
"404 715 CURVE SMOOTH",
"178.619 715 OFFCURVE",
"40 551.084 OFFCURVE",
"40 343 CURVE SMOOTH",
"40 99.756 OFFCURVE",
"215.488 -15 OFFCURVE",
"383 -15 CURVE SMOOTH"
);
},
{
closed = 1;
nodes = (
"274.289 25 OFFCURVE",
"160 115.942 OFFCURVE",
"160 365 CURVE SMOOTH",
"160 493.562 OFFCURVE",
"204.79 675 OFFCURVE",
"390 675 CURVE SMOOTH",
"512.711 675 OFFCURVE",
"627 576.824 OFFCURVE",
"627 335 CURVE SMOOTH",
"627 199.18 OFFCURVE",
"591.895 25 OFFCURVE",
"397 25 CURVE SMOOTH"
);
},
{
closed = 1;
nodes = (
"410 790 LINE",
"360 960 LINE",
"240 960 LINE",
"380 790 LINE"
);
}
);
width = 787;
}
);
unicode = 00D2;
userData = {
com.fontlab.hintData = {
hhints = (
{
position = -15;
width = 40;
},
{
position = 675;
width = 40;
},
{
position = 790;
width = 170;
}
);
vhints = (
{
position = 40;
width = 120;
},
{
position = 240;
width = 170;
},
{
position = 627;
width = 120;
}
);
};
};
},
{
color = 11;
glyphname = Oacute;
lastChange = "2018-07-07 03:14:17 +0000";
layers = (
{
layerId = "EE8FC948-6E49-42F4-ACA5-5A0A3F8AB331";
paths = (
{
closed = 1;
nodes = (
"601.4 -15 OFFCURVE",
"747 127.322 OFFCURVE",
"747 357 CURVE SMOOTH",
"747 600.244 OFFCURVE",
"578.491 715 OFFCURVE",
"404 715 CURVE SMOOTH",
"178.619 715 OFFCURVE",
"40 551.084 OFFCURVE",
"40 343 CURVE SMOOTH",
"40 99.756 OFFCURVE",
"215.488 -15 OFFCURVE",
"383 -15 CURVE SMOOTH"
);
},
{
closed = 1;
nodes = (
"274.289 25 OFFCURVE",
"160 115.942 OFFCURVE",
"160 365 CURVE SMOOTH",
"160 493.562 OFFCURVE",
"204.79 675 OFFCURVE",
"390 675 CURVE SMOOTH",
"512.711 675 OFFCURVE",
"627 576.824 OFFCURVE",
"627 335 CURVE SMOOTH",
"627 199.18 OFFCURVE",
"591.895 25 OFFCURVE",
"397 25 CURVE SMOOTH"
);
},
{
closed = 1;
nodes = (
"380 790 LINE",
"520 960 LINE",
"400 960 LINE",
"350 790 LINE"
);
}
);
width = 787;
}
);
unicode = 00D3;
userData = {
com.fontlab.hintData = {
hhints = (
{
position = -15;
width = 40;
},
{
position = 675;
width = 40;
},
{
position = 790;
width = 170;
}
);
vhints = (
{
position = 40;
width = 120;
},
{
position = 350;
width = 170;
},
{
position = 627;
width = 120;
}
);
};
};
},
{
color = 11;
glyphname = Ocircumflex;
lastChange = "2018-07-07 03:14:17 +0000";
layers = (
{
layerId = "EE8FC948-6E49-42F4-ACA5-5A0A3F8AB331";
paths = (
{
closed = 1;
nodes = (
"601.4 -15 OFFCURVE",
"747 127.322 OFFCURVE",
"747 357 CURVE SMOOTH",
"747 600.244 OFFCURVE",
"578.491 715 OFFCURVE",
"404 715 CURVE SMOOTH",
"178.619 715 OFFCURVE",
"40 551.084 OFFCURVE",
"40 343 CURVE SMOOTH",
"40 99.756 OFFCURVE",
"215.488 -15 OFFCURVE",
"383 -15 CURVE SMOOTH"
);
},
{
closed = 1;
nodes = (
"274.289 25 OFFCURVE",
"160 115.942 OFFCURVE",
"160 365 CURVE SMOOTH",
"160 493.562 OFFCURVE",
"204.79 675 OFFCURVE",
"390 675 CURVE SMOOTH",
"512.711 675 OFFCURVE",
"627 576.824 OFFCURVE",
"627 335 CURVE SMOOTH",
"627 199.18 OFFCURVE",
"591.895 25 OFFCURVE",
"397 25 CURVE SMOOTH"
);
},
{
closed = 1;
nodes = (
"274 775 LINE",
"404 891.316 LINE",
"534 775 LINE",
"564 775 LINE",
"464 945 LINE",
"344 945 LINE",
"244 775 LINE"
);
}
);
width = 787;
}
);
unicode = 00D4;
userData = {
com.fontlab.hintData = {
hhints = (
{
position = -15;
width = 40;
},
{
position = 675;
width = 40;
},
{
position = 775;
width = 170;
}
);
vhints = (
{
position = 40;
width = 120;
},
{
position = 244;
width = 320;
},
{
position = 627;
width = 120;
}
);
};
};
},
{
color = 11;
glyphname = Otilde;
lastChange = "2018-07-07 03:14:17 +0000";
layers = (
{
layerId = "EE8FC948-6E49-42F4-ACA5-5A0A3F8AB331";
paths = (
{
closed = 1;
nodes = (
"601.4 -15 OFFCURVE",
"747 127.322 OFFCURVE",
"747 357 CURVE SMOOTH",
"747 600.244 OFFCURVE",
"578.491 715 OFFCURVE",
"404 715 CURVE SMOOTH",
"178.619 715 OFFCURVE",
"40 551.084 OFFCURVE",
"40 343 CURVE SMOOTH",
"40 99.756 OFFCURVE",
"215.488 -15 OFFCURVE",
"383 -15 CURVE SMOOTH"
);
},
{
closed = 1;
nodes = (
"274.289 25 OFFCURVE",
"160 115.942 OFFCURVE",
"160 365 CURVE SMOOTH",
"160 493.562 OFFCURVE",
"204.79 675 OFFCURVE",
"390 675 CURVE SMOOTH",
"512.711 675 OFFCURVE",
"627 576.824 OFFCURVE",
"627 335 CURVE SMOOTH",
"627 199.18 OFFCURVE",
"591.895 25 OFFCURVE",
"397 25 CURVE SMOOTH"
);
},
{
closed = 1;
nodes = (
"532.059 775 OFFCURVE",
"570 829.24 OFFCURVE",
"570 904 CURVE",
"545 904 LINE",
"540 859 OFFCURVE",
"524 835 OFFCURVE",
"498 835 CURVE SMOOTH",
"480.966 835 OFFCURVE",
"460.332 847.633 OFFCURVE",
"438 862.992 CURVE SMOOTH",
"408.745 883.112 OFFCURVE",
"375.482 904 OFFCURVE",
"340 904 CURVE SMOOTH",
"276.805 904 OFFCURVE",
"240.218 859 OFFCURVE",
"238 777 CURVE",
"263 777 LINE",
"267 815 OFFCURVE",
"281 844 OFFCURVE",
"308 844 CURVE SMOOTH",
"327.375 844 OFFCURVE",
"349.304 830.529 OFFCURVE",
"373 813.939 CURVE SMOOTH",
"399.419 795.443 OFFCURVE",
"431.561 775 OFFCURVE",
"466 775 CURVE SMOOTH"
);
}
);
width = 787;
}
);
unicode = 00D5;
userData = {
com.fontlab.hintData = {
hhints = (
{
position = -15;
width = 40;
},
{
position = 675;
width = 40;
},
{
position = 775;
width = 60;
},
{
position = 844;
width = 60;
}
);
vhints = (
{
position = 40;
width = 120;
},
{
position = 238;
width = 25;
},
{
position = 545;
width = 25;
},
{
position = 627;
width = 120;
}
);
};
};
},
{
color = 11;
glyphname = Odieresis;
lastChange = "2018-07-07 03:14:17 +0000";
layers = (
{
layerId = "EE8FC948-6E49-42F4-ACA5-5A0A3F8AB331";
paths = (
{
closed = 1;
nodes = (
"601.4 -15 OFFCURVE",
"747 127.322 OFFCURVE",
"747 357 CURVE SMOOTH",
"747 600.244 OFFCURVE",
"578.491 715 OFFCURVE",
"404 715 CURVE SMOOTH",
"178.619 715 OFFCURVE",
"40 551.084 OFFCURVE",
"40 343 CURVE SMOOTH",
"40 99.756 OFFCURVE",
"215.488 -15 OFFCURVE",
"383 -15 CURVE SMOOTH"
);
},
{
closed = 1;
nodes = (
"274.289 25 OFFCURVE",
"160 115.942 OFFCURVE",
"160 365 CURVE SMOOTH",
"160 493.562 OFFCURVE",
"204.79 675 OFFCURVE",
"390 675 CURVE SMOOTH",
"512.711 675 OFFCURVE",
"627 576.824 OFFCURVE",
"627 335 CURVE SMOOTH",
"627 199.18 OFFCURVE",
"591.895 25 OFFCURVE",
"397 25 CURVE SMOOTH"
);
},
{
closed = 1;
nodes = (
"341.3 775 OFFCURVE",
"367.7 801.4 OFFCURVE",
"367.7 833.3 CURVE SMOOTH",
"367.7 865.199 OFFCURVE",
"341.3 891.6 OFFCURVE",
"309.4 891.6 CURVE SMOOTH",
"277.5 891.6 OFFCURVE",
"251.1 865.199 OFFCURVE",
"251.1 833.3 CURVE SMOOTH",
"251.1 801.4 OFFCURVE",
"277.5 775 OFFCURVE",
"309.4 775 CURVE SMOOTH"
);
},
{
closed = 1;
nodes = (
"530.5 775 OFFCURVE",
"556.9 801.4 OFFCURVE",
"556.9 833.3 CURVE SMOOTH",
"556.9 865.199 OFFCURVE",
"530.5 891.6 OFFCURVE",
"498.6 891.6 CURVE SMOOTH",
"466.7 891.6 OFFCURVE",
"440.3 865.199 OFFCURVE",
"440.3 833.3 CURVE SMOOTH",
"440.3 801.4 OFFCURVE",
"466.7 775 OFFCURVE",
"498.6 775 CURVE SMOOTH"
);
}
);
width = 787;
}
);
unicode = 00D6;
userData = {
com.fontlab.hintData = {
hhints = (
{
position = -15;
width = 40;
},
{
position = 675;
width = 40;
},
{
position = 775;
width = 117;
}
);
vhints = (
{
position = 40;
width = 120;
},
{
position = 251;
width = 117;
},
{
position = 440;
width = 117;
},
{
position = 627;
width = 120;
}
);
};
};
},
{
color = 11;
glyphname = multiply;
lastChange = "2018-07-07 03:14:17 +0000";
layers = (
{
layerId = "EE8FC948-6E49-42F4-ACA5-5A0A3F8AB331";
paths = (
{
closed = 1;
nodes = (
"304 266 LINE",
"466 104 LINE",
"515 153 LINE",
"353 315 LINE",
"515 477 LINE",
"466 526 LINE",
"304 364 LINE",
"142 526 LINE",
"93 477 LINE",
"255 315 LINE",
"93 153 LINE",
"142 104 LINE"
);
}
);
width = 668;
}
);
unicode = 00D7;
},
{
color = 11;
glyphname = Oslash;
lastChange = "2018-07-07 03:14:17 +0000";
layers = (
{
layerId = "EE8FC948-6E49-42F4-ACA5-5A0A3F8AB331";
paths = (
{
closed = 1;
nodes = (
"183.674 45.113 LINE",
"242.778 4.712 OFFCURVE",
"313.574 -15 OFFCURVE",
"383 -15 CURVE SMOOTH",
"601.4 -15 OFFCURVE",
"747 127.322 OFFCURVE",
"747 357 CURVE SMOOTH",
"747 468.915 OFFCURVE",
"711.329 553.631 OFFCURVE",
"655.817 612.485 CURVE",
"712 680 LINE",
"679 709 LINE",
"623.541 642.129 LINE",
"561.875 691.143 OFFCURVE",
"483.559 715 OFFCURVE",
"404 715 CURVE SMOOTH",
"178.619 715 OFFCURVE",
"40 551.084 OFFCURVE",
"40 343 CURVE SMOOTH",
"40 220.423 OFFCURVE",
"84.563 130.475 OFFCURVE",
"150.213 71.398 CURVE",
"91 0 LINE",
"122 -29 LINE"
);
},
{
closed = 1;
nodes = (
"335.23 25 OFFCURVE",
"275.594 48.044 OFFCURVE",
"231.595 102.7 CURVE",
"591.066 534.674 LINE",
"613.606 483.734 OFFCURVE",
"627 417.784 OFFCURVE",
"627 335 CURVE SMOOTH",
"627 199.18 OFFCURVE",
"591.895 25 OFFCURVE",
"397 25 CURVE SMOOTH"
);
},
{
closed = 1;
nodes = (
"177.819 192.97 OFFCURVE",
"160 266.659 OFFCURVE",
"160 365 CURVE SMOOTH",
"160 493.562 OFFCURVE",
"204.79 675 OFFCURVE",
"390 675 CURVE SMOOTH",
"458.258 675 OFFCURVE",
"523.909 644.623 OFFCURVE",
"568.735 576.044 CURVE",
"206.938 139.797 LINE"
);
}
);
width = 813;
}
);
unicode = 00D8;
userData = {
com.fontlab.hintData = {
hhints = (
{
position = -15;
width = 40;
},
{
position = 675;
width = 40;
},
{
position = 689;
width = 20;
}
);
vhints = (
{
position = 40;
width = 120;
},
{
position = 627;
width = 120;
}
);
};
};
},
{
color = 11;
glyphname = Ugrave;
lastChange = "2018-07-07 03:14:17 +0000";
layers = (
{
layerId = "EE8FC948-6E49-42F4-ACA5-5A0A3F8AB331";
paths = (
{
closed = 1;
nodes = (
"570 -15 OFFCURVE",
"692 59.753 OFFCURVE",
"692 257 CURVE SMOOTH",
"692 610 LINE SMOOTH",
"692 630 OFFCURVE",
"710.812 644.356 OFFCURVE",
"730 650 CURVE SMOOTH",
"798 670 LINE",
"798 700 LINE",
"519 700 LINE",
"519 670 LINE",
"590 650 LINE SMOOTH",
"609.251 644.577 OFFCURVE",
"635 630 OFFCURVE",
"635 610 CURVE SMOOTH",
"635 267 LINE SMOOTH",
"631.506 77.139 OFFCURVE",
"532 40 OFFCURVE",
"448 40 CURVE SMOOTH",
"311 40 OFFCURVE",
"260 113.334 OFFCURVE",
"260 234 CURVE SMOOTH",
"260 610 LINE SMOOTH",
"260 630 OFFCURVE",
"270.597 645.149 OFFCURVE",
"290 650 CURVE SMOOTH",
"370 670 LINE",
"370 700 LINE",
"40 700 LINE",
"40 670 LINE",
"120 650 LINE SMOOTH",
"139.403 645.149 OFFCURVE",
"150 630 OFFCURVE",
"150 610 CURVE SMOOTH",
"150 237.404 LINE SMOOTH",
"150 72.177 OFFCURVE",
"256 -15 OFFCURVE",
"412 -15 CURVE SMOOTH"
);
},
{
closed = 1;
nodes = (
"460 790 LINE",
"410 960 LINE",
"290 960 LINE",
"430 790 LINE"
);
}
);
width = 838;
}
);
unicode = 00D9;
userData = {
com.fontlab.hintData = {
hhints = (
{
position = -15;
width = 55;
},
{
position = 670;
width = 30;
},
{
position = 790;
width = 170;
}
);
vhints = (
{
position = 150;
width = 110;
},
{
position = 290;
width = 170;
},
{
position = 635;
width = 57;
}
);
};
};
},
{
color = 11;
glyphname = Uacute;
lastChange = "2018-07-07 03:14:17 +0000";
layers = (
{
layerId = "EE8FC948-6E49-42F4-ACA5-5A0A3F8AB331";
paths = (
{
closed = 1;
nodes = (
"570 -15 OFFCURVE",
"692 59.753 OFFCURVE",
"692 257 CURVE SMOOTH",
"692 610 LINE SMOOTH",
"692 630 OFFCURVE",
"710.812 644.356 OFFCURVE",
"730 650 CURVE SMOOTH",
"798 670 LINE",
"798 700 LINE",
"519 700 LINE",
"519 670 LINE",
"590 650 LINE SMOOTH",
"609.251 644.577 OFFCURVE",
"635 630 OFFCURVE",
"635 610 CURVE SMOOTH",
"635 267 LINE SMOOTH",
"631.506 77.139 OFFCURVE",
"532 40 OFFCURVE",
"448 40 CURVE SMOOTH",
"311 40 OFFCURVE",
"260 113.334 OFFCURVE",
"260 234 CURVE SMOOTH",
"260 610 LINE SMOOTH",
"260 630 OFFCURVE",
"270.597 645.149 OFFCURVE",
"290 650 CURVE SMOOTH",
"370 670 LINE",
"370 700 LINE",
"40 700 LINE",
"40 670 LINE",
"120 650 LINE SMOOTH",
"139.403 645.149 OFFCURVE",
"150 630 OFFCURVE",
"150 610 CURVE SMOOTH",
"150 237.404 LINE SMOOTH",
"150 72.177 OFFCURVE",
"256 -15 OFFCURVE",
"412 -15 CURVE SMOOTH"
);
},
{
closed = 1;
nodes = (
"430 790 LINE",
"570 960 LINE",
"450 960 LINE",
"400 790 LINE"
);
}
);
width = 838;
}
);
unicode = 00DA;
userData = {
com.fontlab.hintData = {
hhints = (
{
position = -15;
width = 55;
},
{
position = 670;
width = 30;
},
{
position = 790;
width = 170;
}
);
vhints = (
{
position = 150;
width = 110;
},
{
position = 400;
width = 170;
},
{
position = 635;
width = 57;
}
);
};
};
},
{
color = 11;
glyphname = Ucircumflex;
lastChange = "2018-07-07 03:14:17 +0000";
layers = (
{
layerId = "EE8FC948-6E49-42F4-ACA5-5A0A3F8AB331";
paths = (
{
closed = 1;
nodes = (
"570 -15 OFFCURVE",
"692 59.753 OFFCURVE",
"692 257 CURVE SMOOTH",
"692 610 LINE SMOOTH",
"692 630 OFFCURVE",
"710.812 644.356 OFFCURVE",
"730 650 CURVE SMOOTH",
"798 670 LINE",
"798 700 LINE",
"519 700 LINE",
"519 670 LINE",
"590 650 LINE SMOOTH",
"609.251 644.577 OFFCURVE",
"635 630 OFFCURVE",
"635 610 CURVE SMOOTH",
"635 267 LINE SMOOTH",
"631.506 77.139 OFFCURVE",
"532 40 OFFCURVE",
"448 40 CURVE SMOOTH",
"311 40 OFFCURVE",
"260 113.334 OFFCURVE",
"260 234 CURVE SMOOTH",
"260 610 LINE SMOOTH",
"260 630 OFFCURVE",
"270.597 645.149 OFFCURVE",
"290 650 CURVE SMOOTH",
"370 670 LINE",
"370 700 LINE",
"40 700 LINE",
"40 670 LINE",
"120 650 LINE SMOOTH",
"139.403 645.149 OFFCURVE",
"150 630 OFFCURVE",
"150 610 CURVE SMOOTH",
"150 237.404 LINE SMOOTH",
"150 72.177 OFFCURVE",
"256 -15 OFFCURVE",
"412 -15 CURVE SMOOTH"
);
},
{
closed = 1;
nodes = (
"289 775 LINE",
"419 891.316 LINE",
"549 775 LINE",
"579 775 LINE",
"479 945 LINE",
"359 945 LINE",
"259 775 LINE"
);
}
);
width = 838;
}
);
unicode = 00DB;
userData = {
com.fontlab.hintData = {
hhints = (
{
position = -15;
width = 55;
},
{
position = 670;
width = 30;
},
{
position = 775;
width = 170;
}
);
vhints = (
{
position = 150;
width = 110;
},
{
position = 259;
width = 320;
},
{
position = 635;
width = 57;
}
);
};
};
},
{
color = 11;
glyphname = Udieresis;
lastChange = "2018-07-07 03:14:17 +0000";
layers = (
{
layerId = "EE8FC948-6E49-42F4-ACA5-5A0A3F8AB331";
paths = (
{
closed = 1;
nodes = (
"570 -15 OFFCURVE",
"692 59.753 OFFCURVE",
"692 257 CURVE SMOOTH",
"692 610 LINE SMOOTH",
"692 630 OFFCURVE",
"710.812 644.356 OFFCURVE",
"730 650 CURVE SMOOTH",
"798 670 LINE",
"798 700 LINE",
"519 700 LINE",
"519 670 LINE",
"590 650 LINE SMOOTH",
"609.251 644.577 OFFCURVE",
"635 630 OFFCURVE",
"635 610 CURVE SMOOTH",
"635 267 LINE SMOOTH",
"631.506 77.139 OFFCURVE",
"532 40 OFFCURVE",
"448 40 CURVE SMOOTH",
"311 40 OFFCURVE",
"260 113.334 OFFCURVE",
"260 234 CURVE SMOOTH",
"260 610 LINE SMOOTH",
"260 630 OFFCURVE",
"270.597 645.149 OFFCURVE",
"290 650 CURVE SMOOTH",
"370 670 LINE",
"370 700 LINE",
"40 700 LINE",
"40 670 LINE",
"120 650 LINE SMOOTH",
"139.403 645.149 OFFCURVE",
"150 630 OFFCURVE",
"150 610 CURVE SMOOTH",
"150 237.404 LINE SMOOTH",
"150 72.177 OFFCURVE",
"256 -15 OFFCURVE",
"412 -15 CURVE SMOOTH"
);
},
{
closed = 1;
nodes = (
"382.399 769.7 OFFCURVE",
"408.8 796.101 OFFCURVE",
"408.8 828 CURVE SMOOTH",
"408.8 859.899 OFFCURVE",
"382.399 886.3 OFFCURVE",
"350.5 886.3 CURVE SMOOTH",
"318.6 886.3 OFFCURVE",
"292.199 859.899 OFFCURVE",
"292.199 828 CURVE SMOOTH",
"292.199 796.101 OFFCURVE",
"318.6 769.7 OFFCURVE",
"350.5 769.7 CURVE SMOOTH"
);
},
{
closed = 1;
nodes = (
"571.6 769.7 OFFCURVE",
"598 796.101 OFFCURVE",
"598 828 CURVE SMOOTH",
"598 859.899 OFFCURVE",
"571.6 886.3 OFFCURVE",
"539.699 886.3 CURVE SMOOTH",
"507.8 886.3 OFFCURVE",
"481.399 859.899 OFFCURVE",
"481.399 828 CURVE SMOOTH",
"481.399 796.101 OFFCURVE",
"507.8 769.7 OFFCURVE",
"539.699 769.7 CURVE SMOOTH"
);
}
);
width = 838;
}
);
unicode = 00DC;
userData = {
com.fontlab.hintData = {
hhints = (
{
position = -15;
width = 55;
},
{
position = 670;
width = 30;
},
{
position = 770;
width = 117;
}
);
vhints = (
{
position = 150;
width = 110;
},
{
position = 292;
width = 117;
},
{
position = 481;
width = 117;
},
{
position = 635;
width = 57;
}
);
};
};
},
{
color = 11;
glyphname = Yacute;
lastChange = "2018-07-07 03:14:17 +0000";
layers = (
{
layerId = "EE8FC948-6E49-42F4-ACA5-5A0A3F8AB331";
paths = (
{
closed = 1;
nodes = (
"561 0 LINE",
"561 30 LINE",
"481 50 LINE SMOOTH",
"461 55 OFFCURVE",
"451 70 OFFCURVE",
"451 90 CURVE SMOOTH",
"451 304.415 LINE",
"621 593 LINE SMOOTH",
"634.615 615 OFFCURVE",
"649.438 636.417 OFFCURVE",
"680 650 CURVE SMOOTH",
"725 670 LINE",
"725 700 LINE",
"510 700 LINE",
"510 670 LINE",
"560 650 LINE SMOOTH",
"573.448 644.621 OFFCURVE",
"576 626 OFFCURVE",
"568 610 CURVE SMOOTH",
"430 364 LINE",
"282 610 LINE SMOOTH",
"274 624 OFFCURVE",
"278.591 643.284 OFFCURVE",
"289 650 CURVE SMOOTH",
"320 670 LINE",
"320 700 LINE",
"40 700 LINE",
"40 670 LINE",
"80 650 LINE SMOOTH",
"105.646 637.177 OFFCURVE",
"120.857 628 OFFCURVE",
"135 610 CURVE SMOOTH",
"341 294.076 LINE",
"341 90 LINE SMOOTH",
"341 70 OFFCURVE",
"331 55 OFFCURVE",
"311 50 CURVE SMOOTH",
"231 30 LINE",
"231 0 LINE"
);
},
{
closed = 1;
nodes = (
"400 790 LINE",
"540 960 LINE",
"420 960 LINE",
"370 790 LINE"
);
}
);
width = 765;
}
);
unicode = 00DD;
userData = {
com.fontlab.hintData = {
hhints = (
{
position = 0;
width = 30;
},
{
position = 245;
width = 77;
},
{
position = 680;
width = 20;
},
{
position = 790;
width = 170;
}
);
vhints = (
{
position = 341;
width = 110;
},
{
position = 370;
width = 170;
}
);
};
};
},
{
color = 11;
glyphname = Thorn;
lastChange = "2018-07-07 03:14:17 +0000";
layers = (
{
layerId = "EE8FC948-6E49-42F4-ACA5-5A0A3F8AB331";
paths = (
{
closed = 1;
nodes = (
"370 0 LINE",
"370 30 LINE",
"290 50 LINE SMOOTH",
"270 55 OFFCURVE",
"260 70 OFFCURVE",
"260 90 CURVE SMOOTH",
"260 459 LINE SMOOTH",
"260 489 OFFCURVE",
"280 499 OFFCURVE",
"300 499 CURVE SMOOTH",
"320 499 LINE SMOOTH",
"430 499 OFFCURVE",
"480 440 OFFCURVE",
"480 349 CURVE SMOOTH",
"480 250 OFFCURVE",
"430 159 OFFCURVE",
"290 179 CURVE",
"290 139 LINE",
"305 134 OFFCURVE",
"330 129 OFFCURVE",
"350 129 CURVE SMOOTH",
"500 129 OFFCURVE",
"600 219 OFFCURVE",
"600 349 CURVE SMOOTH",
"600 459 OFFCURVE",
"540 539 OFFCURVE",
"350 539 CURVE SMOOTH",
"260 539 LINE",
"260 600 LINE",
"260 610 LINE SMOOTH",
"260 630 OFFCURVE",
"270 645 OFFCURVE",
"290 650 CURVE SMOOTH",
"370 670 LINE",
"370 700 LINE",
"40 700 LINE",
"40 670 LINE",
"120 650 LINE SMOOTH",
"140 645 OFFCURVE",
"150 630 OFFCURVE",
"150 610 CURVE SMOOTH",
"150 600 LINE",
"150 539 LINE",
"150 90 LINE SMOOTH",
"150 70 OFFCURVE",
"140 55 OFFCURVE",
"120 50 CURVE SMOOTH",
"40 30 LINE",
"40 0 LINE"
);
}
);
width = 640;
}
);
unicode = 00DE;
userData = {
com.fontlab.hintData = {
hhints = (
{
position = 0;
width = 30;
},
{
position = 139;
width = 40;
},
{
position = 499;
width = 40;
},
{
position = 539;
width = 161;
},
{
position = 670;
width = 30;
}
);
vhints = (
{
position = 150;
width = 110;
},
{
position = 480;
width = 120;
}
);
};
};
},
{
color = 11;
glyphname = germandbls;
lastChange = "2018-07-07 03:14:17 +0000";
layers = (
{
layerId = "EE8FC948-6E49-42F4-ACA5-5A0A3F8AB331";
paths = (
{
closed = 1;
nodes = (
"517.86 -7 OFFCURVE",
"579 101.315 OFFCURVE",
"579 212 CURVE SMOOTH",
"579 288.136 OFFCURVE",
"528.833 393.773 OFFCURVE",
"376 409 CURVE",
"376 411 LINE",
"482.73 446.455 OFFCURVE",
"525 493.922 OFFCURVE",
"525 568 CURVE SMOOTH",
"525 654.588 OFFCURVE",
"443.698 715 OFFCURVE",
"328 715 CURVE SMOOTH",
"262 715 OFFCURVE",
"219 694.654 OFFCURVE",
"181 656 CURVE SMOOTH",
"103.006 576.66 OFFCURVE",
"133.68 499.957 OFFCURVE",
"90 463 CURVE SMOOTH",
"67.328 443.817 OFFCURVE",
"46 440 OFFCURVE",
"24 440 CURVE",
"24 396 LINE",
"100 396 LINE",
"100 95 LINE SMOOTH",
"100 55 OFFCURVE",
"80 35 OFFCURVE",
"30 25 CURVE",
"30 0 LINE",
"270 0 LINE",
"270 25 LINE",
"220 35 OFFCURVE",
"200 55 OFFCURVE",
"200 95 CURVE SMOOTH",
"200 527 LINE SMOOTH",
"200 624.674 OFFCURVE",
"244 672 OFFCURVE",
"311 672 CURVE SMOOTH",
"375 672 OFFCURVE",
"425 624.564 OFFCURVE",
"425 563 CURVE SMOOTH",
"425 493.619 OFFCURVE",
"387 437.667 OFFCURVE",
"296 422 CURVE",
"296 380 LINE",
"419 365.655 OFFCURVE",
"469 241.332 OFFCURVE",
"469 161 CURVE SMOOTH",
"469 55.4 OFFCURVE",
"441 26 OFFCURVE",
"404 26 CURVE SMOOTH",
"347 26 OFFCURVE",
"392 102 OFFCURVE",
"335 102 CURVE SMOOTH",
"312 102 OFFCURVE",
"294 84 OFFCURVE",
"294 59 CURVE SMOOTH",
"294 23 OFFCURVE",
"325 -7 OFFCURVE",
"385 -7 CURVE SMOOTH"
);
}
);
width = 619;
}
);
unicode = 00DF;
userData = {
com.fontlab.hintData = {
hhints = (
{
position = -7;
width = 33;
},
{
position = 0;
width = 25;
},
{
position = 396;
width = 44;
},
{
position = 672;
width = 43;
}
);
vhints = (
{
position = 100;
width = 100;
},
{
position = 425;
width = 100;
},
{
position = 469;
width = 110;
}
);
};
};
},
{
color = 11;
glyphname = agrave;
lastChange = "2018-07-07 03:14:17 +0000";
layers = (
{
layerId = "EE8FC948-6E49-42F4-ACA5-5A0A3F8AB331";
paths = (
{
closed = 1;
nodes = (
"240 -20 OFFCURVE",
"280 5 OFFCURVE",
"310 55 CURVE",
"320 5 OFFCURVE",
"360 -15 OFFCURVE",
"410 -15 CURVE SMOOTH",
"460 -15 OFFCURVE",
"490 10 OFFCURVE",
"510 40 CURVE",
"490 60 LINE",
"480 50 OFFCURVE",
"460 45 OFFCURVE",
"445 45 CURVE SMOOTH",
"430 45 OFFCURVE",
"410 60 OFFCURVE",
"410 90 CURVE SMOOTH",
"410 370 LINE SMOOTH",
"410 430 OFFCURVE",
"380 500 OFFCURVE",
"260 500 CURVE SMOOTH",
"120 500 OFFCURVE",
"70 430 OFFCURVE",
"70 390 CURVE SMOOTH",
"70 360 OFFCURVE",
"80 330 OFFCURVE",
"110 330 CURVE SMOOTH",
"130 330 OFFCURVE",
"160 340 OFFCURVE",
"180 360 CURVE",
"165 390 LINE SMOOTH",
"160.207 399.586 OFFCURVE",
"157.882 408 OFFCURVE",
"157.882 416 CURVE SMOOTH",
"157.882 448.67 OFFCURVE",
"194.586 465 OFFCURVE",
"235 465 CURVE SMOOTH",
"275 465 OFFCURVE",
"310 445 OFFCURVE",
"310 395 CURVE SMOOTH",
"310 300 LINE",
"160 250 OFFCURVE",
"40 220 OFFCURVE",
"40 120 CURVE SMOOTH",
"40 40 OFFCURVE",
"100 -20 OFFCURVE",
"180 -20 CURVE SMOOTH"
);
},
{
closed = 1;
nodes = (
"170 50 OFFCURVE",
"145 90 OFFCURVE",
"145 130 CURVE SMOOTH",
"145 190 OFFCURVE",
"180 215 OFFCURVE",
"310 265 CURVE",
"310 150 LINE SMOOTH",
"310 90 OFFCURVE",
"285 50 OFFCURVE",
"230 50 CURVE SMOOTH"
);
},
{
closed = 1;
nodes = (
"250 560 LINE",
"200 730 LINE",
"80 730 LINE",
"220 560 LINE"
);
}
);
width = 510;
}
);
unicode = 00E0;
userData = {
com.fontlab.hintData = {
hhints = (
{
position = -20;
width = 70;
},
{
position = 465;
width = 35;
},
{
position = 560;
width = 170;
}
);
vhints = (
{
position = 40;
width = 105;
},
{
position = 70;
width = 88;
},
{
position = 80;
width = 170;
},
{
position = 310;
width = 100;
}
);
};
};
},
{
color = 11;
glyphname = aacute;
lastChange = "2018-07-07 03:14:17 +0000";
layers = (
{
layerId = "EE8FC948-6E49-42F4-ACA5-5A0A3F8AB331";
paths = (
{
closed = 1;
nodes = (
"240 -20 OFFCURVE",
"280 5 OFFCURVE",
"310 55 CURVE",
"320 5 OFFCURVE",
"360 -15 OFFCURVE",
"410 -15 CURVE SMOOTH",
"460 -15 OFFCURVE",
"490 10 OFFCURVE",
"510 40 CURVE",
"490 60 LINE",
"480 50 OFFCURVE",
"460 45 OFFCURVE",
"445 45 CURVE SMOOTH",
"430 45 OFFCURVE",
"410 60 OFFCURVE",
"410 90 CURVE SMOOTH",
"410 370 LINE SMOOTH",
"410 430 OFFCURVE",
"380 500 OFFCURVE",
"260 500 CURVE SMOOTH",
"120 500 OFFCURVE",
"70 430 OFFCURVE",
"70 390 CURVE SMOOTH",
"70 360 OFFCURVE",
"80 330 OFFCURVE",
"110 330 CURVE SMOOTH",
"130 330 OFFCURVE",
"160 340 OFFCURVE",
"180 360 CURVE",
"165 390 LINE SMOOTH",
"160.207 399.586 OFFCURVE",
"157.882 408 OFFCURVE",
"157.882 416 CURVE SMOOTH",
"157.882 448.67 OFFCURVE",
"194.586 465 OFFCURVE",
"235 465 CURVE SMOOTH",
"275 465 OFFCURVE",
"310 445 OFFCURVE",
"310 395 CURVE SMOOTH",
"310 300 LINE",
"160 250 OFFCURVE",
"40 220 OFFCURVE",
"40 120 CURVE SMOOTH",
"40 40 OFFCURVE",
"100 -20 OFFCURVE",
"180 -20 CURVE SMOOTH"
);
},
{
closed = 1;
nodes = (
"170 50 OFFCURVE",
"145 90 OFFCURVE",
"145 130 CURVE SMOOTH",
"145 190 OFFCURVE",
"180 215 OFFCURVE",
"310 265 CURVE",
"310 150 LINE SMOOTH",
"310 90 OFFCURVE",
"285 50 OFFCURVE",
"230 50 CURVE SMOOTH"
);
},
{
closed = 1;
nodes = (
"220 560 LINE",
"360 730 LINE",
"240 730 LINE",
"190 560 LINE"
);
}
);
width = 510;
}
);
unicode = 00E1;
userData = {
com.fontlab.hintData = {
hhints = (
{
position = -20;
width = 70;
},
{
position = 465;
width = 35;
},
{
position = 560;
width = 170;
}
);
vhints = (
{
position = 40;
width = 105;
},
{
position = 70;
width = 88;
},
{
position = 190;
width = 170;
},
{
position = 310;
width = 100;
}
);
};
};
},
{
color = 11;
glyphname = acircumflex;
lastChange = "2018-07-07 03:14:17 +0000";
layers = (
{
layerId = "EE8FC948-6E49-42F4-ACA5-5A0A3F8AB331";
paths = (
{
closed = 1;
nodes = (
"240 -20 OFFCURVE",
"280 5 OFFCURVE",
"310 55 CURVE",
"320 5 OFFCURVE",
"360 -15 OFFCURVE",
"410 -15 CURVE SMOOTH",
"460 -15 OFFCURVE",
"490 10 OFFCURVE",
"510 40 CURVE",
"490 60 LINE",
"480 50 OFFCURVE",
"460 45 OFFCURVE",
"445 45 CURVE SMOOTH",
"430 45 OFFCURVE",
"410 60 OFFCURVE",
"410 90 CURVE SMOOTH",
"410 370 LINE SMOOTH",
"410 430 OFFCURVE",
"380 500 OFFCURVE",
"260 500 CURVE SMOOTH",
"120 500 OFFCURVE",
"70 430 OFFCURVE",
"70 390 CURVE SMOOTH",
"70 360 OFFCURVE",
"80 330 OFFCURVE",
"110 330 CURVE SMOOTH",
"130 330 OFFCURVE",
"160 340 OFFCURVE",
"180 360 CURVE",
"165 390 LINE SMOOTH",
"160.207 399.586 OFFCURVE",
"157.882 408 OFFCURVE",
"157.882 416 CURVE SMOOTH",
"157.882 448.67 OFFCURVE",
"194.586 465 OFFCURVE",
"235 465 CURVE SMOOTH",
"275 465 OFFCURVE",
"310 445 OFFCURVE",
"310 395 CURVE SMOOTH",
"310 300 LINE",
"160 250 OFFCURVE",
"40 220 OFFCURVE",
"40 120 CURVE SMOOTH",
"40 40 OFFCURVE",
"100 -20 OFFCURVE",
"180 -20 CURVE SMOOTH"
);
},
{
closed = 1;
nodes = (
"170 50 OFFCURVE",
"145 90 OFFCURVE",
"145 130 CURVE SMOOTH",
"145 190 OFFCURVE",
"180 215 OFFCURVE",
"310 265 CURVE",
"310 150 LINE SMOOTH",
"310 90 OFFCURVE",
"285 50 OFFCURVE",
"230 50 CURVE SMOOTH"
);
},
{
closed = 1;
nodes = (
"130 560 LINE",
"260 676.316 LINE",
"390 560 LINE",
"420 560 LINE",
"320 730 LINE",
"200 730 LINE",
"100 560 LINE"
);
}
);
width = 510;
}
);
unicode = 00E2;
userData = {
com.fontlab.hintData = {
hhints = (
{
position = -20;
width = 70;
},
{
position = 465;
width = 35;
},
{
position = 560;
width = 170;
}
);
vhints = (
{
position = 40;
width = 105;
},
{
position = 70;
width = 88;
},
{
position = 100;
width = 320;
},
{
position = 310;
width = 100;
}
);
};
};
},
{
color = 11;
glyphname = atilde;
lastChange = "2018-07-07 03:14:17 +0000";
layers = (
{
layerId = "EE8FC948-6E49-42F4-ACA5-5A0A3F8AB331";
paths = (
{
closed = 1;
nodes = (
"240 -20 OFFCURVE",
"280 5 OFFCURVE",
"310 55 CURVE",
"320 5 OFFCURVE",
"360 -15 OFFCURVE",
"410 -15 CURVE SMOOTH",
"460 -15 OFFCURVE",
"490 10 OFFCURVE",
"510 40 CURVE",
"490 60 LINE",
"480 50 OFFCURVE",
"460 45 OFFCURVE",
"445 45 CURVE SMOOTH",
"430 45 OFFCURVE",
"410 60 OFFCURVE",
"410 90 CURVE SMOOTH",
"410 370 LINE SMOOTH",
"410 430 OFFCURVE",
"380 500 OFFCURVE",
"260 500 CURVE SMOOTH",
"120 500 OFFCURVE",
"70 430 OFFCURVE",
"70 390 CURVE SMOOTH",
"70 360 OFFCURVE",
"80 330 OFFCURVE",
"110 330 CURVE SMOOTH",
"130 330 OFFCURVE",
"160 340 OFFCURVE",
"180 360 CURVE",
"165 390 LINE SMOOTH",
"160.207 399.586 OFFCURVE",
"157.882 408 OFFCURVE",
"157.882 416 CURVE SMOOTH",
"157.882 448.67 OFFCURVE",
"194.586 465 OFFCURVE",
"235 465 CURVE SMOOTH",
"275 465 OFFCURVE",
"310 445 OFFCURVE",
"310 395 CURVE SMOOTH",
"310 300 LINE",
"160 250 OFFCURVE",
"40 220 OFFCURVE",
"40 120 CURVE SMOOTH",
"40 40 OFFCURVE",
"100 -20 OFFCURVE",
"180 -20 CURVE SMOOTH"
);
},
{
closed = 1;
nodes = (
"170 50 OFFCURVE",
"145 90 OFFCURVE",
"145 130 CURVE SMOOTH",
"145 190 OFFCURVE",
"180 215 OFFCURVE",
"310 265 CURVE",
"310 150 LINE SMOOTH",
"310 90 OFFCURVE",
"285 50 OFFCURVE",
"230 50 CURVE SMOOTH"
);
},
{
closed = 1;
nodes = (
"388.059 560 OFFCURVE",
"426 614.24 OFFCURVE",
"426 689 CURVE",
"401 689 LINE",
"396 644 OFFCURVE",
"380 620 OFFCURVE",
"354 620 CURVE SMOOTH",
"336.966 620 OFFCURVE",
"316.332 632.633 OFFCURVE",
"294 647.992 CURVE SMOOTH",
"264.745 668.112 OFFCURVE",
"231.482 689 OFFCURVE",
"196 689 CURVE SMOOTH",
"132.805 689 OFFCURVE",
"96.218 644 OFFCURVE",
"94 562 CURVE",
"119 562 LINE",
"123 600 OFFCURVE",
"137 629 OFFCURVE",
"164 629 CURVE SMOOTH",
"183.375 629 OFFCURVE",
"205.304 615.529 OFFCURVE",
"229 598.939 CURVE SMOOTH",
"255.419 580.443 OFFCURVE",
"287.561 560 OFFCURVE",
"322 560 CURVE SMOOTH"
);
}
);
width = 510;
}
);
unicode = 00E3;
userData = {
com.fontlab.hintData = {
hhints = (
{
position = -20;
width = 70;
},
{
position = 465;
width = 35;
},
{
position = 560;
width = 60;
},
{
position = 629;
width = 60;
}
);
vhints = (
{
position = 40;
width = 105;
},
{
position = 70;
width = 88;
},
{
position = 94;
width = 25;
},
{
position = 310;
width = 100;
},
{
position = 401;
width = 25;
}
);
};
};
},
